<svg width="209" height="50" viewBox="0 0 209 50" fill="none" xmlns="http://www.w3.org/2000/svg">
<path d="M62.4453 8.04956H65.4856V22.8701H62.4453V8.04956Z" fill="#06061A"/>
<path d="M72.0365 22.997C71.5346 22.8701 71.0731 22.6855 70.652 22.4432C70.2366 22.2009 69.8616 21.9067 69.5328 21.5663C69.204 21.2202 68.927 20.8336 68.702 20.4067C68.4771 19.9741 68.304 19.5068 68.1886 18.9991C68.0675 18.4914 68.0098 17.9491 68.0098 17.3722V17.3492C68.0098 16.4953 68.1425 15.7108 68.4021 15.0012C68.6674 14.2916 69.0424 13.6801 69.5328 13.1666C70.0232 12.6532 70.6174 12.2551 71.3154 11.9724C72.0135 11.6898 72.7923 11.5455 73.6519 11.5455C74.4249 11.5455 75.1172 11.6494 75.746 11.8513C76.3691 12.0532 76.9113 12.3359 77.3671 12.6993C77.8228 13.0628 78.1978 13.4897 78.4921 13.9916C78.7863 14.4935 78.994 15.0473 79.1151 15.6473H76.1902C76.1152 15.33 75.9998 15.0589 75.8556 14.8223C75.7056 14.5858 75.5325 14.3954 75.3191 14.2397C75.1114 14.0839 74.8691 13.9685 74.5922 13.8935C74.3211 13.8185 74.0268 13.7781 73.7095 13.7781C73.3115 13.7781 72.948 13.8589 72.625 14.0204C72.3019 14.182 72.025 14.4127 71.7885 14.7185C71.5519 15.0242 71.3731 15.3992 71.2462 15.8434C71.1193 16.2877 71.0558 16.7896 71.0558 17.3492V17.3722C71.0558 17.753 71.0846 18.1049 71.1423 18.428C71.2 18.751 71.2866 19.051 71.3962 19.3164C71.5058 19.5818 71.6385 19.8183 71.7885 20.0202C71.9442 20.2221 72.1173 20.3952 72.3134 20.5337C72.5096 20.6721 72.723 20.7817 72.9538 20.8509C73.1846 20.9202 73.4326 20.9548 73.698 20.9548C74.0153 20.9548 74.3095 20.9144 74.5807 20.8394C74.8518 20.7644 75.0941 20.6433 75.3076 20.4875C75.5152 20.3317 75.6941 20.1356 75.8441 19.8991C75.9941 19.6625 76.1037 19.3914 76.1787 19.0856H79.1036C78.9824 19.6798 78.7805 20.2337 78.4805 20.7356C78.1863 21.2375 77.8113 21.6759 77.3556 22.0394C76.8998 22.4028 76.3633 22.6855 75.7345 22.8874C75.1114 23.0893 74.4134 23.1874 73.6403 23.1874C73.0807 23.1874 72.5442 23.1239 72.0365 22.997Z" fill="#06061A"/>
<path d="M83.0472 22.9569C82.5453 22.8012 82.1068 22.582 81.7376 22.2877C81.3684 21.9993 81.0857 21.6474 80.878 21.232C80.6761 20.8166 80.5723 20.3551 80.5723 19.8359V19.8244C80.5723 19.4263 80.6242 19.0686 80.728 18.7456C80.8319 18.4283 80.9876 18.1456 81.1953 17.8918C81.403 17.6437 81.6568 17.4245 81.9684 17.2341C82.2741 17.0437 82.6318 16.8764 83.0414 16.7322C83.4452 16.588 83.901 16.4668 84.3971 16.3572C84.8933 16.2534 85.4355 16.1611 86.024 16.0861C86.4682 16.0284 86.8201 15.9707 87.0797 15.913C87.3451 15.8553 87.547 15.7803 87.6912 15.6938C87.8355 15.6072 87.9278 15.5034 87.9739 15.3822C88.0201 15.2611 88.0431 15.1111 88.0431 14.9323V14.9149C88.0431 14.6669 87.997 14.4592 87.9047 14.2861C87.8124 14.1131 87.6797 13.9631 87.5066 13.8477C87.3335 13.7323 87.1201 13.6458 86.8836 13.5881C86.6413 13.5304 86.3701 13.5015 86.0701 13.5015C85.7413 13.5015 85.4413 13.5362 85.1702 13.6054C84.899 13.6746 84.6683 13.7842 84.4779 13.9284C84.2875 14.0784 84.1317 14.263 84.0279 14.488C83.9183 14.713 83.8606 14.9784 83.8433 15.2842H81.0626C81.0742 14.6611 81.2126 14.1131 81.4665 13.6458C81.7203 13.1785 82.0722 12.7862 82.5107 12.4689C82.9549 12.1516 83.4798 11.9151 84.0914 11.7535C84.7029 11.592 85.3721 11.5112 86.0932 11.5112C86.8374 11.5112 87.5008 11.5747 88.0951 11.6958C88.6893 11.817 89.1854 12.0247 89.6008 12.3189C90.0104 12.6131 90.3219 13.0054 90.5411 13.4958C90.7603 13.9861 90.8642 14.5976 90.8642 15.3361L90.8353 19.4032C90.8353 19.7725 90.8411 20.1186 90.8526 20.4359C90.8642 20.7532 90.8815 21.0474 90.9046 21.3301C90.9276 21.6128 90.9623 21.8781 91.0084 22.1262C91.0546 22.38 91.1065 22.6223 91.1699 22.8646H88.3085C88.297 22.7781 88.2797 22.6973 88.2739 22.6223C88.2624 22.5473 88.2508 22.4666 88.245 22.3916C88.2335 22.3166 88.2277 22.23 88.2162 22.1435C88.2104 22.057 88.2047 21.9589 88.2047 21.8551C88.0201 22.0627 87.8181 22.2531 87.5816 22.4147C87.3509 22.582 87.0912 22.7204 86.8028 22.83C86.5143 22.9396 86.1971 23.0262 85.8451 23.0896C85.4932 23.1473 85.1067 23.1762 84.6913 23.1762C84.1029 23.1877 83.5548 23.1069 83.0472 22.9569ZM86.2259 21.0993C86.4451 21.0589 86.6413 21.007 86.8259 20.932C87.0105 20.857 87.172 20.7647 87.322 20.6551C87.472 20.5455 87.5932 20.4128 87.697 20.257C87.8008 20.1013 87.8816 19.9282 87.9393 19.7378C87.997 19.5475 88.0258 19.334 88.0258 19.1032V17.3149C87.8354 17.3841 87.6566 17.4475 87.4893 17.4995C87.322 17.5514 87.1605 17.6033 86.9989 17.6495C86.8432 17.6956 86.6874 17.736 86.5432 17.7764C86.3932 17.8168 86.2547 17.8514 86.122 17.886C85.8048 17.9725 85.5278 18.0475 85.2798 18.1225C85.0317 18.1975 84.8183 18.2725 84.6336 18.3475C84.449 18.4225 84.2875 18.509 84.1606 18.5956C84.0337 18.6821 83.9241 18.7802 83.8433 18.884C83.7625 18.9879 83.7048 19.1032 83.6645 19.2302C83.6241 19.3571 83.6068 19.5013 83.6068 19.6628V19.6744C83.6068 19.9109 83.6529 20.1244 83.7452 20.309C83.8375 20.4936 83.9644 20.6493 84.1317 20.7763C84.299 20.9032 84.501 21.0012 84.7433 21.0647C84.9856 21.1339 85.2567 21.1628 85.5567 21.1628C85.7817 21.157 86.0067 21.1397 86.2259 21.0993Z" fill="#06061A"/>
<path d="M96.7587 23.0201C96.3318 22.9105 95.9395 22.7375 95.5645 22.5182C95.1953 22.2932 94.8549 22.0163 94.5491 21.6933C94.2434 21.3702 93.9838 20.9894 93.7588 20.5568C93.5396 20.1241 93.3665 19.6453 93.2511 19.1203C93.13 18.5953 93.0723 18.0242 93.0723 17.4069V17.3838C93.0723 16.4608 93.205 15.6358 93.4703 14.9205C93.7357 14.1993 94.0934 13.5993 94.5491 13.109C94.9991 12.6186 95.5299 12.2436 96.1414 11.9898C96.7529 11.736 97.3933 11.6033 98.074 11.6033C98.4663 11.6033 98.8355 11.6437 99.1759 11.7244C99.522 11.8052 99.8335 11.9206 100.122 12.0648C100.41 12.2148 100.664 12.3879 100.895 12.5898C101.12 12.7917 101.31 13.0167 101.455 13.2532V8.04956H104.385V22.8701H101.455V21.5375C101.305 21.774 101.12 21.999 100.895 22.2009C100.67 22.4029 100.41 22.5817 100.122 22.7259C99.8335 22.8759 99.522 22.9855 99.1759 23.0663C98.8297 23.1471 98.4663 23.1874 98.074 23.1874C97.624 23.1874 97.1856 23.1298 96.7587 23.0201ZM99.6201 20.8625C99.8566 20.7933 100.07 20.6895 100.272 20.5568C100.474 20.4241 100.653 20.2568 100.814 20.0549C100.976 19.853 101.108 19.6222 101.218 19.3626C101.328 19.0972 101.408 18.803 101.472 18.4799C101.53 18.1569 101.558 17.7934 101.558 17.4011V17.378C101.558 16.9858 101.53 16.6281 101.472 16.2992C101.414 15.9762 101.328 15.6762 101.218 15.4166C101.108 15.1512 100.976 14.9205 100.814 14.7243C100.653 14.5224 100.474 14.3609 100.272 14.2224C100.07 14.0897 99.8566 13.9859 99.6201 13.9166C99.3836 13.8474 99.1297 13.8128 98.8586 13.8128C98.5874 13.8128 98.3336 13.8474 98.0971 13.9166C97.8605 13.9859 97.6471 14.0897 97.4452 14.2224C97.2433 14.3551 97.0644 14.5224 96.9029 14.7243C96.7414 14.9262 96.6087 15.157 96.4991 15.4166C96.3894 15.682 96.3087 15.9762 96.2452 16.2992C96.1875 16.6223 96.1587 16.9858 96.1587 17.378V17.4011C96.1587 17.7934 96.1875 18.1511 96.2452 18.4799C96.3029 18.803 96.3894 19.103 96.4991 19.3626C96.6087 19.628 96.7414 19.8587 96.9029 20.0549C97.0644 20.2568 97.2433 20.4183 97.4452 20.5568C97.6471 20.6895 97.8605 20.7933 98.0971 20.8625C98.3336 20.9318 98.5874 20.9664 98.8586 20.9664C99.1297 20.9664 99.3836 20.9318 99.6201 20.8625Z" fill="#06061A"/>
<path d="M62.6523 26.9142H66.183L70.354 39.4445H70.377L74.5365 26.9142H78.0671V41.7348H75.9211V35.5965L75.9441 29.066H75.9211L71.6232 41.7348H69.1021L64.7926 29.066H64.7696L64.7926 35.5965V41.7348H62.6523V26.9142Z" fill="#3E3EFF"/>
<path d="M83.288 41.8042C82.7919 41.6542 82.365 41.435 82.0073 41.1523C81.6439 40.8696 81.367 40.5235 81.1593 40.1139C80.9574 39.7043 80.8535 39.2428 80.8535 38.7293V38.7063C80.8535 38.3197 80.9054 37.9736 81.0035 37.6621C81.1074 37.3505 81.2573 37.0736 81.4535 36.8256C81.6554 36.5775 81.9035 36.364 82.2035 36.1794C82.5035 35.9948 82.8554 35.8275 83.2534 35.6833C83.6515 35.5391 84.1015 35.4179 84.5976 35.3083C85.0937 35.2045 85.6418 35.1122 86.236 35.0372C86.6918 34.9737 87.0494 34.9102 87.3206 34.8468C87.5859 34.7833 87.7936 34.7026 87.9379 34.6103C88.0821 34.518 88.1744 34.4026 88.2148 34.2699C88.2552 34.1372 88.2782 33.9699 88.2782 33.768V33.7449C88.2782 33.4738 88.2263 33.2372 88.1225 33.0353C88.0186 32.8334 87.8686 32.6661 87.6725 32.5334C87.4763 32.395 87.2398 32.2969 86.9571 32.2277C86.6744 32.1584 86.3629 32.1296 86.011 32.1296C85.6476 32.1296 85.313 32.17 85.0072 32.245C84.7014 32.32 84.4418 32.4411 84.2168 32.6084C83.9976 32.7757 83.8246 32.9776 83.6976 33.2315C83.5707 33.4795 83.5015 33.7795 83.4899 34.1314H81.3439C81.3439 33.5026 81.4708 32.9545 81.7246 32.4988C81.9785 32.0373 82.3188 31.6623 82.7458 31.3623C83.1727 31.0623 83.6688 30.8431 84.2399 30.6931C84.8053 30.5431 85.4053 30.4739 86.0283 30.4739C86.7091 30.4739 87.3206 30.5373 87.8629 30.6585C88.4051 30.7796 88.8667 30.9816 89.2417 31.2642C89.6166 31.5469 89.9051 31.9161 90.1012 32.3777C90.3032 32.8392 90.4012 33.4103 90.4012 34.0795L90.3781 38.1063C90.3781 38.5043 90.3839 38.8678 90.3897 39.1966C90.3955 39.5255 90.4128 39.837 90.4358 40.1254C90.4589 40.4139 90.4935 40.6908 90.5397 40.9562C90.5858 41.2215 90.6377 41.4811 90.7012 41.7408H88.5667C88.5551 41.6484 88.5378 41.5619 88.5263 41.4811C88.5148 41.4004 88.4975 41.3196 88.4859 41.2331C88.4744 41.1465 88.4628 41.06 88.4571 40.9677C88.4513 40.8754 88.4455 40.7773 88.434 40.6619C88.2609 40.8581 88.059 41.0427 87.8398 41.21C87.6206 41.3773 87.3667 41.5215 87.084 41.6427C86.8014 41.7638 86.4783 41.8561 86.1148 41.9254C85.7514 41.9946 85.3476 42.0292 84.8918 42.0292C84.3149 42.0292 83.7842 41.9542 83.288 41.8042ZM86.1898 40.2754C86.4437 40.2293 86.6802 40.1658 86.8937 40.0735C87.1071 39.987 87.3033 39.8774 87.4763 39.7504C87.6494 39.6235 87.7994 39.4678 87.9205 39.2947C88.0417 39.1216 88.134 38.9255 88.1975 38.7063C88.2667 38.487 88.2955 38.2505 88.2955 37.9909V36.0064C88.0879 36.0756 87.8859 36.139 87.6898 36.2025C87.4994 36.2602 87.3148 36.3179 87.136 36.364C86.9629 36.416 86.7898 36.4563 86.6283 36.5025C86.461 36.5429 86.2995 36.589 86.1379 36.6294C85.7514 36.7217 85.411 36.8082 85.111 36.8948C84.8111 36.9813 84.5514 37.0679 84.3265 37.1602C84.1015 37.2467 83.9111 37.339 83.7611 37.4313C83.6053 37.5236 83.4842 37.6332 83.3861 37.7544C83.2938 37.8755 83.2246 38.0024 83.1784 38.1409C83.138 38.2793 83.115 38.4409 83.115 38.6255V38.637C83.115 38.9082 83.1669 39.1562 83.265 39.3697C83.3688 39.5831 83.513 39.762 83.7092 39.912C83.8996 40.062 84.1361 40.1716 84.4188 40.2408C84.7014 40.3158 85.0187 40.3504 85.3764 40.3504C85.6649 40.3447 85.936 40.3216 86.1898 40.2754Z" fill="#3E3EFF"/>
<path d="M95.7206 41.5732C95.3225 41.4636 95.011 41.2848 94.7803 41.0367C94.5495 40.7887 94.388 40.4598 94.2957 40.0502C94.2034 39.6406 94.1572 39.1387 94.1572 38.5445V32.6082H92.4727V30.7794H94.1572V27.3123H96.3033V30.7794H98.6455V32.6082H96.3033V38.4926C96.3033 38.7522 96.3148 38.9714 96.3437 39.156C96.3725 39.3406 96.4302 39.4849 96.5225 39.5945C96.6148 39.7041 96.7475 39.7849 96.9148 39.831C97.0879 39.8829 97.3129 39.906 97.5955 39.906H98.5647V41.7348H97.2379C96.6206 41.7348 96.1129 41.6771 95.7206 41.5732Z" fill="#3E3EFF"/>
<path d="M104.384 41.8266C103.882 41.6939 103.42 41.5035 103.011 41.2555C102.601 41.0074 102.238 40.7074 101.92 40.3613C101.603 40.0151 101.332 39.6229 101.119 39.1959C100.899 38.7633 100.738 38.3017 100.622 37.7998C100.513 37.2979 100.455 36.773 100.455 36.2191V36.1961C100.455 35.3365 100.594 34.5519 100.87 33.8538C101.147 33.1558 101.528 32.55 102.024 32.0539C102.515 31.552 103.097 31.1655 103.766 30.8943C104.441 30.6232 105.168 30.4847 105.953 30.4847C106.536 30.4847 107.078 30.554 107.58 30.6982C108.082 30.8424 108.532 31.0501 108.941 31.3212C109.345 31.5924 109.709 31.9155 110.02 32.2962C110.332 32.677 110.591 33.0981 110.799 33.5712C111.007 34.0442 111.157 34.5577 111.249 35.1173C111.341 35.6768 111.382 36.2595 111.358 36.8768V36.8883H102.013L101.99 35.1519H109.086V35.1403C109.062 34.8576 109.016 34.5923 108.941 34.3327C108.866 34.0731 108.768 33.8365 108.636 33.6173C108.509 33.3981 108.353 33.2019 108.174 33.0289C107.995 32.8558 107.793 32.7058 107.562 32.5789C107.338 32.452 107.084 32.3539 106.818 32.2904C106.547 32.2212 106.259 32.1924 105.941 32.1924C105.451 32.1924 105.007 32.2731 104.603 32.4347C104.199 32.5962 103.859 32.8443 103.57 33.1731C103.288 33.5077 103.068 33.9231 102.918 34.425C102.768 34.9269 102.693 35.5211 102.705 36.2076V36.2307C102.705 36.6287 102.74 37.0095 102.803 37.3672C102.872 37.7248 102.97 38.0537 103.103 38.3479C103.236 38.6479 103.397 38.9133 103.593 39.1498C103.784 39.3863 104.009 39.594 104.263 39.7613C104.516 39.9286 104.793 40.0555 105.099 40.1478C105.405 40.2344 105.734 40.2805 106.08 40.2805C106.484 40.2805 106.847 40.2459 107.17 40.1709C107.488 40.0959 107.77 39.9863 108.007 39.8478C108.243 39.7036 108.445 39.5305 108.612 39.3229C108.78 39.1152 108.912 38.8844 109.016 38.6248H111.203C111.053 39.1209 110.839 39.5825 110.545 40.0036C110.257 40.4247 109.893 40.7882 109.455 41.0939C109.022 41.3997 108.52 41.6362 107.949 41.8035C107.378 41.9708 106.738 42.0574 106.022 42.0574C105.434 42.0285 104.886 41.9593 104.384 41.8266Z" fill="#3E3EFF"/>
<path d="M113.973 30.7795H116.119V32.7236C116.28 32.4063 116.471 32.1237 116.696 31.864C116.921 31.6102 117.18 31.391 117.474 31.2121C117.769 31.0333 118.098 30.8949 118.461 30.8026C118.824 30.7102 119.222 30.6583 119.649 30.6583H119.851V32.7525H119.274C118.778 32.7525 118.334 32.8102 117.948 32.9313C117.561 33.0525 117.226 33.2371 116.961 33.4967C116.69 33.7563 116.482 34.0909 116.338 34.5063C116.194 34.9216 116.124 35.4235 116.124 36.012V41.7291H113.978V30.7795H113.973Z" fill="#3E3EFF"/>
<path d="M121.953 26.9142H124.099V29.3545H121.953V26.9142ZM121.953 30.7794H124.099V41.7348H121.953V30.7794Z" fill="#3E3EFF"/>
<path d="M129.124 41.8042C128.628 41.6542 128.201 41.435 127.843 41.1523C127.48 40.8696 127.203 40.5235 126.995 40.1139C126.793 39.7043 126.689 39.2428 126.689 38.7293V38.7063C126.689 38.3197 126.741 37.9736 126.839 37.6621C126.943 37.3505 127.093 37.0736 127.289 36.8256C127.491 36.5775 127.739 36.364 128.039 36.1794C128.339 35.9948 128.691 35.8275 129.089 35.6833C129.487 35.5391 129.937 35.4179 130.434 35.3083C130.93 35.2045 131.478 35.1122 132.072 35.0372C132.528 34.9737 132.885 34.9102 133.157 34.8468C133.422 34.7833 133.63 34.7026 133.774 34.6103C133.918 34.518 134.01 34.4026 134.051 34.2699C134.091 34.1372 134.114 33.9699 134.114 33.768V33.7449C134.114 33.4738 134.062 33.2372 133.958 33.0353C133.855 32.8334 133.705 32.6661 133.508 32.5334C133.312 32.395 133.076 32.2969 132.793 32.2277C132.51 32.1584 132.199 32.1296 131.847 32.1296C131.483 32.1296 131.149 32.17 130.843 32.245C130.537 32.32 130.278 32.4411 130.053 32.6084C129.834 32.7757 129.66 32.9776 129.534 33.2315C129.407 33.4795 129.337 33.7795 129.326 34.1314H127.18C127.18 33.5026 127.307 32.9545 127.561 32.4988C127.814 32.0373 128.155 31.6623 128.582 31.3623C129.009 31.0623 129.505 30.8431 130.076 30.6931C130.641 30.5431 131.241 30.4739 131.864 30.4739C132.545 30.4739 133.157 30.5373 133.699 30.6585C134.241 30.7796 134.703 30.9816 135.078 31.2642C135.453 31.5469 135.741 31.9161 135.937 32.3777C136.139 32.8392 136.237 33.4103 136.237 34.0795L136.214 38.1063C136.214 38.5043 136.22 38.8678 136.226 39.1966C136.231 39.5255 136.249 39.837 136.272 40.1254C136.295 40.4139 136.329 40.6908 136.376 40.9562C136.422 41.2215 136.474 41.4811 136.537 41.7408H134.403C134.391 41.6484 134.374 41.5619 134.362 41.4811C134.351 41.4004 134.333 41.3196 134.322 41.2331C134.31 41.1465 134.299 41.06 134.293 40.9677C134.287 40.8754 134.281 40.7773 134.27 40.6619C134.097 40.8581 133.895 41.0427 133.676 41.21C133.456 41.3773 133.203 41.5215 132.92 41.6427C132.637 41.7638 132.314 41.8561 131.951 41.9254C131.587 41.9946 131.184 42.0292 130.728 42.0292C130.151 42.0292 129.62 41.9542 129.124 41.8042ZM132.026 40.2754C132.28 40.2293 132.516 40.1658 132.73 40.0735C132.943 39.987 133.139 39.8774 133.312 39.7504C133.485 39.6235 133.635 39.4678 133.756 39.2947C133.878 39.1216 133.97 38.9255 134.033 38.7063C134.103 38.487 134.131 38.2505 134.131 37.9909V36.0064C133.924 36.0756 133.722 36.139 133.526 36.2025C133.335 36.2602 133.151 36.3179 132.972 36.364C132.799 36.416 132.626 36.4563 132.464 36.5025C132.297 36.5429 132.135 36.589 131.974 36.6294C131.587 36.7217 131.247 36.8082 130.947 36.8948C130.647 36.9813 130.387 37.0679 130.162 37.1602C129.937 37.2467 129.747 37.339 129.597 37.4313C129.441 37.5236 129.32 37.6332 129.222 37.7544C129.13 37.8755 129.061 38.0024 129.014 38.1409C128.974 38.2793 128.951 38.4409 128.951 38.6255V38.637C128.951 38.9082 129.003 39.1562 129.101 39.3697C129.205 39.5831 129.349 39.762 129.545 39.912C129.735 40.062 129.972 40.1716 130.255 40.2408C130.537 40.3158 130.855 40.3504 131.212 40.3504C131.501 40.3447 131.772 40.3216 132.026 40.2754Z" fill="#3E3EFF"/>
<path d="M139.494 26.9142H141.64V41.7348H139.494V26.9142Z" fill="#3E3EFF"/>
<path d="M147.123 41.7862C146.54 41.6247 146.038 41.3882 145.617 41.0824C145.196 40.7767 144.861 40.3959 144.608 39.9401C144.354 39.4844 144.192 38.971 144.123 38.3883H146.269C146.327 38.746 146.431 39.0517 146.592 39.3056C146.754 39.5594 146.95 39.7671 147.198 39.9286C147.446 40.0901 147.729 40.2055 148.058 40.2805C148.386 40.3555 148.744 40.3901 149.148 40.3901C149.373 40.3901 149.586 40.3786 149.794 40.3555C150.002 40.3324 150.192 40.2921 150.359 40.2344C150.532 40.1767 150.688 40.1132 150.827 40.0325C150.965 39.9575 151.086 39.8594 151.179 39.7498C151.271 39.6402 151.346 39.5132 151.398 39.3748C151.45 39.2363 151.479 39.0863 151.479 38.919V38.896C151.479 38.6248 151.421 38.3941 151.311 38.2152C151.202 38.0306 151.046 37.8806 150.844 37.7537C150.642 37.6268 150.405 37.5229 150.129 37.4364C149.852 37.3499 149.546 37.2749 149.217 37.2056L147.608 36.8595C147.158 36.7614 146.742 36.6287 146.35 36.4557C145.963 36.2826 145.623 36.0691 145.34 35.8153C145.058 35.5615 144.833 35.2557 144.671 34.898C144.51 34.5404 144.429 34.1308 144.429 33.6692V33.6462C144.429 33.1789 144.538 32.7462 144.763 32.3597C144.988 31.9731 145.294 31.6385 145.686 31.3616C146.079 31.0847 146.54 30.8713 147.077 30.7155C147.608 30.5597 148.184 30.4847 148.802 30.4847C149.413 30.4847 149.973 30.5482 150.486 30.6693C151 30.7905 151.455 30.9809 151.842 31.2405C152.229 31.5001 152.546 31.8347 152.794 32.2443C153.042 32.6539 153.198 33.1443 153.278 33.7096H151.132C151.098 33.5019 151.04 33.3173 150.965 33.1558C150.89 33 150.792 32.8616 150.682 32.7404C150.573 32.6193 150.446 32.5212 150.302 32.4404C150.163 32.3597 150.007 32.2962 149.84 32.2443C149.673 32.1981 149.494 32.1578 149.298 32.1404C149.107 32.1174 148.906 32.1116 148.692 32.1116C148.392 32.1116 148.109 32.1462 147.844 32.2097C147.579 32.2789 147.354 32.3712 147.163 32.4924C146.973 32.6135 146.823 32.7635 146.719 32.9366C146.609 33.1096 146.558 33.3116 146.558 33.5365V33.5596C146.558 33.7673 146.598 33.9577 146.673 34.1192C146.748 34.2807 146.858 34.4192 147.002 34.5404C147.146 34.6615 147.325 34.7596 147.533 34.8461C147.74 34.9326 147.983 35.0019 148.248 35.0538L149.846 35.3999C150.371 35.5095 150.861 35.648 151.323 35.8038C151.784 35.9595 152.182 36.1614 152.523 36.4095C152.863 36.6576 153.128 36.9576 153.319 37.3152C153.509 37.6729 153.607 38.1114 153.607 38.6306V38.6537C153.607 39.0113 153.555 39.3459 153.452 39.6517C153.348 39.9575 153.198 40.2401 153.007 40.494C152.817 40.7478 152.58 40.967 152.309 41.1632C152.038 41.3536 151.732 41.5151 151.392 41.6478C151.057 41.7747 150.694 41.8728 150.302 41.942C149.909 42.0112 149.5 42.0401 149.073 42.0401C148.358 42.0285 147.706 41.9478 147.123 41.7862Z" fill="#3E3EFF"/>
<path d="M163.738 41.6654C163 41.4231 162.365 41.0885 161.846 40.6674C161.321 40.2462 160.911 39.7443 160.606 39.1617C160.3 38.579 160.098 37.9559 159.988 37.2752H162.325C162.423 37.7367 162.573 38.1521 162.775 38.5155C162.977 38.879 163.248 39.1847 163.577 39.4328C163.911 39.6809 164.309 39.8713 164.771 39.9982C165.232 40.1251 165.769 40.1943 166.38 40.1943C166.715 40.1943 167.038 40.177 167.344 40.1366C167.65 40.0962 167.926 40.0386 168.186 39.9636C168.44 39.8886 168.676 39.7847 168.884 39.6636C169.092 39.5424 169.271 39.3982 169.415 39.2309C169.559 39.0636 169.669 38.879 169.749 38.6655C169.83 38.4521 169.871 38.2156 169.871 37.9559V37.9329C169.871 37.5117 169.79 37.1598 169.628 36.8829C169.467 36.6002 169.242 36.3695 168.959 36.1849C168.676 36.0003 168.336 35.8445 167.95 35.7291C167.563 35.608 167.136 35.4983 166.68 35.3945L164.598 34.9214C163.952 34.7715 163.369 34.5868 162.85 34.3561C162.325 34.1253 161.881 33.8369 161.517 33.4965C161.148 33.1504 160.865 32.7465 160.663 32.2792C160.461 31.8119 160.363 31.2639 160.363 30.6524V30.6235C160.363 30.2255 160.427 29.8447 160.554 29.4928C160.681 29.1409 160.859 28.8121 161.09 28.5178C161.321 28.2179 161.604 27.9583 161.932 27.7217C162.261 27.491 162.63 27.2948 163.04 27.1275C163.45 26.9602 163.894 26.8391 164.373 26.7525C164.852 26.666 165.359 26.6256 165.89 26.6256C166.703 26.6256 167.436 26.7179 168.094 26.9083C168.751 27.0987 169.317 27.3756 169.801 27.739C170.286 28.1025 170.678 28.5467 170.972 29.0717C171.272 29.5967 171.474 30.1909 171.578 30.8601H169.253C169.144 30.4159 168.982 30.0466 168.78 29.7409C168.578 29.4351 168.33 29.187 168.042 28.9967C167.753 28.8063 167.419 28.6678 167.038 28.5813C166.657 28.4948 166.242 28.4544 165.775 28.4544C165.48 28.4544 165.198 28.4717 164.927 28.5121C164.655 28.5525 164.407 28.6102 164.177 28.6851C163.946 28.7601 163.738 28.8582 163.554 28.9736C163.369 29.089 163.207 29.2274 163.075 29.3832C162.942 29.539 162.838 29.7178 162.763 29.9082C162.688 30.0986 162.654 30.3178 162.654 30.5543V30.5774C162.654 30.8947 162.705 31.1716 162.809 31.4197C162.913 31.6677 163.075 31.8812 163.282 32.0658C163.49 32.2504 163.75 32.4119 164.055 32.5446C164.361 32.6773 164.713 32.7927 165.111 32.8908L167.205 33.3869C167.961 33.56 168.648 33.7561 169.259 33.9753C169.871 34.1946 170.39 34.4599 170.822 34.7772C171.249 35.0945 171.578 35.4868 171.809 35.9541C172.04 36.4214 172.155 36.9925 172.155 37.6733V37.7021C172.155 38.4175 172.005 39.0463 171.711 39.5828C171.417 40.1251 171.007 40.5751 170.488 40.9328C169.963 41.2962 169.346 41.5673 168.624 41.752C167.903 41.9366 167.125 42.0289 166.288 42.0289C165.33 42.0289 164.477 41.9077 163.738 41.6654Z" fill="#3E3EFF"/>
<path d="M177.875 41.8331C177.39 41.7061 176.952 41.5215 176.548 41.2792C176.15 41.0427 175.786 40.7485 175.469 40.4081C175.152 40.062 174.881 39.6812 174.667 39.2543C174.448 38.8274 174.281 38.3601 174.165 37.8582C174.05 37.3563 173.992 36.8198 173.992 36.2602V36.2371C173.992 35.3948 174.119 34.6218 174.379 33.9122C174.633 33.2026 175.002 32.5969 175.469 32.0892C175.942 31.5815 176.513 31.1835 177.182 30.9008C177.852 30.6181 178.602 30.4739 179.427 30.4739C180.136 30.4739 180.782 30.5662 181.365 30.7566C181.948 30.9469 182.461 31.2123 182.9 31.5527C183.338 31.8931 183.701 32.3027 183.99 32.7757C184.278 33.2545 184.486 33.7795 184.607 34.3507H182.421C182.328 34.016 182.196 33.7161 182.017 33.4507C181.838 33.1853 181.619 32.9661 181.365 32.7872C181.111 32.6084 180.823 32.4757 180.5 32.3834C180.177 32.2911 179.825 32.245 179.45 32.245C178.988 32.245 178.561 32.3315 178.175 32.5103C177.788 32.6892 177.448 32.9488 177.165 33.2892C176.882 33.6295 176.663 34.0449 176.502 34.541C176.346 35.0372 176.265 35.5968 176.265 36.2256V36.2487C176.265 36.6698 176.3 37.0621 176.375 37.4198C176.45 37.7832 176.554 38.112 176.686 38.4063C176.819 38.7063 176.981 38.9659 177.171 39.1966C177.361 39.4216 177.575 39.6178 177.806 39.7677C178.042 39.9235 178.296 40.0389 178.573 40.1197C178.85 40.2004 179.144 40.2408 179.45 40.2408C179.83 40.2408 180.177 40.1947 180.5 40.0966C180.823 40.0043 181.111 39.8658 181.365 39.687C181.619 39.5081 181.838 39.2889 182.017 39.0236C182.196 38.7582 182.328 38.464 182.421 38.1236H184.607C184.486 38.7005 184.284 39.2255 183.99 39.6985C183.701 40.1773 183.332 40.587 182.9 40.9273C182.461 41.2735 181.948 41.5388 181.365 41.7234C180.782 41.9138 180.136 42.0061 179.427 42.0061C178.879 42.0292 178.359 41.9657 177.875 41.8331Z" fill="#3E3EFF"/>
<path d="M188.706 41.8042C188.21 41.6542 187.783 41.435 187.425 41.1523C187.062 40.8696 186.785 40.5235 186.577 40.1139C186.375 39.7043 186.271 39.2428 186.271 38.7293V38.7063C186.271 38.3197 186.323 37.9736 186.421 37.6621C186.525 37.3505 186.675 37.0736 186.871 36.8256C187.073 36.5775 187.321 36.364 187.621 36.1794C187.921 35.9948 188.273 35.8275 188.671 35.6833C189.069 35.5391 189.519 35.4179 190.016 35.3083C190.512 35.2045 191.06 35.1122 191.654 35.0372C192.11 34.9737 192.467 34.9102 192.739 34.8468C193.004 34.7833 193.212 34.7026 193.356 34.6103C193.5 34.518 193.592 34.4026 193.633 34.2699C193.673 34.1372 193.696 33.9699 193.696 33.768V33.7449C193.696 33.4738 193.644 33.2372 193.54 33.0353C193.437 32.8334 193.287 32.6661 193.09 32.5334C192.894 32.395 192.658 32.2969 192.375 32.2277C192.092 32.1584 191.781 32.1296 191.429 32.1296C191.066 32.1296 190.731 32.17 190.425 32.245C190.119 32.32 189.86 32.4411 189.635 32.6084C189.416 32.7757 189.243 32.9776 189.116 33.2315C188.989 33.4795 188.919 33.7795 188.908 34.1314H186.762C186.762 33.5026 186.889 32.9545 187.143 32.4988C187.396 32.0373 187.737 31.6623 188.164 31.3623C188.591 31.0623 189.087 30.8431 189.658 30.6931C190.223 30.5431 190.823 30.4739 191.446 30.4739C192.127 30.4739 192.739 30.5373 193.281 30.6585C193.823 30.7796 194.285 30.9816 194.66 31.2642C195.035 31.5469 195.323 31.9161 195.519 32.3777C195.721 32.8392 195.819 33.4103 195.819 34.0795L195.796 38.1063C195.796 38.5043 195.802 38.8678 195.808 39.1966C195.813 39.5255 195.831 39.837 195.854 40.1254C195.877 40.4139 195.912 40.6908 195.958 40.9562C196.004 41.2215 196.056 41.4811 196.119 41.7408H193.985C193.973 41.6484 193.956 41.5619 193.944 41.4811C193.933 41.4004 193.915 41.3196 193.904 41.2331C193.892 41.1465 193.881 41.06 193.875 40.9677C193.869 40.8754 193.864 40.7773 193.852 40.6619C193.679 40.8581 193.477 41.0427 193.258 41.21C193.039 41.3773 192.785 41.5215 192.502 41.6427C192.219 41.7638 191.896 41.8561 191.533 41.9254C191.169 41.9946 190.766 42.0292 190.31 42.0292C189.733 42.0292 189.196 41.9542 188.706 41.8042ZM191.608 40.2754C191.862 40.2293 192.098 40.1658 192.312 40.0735C192.525 39.987 192.721 39.8774 192.894 39.7504C193.067 39.6235 193.217 39.4678 193.339 39.2947C193.46 39.1216 193.552 38.9255 193.615 38.7063C193.685 38.487 193.714 38.2505 193.714 37.9909V36.0064C193.506 36.0756 193.304 36.139 193.108 36.2025C192.917 36.2602 192.733 36.3179 192.554 36.364C192.381 36.416 192.208 36.4563 192.046 36.5025C191.879 36.5429 191.717 36.589 191.556 36.6294C191.169 36.7217 190.829 36.8082 190.529 36.8948C190.229 36.9813 189.969 37.0679 189.744 37.1602C189.519 37.2467 189.329 37.339 189.179 37.4313C189.023 37.5236 188.902 37.6332 188.804 37.7544C188.712 37.8755 188.643 38.0024 188.596 38.1409C188.556 38.2793 188.533 38.4409 188.533 38.6255V38.637C188.533 38.9082 188.585 39.1562 188.683 39.3697C188.787 39.5831 188.931 39.762 189.127 39.912C189.318 40.062 189.554 40.1716 189.837 40.2408C190.119 40.3158 190.437 40.3504 190.794 40.3504C191.083 40.3447 191.348 40.3216 191.608 40.2754Z" fill="#3E3EFF"/>
<path d="M199.088 30.7793H201.234V32.0946C201.419 31.8466 201.615 31.6273 201.834 31.4312C202.053 31.235 202.295 31.0677 202.567 30.9293C202.838 30.7908 203.138 30.6812 203.467 30.6062C203.795 30.5312 204.165 30.4908 204.568 30.4908C205.232 30.4908 205.815 30.6005 206.311 30.8139C206.807 31.0331 207.222 31.3447 207.557 31.7485C207.891 32.1523 208.139 32.6485 208.307 33.2311C208.474 33.8138 208.561 34.4657 208.561 35.1984V41.7346H206.415V35.6483C206.415 35.1061 206.363 34.633 206.259 34.2119C206.155 33.7965 205.993 33.4446 205.774 33.1619C205.555 32.8792 205.284 32.6658 204.961 32.5215C204.638 32.3773 204.257 32.3081 203.818 32.3081C203.386 32.3081 203.005 32.3773 202.676 32.5215C202.353 32.6658 202.082 32.8792 201.869 33.1619C201.655 33.4446 201.494 33.7965 201.39 34.2119C201.286 34.6272 201.234 35.1061 201.234 35.6483V41.7346H199.088V30.7793Z" fill="#3E3EFF"/>
<path d="M13.3322 0H0V50H13.3322V0Z" fill="url(#paint0_linear_2034_48993)"/>
<path d="M21.155 0.0118408L0 36.6624V45.5293L7.70163 49.9772L32.7045 6.68082L21.155 0.0118408Z" fill="url(#paint1_linear_2034_48993)"/>
<path d="M6.66321 48.2118L0 36.6623L43.2964 11.6652L49.9654 23.2089L6.66321 48.2118Z" fill="#D8D8FF"/>
<path d="M50 36.6625H0V49.9947H50V36.6625Z" fill="url(#paint2_linear_2034_48993)"/>
<defs>
<linearGradient id="paint0_linear_2034_48993" x1="5.99738" y1="47.3199" x2="6.91534" y2="16.5684" gradientUnits="userSpaceOnUse">
<stop stop-color="#06061A"/>
<stop offset="1" stop-color="#181863"/>
</linearGradient>
<linearGradient id="paint1_linear_2034_48993" x1="0.922019" y1="46.2824" x2="27.81" y2="3.90976" gradientUnits="userSpaceOnUse">
<stop stop-color="#9999FF"/>
<stop offset="1" stop-color="#B3B3FF"/>
</linearGradient>
<linearGradient id="paint2_linear_2034_48993" x1="24.9964" y1="49.9957" x2="24.9964" y2="36.6629" gradientUnits="userSpaceOnUse">
<stop stop-color="#3939E5"/>
<stop offset="1" stop-color="#3E3EFF"/>
</linearGradient>
</defs>
</svg>
