<svg width="157" height="48" viewBox="0 0 157 48" fill="none" xmlns="http://www.w3.org/2000/svg">
<path d="M59.9766 7.71022H62.8976V21.9495H59.9766V7.71022Z" fill="#06061A"/>
<path d="M69.1891 22.0715C68.7069 21.9495 68.2635 21.7722 67.8589 21.5394C67.4598 21.3066 67.0995 21.0239 66.7836 20.6969C66.4677 20.3643 66.2016 19.993 65.9854 19.5828C65.7693 19.1671 65.603 18.7181 65.4921 18.2304C65.3757 17.7426 65.3203 17.2216 65.3203 16.6673V16.6451C65.3203 15.8248 65.4478 15.071 65.6972 14.3893C65.9522 13.7075 66.3125 13.12 66.7836 12.6267C67.2547 12.1334 67.8256 11.7509 68.4963 11.4793C69.167 11.2077 69.9152 11.0692 70.7411 11.0692C71.4838 11.0692 72.1489 11.1689 72.7531 11.3629C73.3517 11.5569 73.8727 11.8285 74.3106 12.1777C74.7485 12.5269 75.1088 12.9371 75.3914 13.4193C75.6741 13.9015 75.8737 14.4336 75.9901 15.01H73.1799C73.1078 14.7052 72.997 14.4447 72.8584 14.2174C72.7143 13.9902 72.548 13.8073 72.3429 13.6576C72.1434 13.508 71.9106 13.3971 71.6446 13.3251C71.3841 13.253 71.1014 13.2142 70.7965 13.2142C70.4141 13.2142 70.0649 13.2918 69.7545 13.447C69.4441 13.6022 69.178 13.8239 68.9508 14.1177C68.7235 14.4114 68.5517 14.7717 68.4298 15.1985C68.3078 15.6253 68.2469 16.1075 68.2469 16.6451V16.6673C68.2469 17.0331 68.2746 17.3712 68.33 17.6816C68.3854 17.992 68.4686 18.2803 68.5739 18.5352C68.6792 18.7902 68.8067 19.0174 68.9508 19.2114C69.1005 19.4054 69.2667 19.5717 69.4552 19.7047C69.6436 19.8378 69.8487 19.9431 70.0704 20.0096C70.2921 20.0761 70.5305 20.1094 70.7854 20.1094C71.0903 20.1094 71.373 20.0706 71.6335 19.9985C71.894 19.9264 72.1268 19.81 72.3319 19.6604C72.5314 19.5107 72.7032 19.3223 72.8473 19.095C72.9914 18.8678 73.0968 18.6073 73.1688 18.3135H75.979C75.8626 18.8844 75.6686 19.4165 75.3804 19.8987C75.0977 20.3809 74.7374 20.8022 74.2995 21.1514C73.8617 21.5006 73.3462 21.7722 72.742 21.9662C72.1434 22.1602 71.4727 22.2544 70.73 22.2544C70.1924 22.2544 69.6714 22.1934 69.1891 22.0715Z" fill="#06061A"/>
<path d="M79.7606 22.0327C79.2784 21.883 78.8572 21.6724 78.5024 21.3897C78.1477 21.1126 77.8761 20.7745 77.6766 20.3754C77.4826 19.9763 77.3828 19.5329 77.3828 19.034V19.023C77.3828 18.6405 77.4327 18.2969 77.5325 17.9865C77.6322 17.6816 77.7819 17.41 77.9814 17.1661C78.181 16.9278 78.4248 16.7172 78.7241 16.5343C79.0179 16.3514 79.3616 16.1906 79.7551 16.0521C80.1431 15.9135 80.581 15.7971 81.0576 15.6918C81.5343 15.592 82.0553 15.5033 82.6207 15.4313C83.0475 15.3758 83.3856 15.3204 83.635 15.265C83.89 15.2096 84.084 15.1375 84.2225 15.0544C84.3611 14.9712 84.4498 14.8715 84.4941 14.7551C84.5385 14.6387 84.5606 14.4945 84.5606 14.3227V14.3061C84.5606 14.0678 84.5163 13.8682 84.4276 13.7019C84.3389 13.5357 84.2114 13.3915 84.0452 13.2807C83.8789 13.1698 83.6738 13.0867 83.4466 13.0313C83.2138 12.9758 82.9533 12.9481 82.665 12.9481C82.3491 12.9481 82.0609 12.9814 81.8004 13.0479C81.5399 13.1144 81.3181 13.2197 81.1352 13.3583C80.9523 13.5024 80.8027 13.6798 80.7029 13.8959C80.5976 14.1121 80.5422 14.3671 80.5255 14.6608H77.8539C77.865 14.0622 77.9981 13.5357 78.2419 13.0867C78.4858 12.6377 78.8239 12.2608 79.2452 11.956C79.672 11.6511 80.1763 11.4239 80.7639 11.2687C81.3514 11.1135 81.9944 11.0359 82.6872 11.0359C83.4022 11.0359 84.0396 11.0969 84.6105 11.2133C85.1814 11.3297 85.6581 11.5292 86.0572 11.8119C86.4507 12.0945 86.75 12.4715 86.9606 12.9426C87.1713 13.4137 87.271 14.0012 87.271 14.7107L87.2433 18.6183C87.2433 18.9731 87.2489 19.3056 87.2599 19.6105C87.271 19.9153 87.2877 20.198 87.3098 20.4696C87.332 20.7412 87.3653 20.9962 87.4096 21.2345C87.4539 21.4784 87.5038 21.7112 87.5648 21.944H84.8156C84.8045 21.8608 84.7879 21.7832 84.7824 21.7112C84.7713 21.6391 84.7602 21.5615 84.7546 21.4895C84.7436 21.4174 84.738 21.3343 84.7269 21.2511C84.7214 21.168 84.7158 21.0738 84.7158 20.974C84.5385 21.1735 84.3445 21.3564 84.1172 21.5116C83.8955 21.6724 83.6461 21.8054 83.369 21.9107C83.0918 22.016 82.787 22.0992 82.4489 22.1601C82.1108 22.2156 81.7394 22.2433 81.3403 22.2433C80.775 22.2544 80.2484 22.1768 79.7606 22.0327ZM82.8147 20.2479C83.0253 20.2091 83.2138 20.1592 83.3911 20.0872C83.5685 20.0151 83.7237 19.9264 83.8678 19.8211C84.0119 19.7158 84.1283 19.5883 84.2281 19.4387C84.3278 19.289 84.4054 19.1227 84.4609 18.9398C84.5163 18.7569 84.544 18.5518 84.544 18.3301V16.6119C84.3611 16.6784 84.1893 16.7394 84.0285 16.7892C83.8678 16.8391 83.7126 16.889 83.5574 16.9333C83.4078 16.9777 83.2581 17.0165 83.1195 17.0553C82.9754 17.0941 82.8424 17.1273 82.7149 17.1606C82.4101 17.2437 82.144 17.3158 81.9057 17.3879C81.6673 17.4599 81.4623 17.532 81.2849 17.604C81.1075 17.6761 80.9523 17.7592 80.8304 17.8424C80.7084 17.9255 80.6031 18.0197 80.5255 18.1195C80.4479 18.2193 80.3925 18.3301 80.3537 18.4521C80.3149 18.574 80.2983 18.7126 80.2983 18.8678V18.8788C80.2983 19.1061 80.3426 19.3112 80.4313 19.4885C80.52 19.6659 80.6419 19.8156 80.8027 19.9375C80.9634 20.0594 81.1574 20.1537 81.3902 20.2146C81.623 20.2812 81.8835 20.3089 82.1717 20.3089C82.3879 20.3033 82.6041 20.2867 82.8147 20.2479Z" fill="#06061A"/>
<path d="M92.9402 22.0936C92.5301 21.9883 92.1532 21.822 91.7929 21.6114C91.4382 21.3952 91.1111 21.1292 90.8174 20.8188C90.5236 20.5084 90.2742 20.1426 90.058 19.7268C89.8474 19.3111 89.6811 18.8511 89.5703 18.3467C89.4539 17.8423 89.3984 17.2936 89.3984 16.7005V16.6783C89.3984 15.7915 89.5259 14.9989 89.7809 14.3116C90.0359 13.6188 90.3795 13.0423 90.8174 12.5712C91.2497 12.1001 91.7596 11.7398 92.3472 11.4959C92.9347 11.252 93.5499 11.1245 94.204 11.1245C94.5809 11.1245 94.9356 11.1633 95.2626 11.2409C95.5952 11.3185 95.8945 11.4294 96.1716 11.568C96.4488 11.7121 96.6927 11.8784 96.9144 12.0723C97.1305 12.2663 97.3134 12.4825 97.452 12.7098V7.71022H100.268V21.9495H97.452V20.6691C97.3079 20.8964 97.1305 21.1125 96.9144 21.3065C96.6982 21.5005 96.4488 21.6723 96.1716 21.8109C95.8945 21.955 95.5952 22.0603 95.2626 22.1379C94.9301 22.2155 94.5809 22.2543 94.204 22.2543C93.7716 22.2543 93.3504 22.1989 92.9402 22.0936ZM95.6894 20.0206C95.9167 19.9541 96.1218 19.8543 96.3158 19.7268C96.5098 19.5994 96.6816 19.4386 96.8368 19.2446C96.992 19.0506 97.1195 18.8289 97.2248 18.5795C97.3301 18.3245 97.4077 18.0419 97.4686 17.7315C97.5241 17.4211 97.5518 17.0719 97.5518 16.695V16.6728C97.5518 16.2959 97.5241 15.9523 97.4686 15.6363C97.4132 15.3259 97.3301 15.0377 97.2248 14.7883C97.1195 14.5333 96.992 14.3116 96.8368 14.1232C96.6816 13.9292 96.5098 13.774 96.3158 13.6409C96.1218 13.5135 95.9167 13.4137 95.6894 13.3472C95.4622 13.2807 95.2183 13.2474 94.9578 13.2474C94.6973 13.2474 94.4534 13.2807 94.2262 13.3472C93.9989 13.4137 93.7938 13.5135 93.5998 13.6409C93.4058 13.7684 93.234 13.9292 93.0788 14.1232C92.9236 14.3171 92.7961 14.5389 92.6908 14.7883C92.5855 15.0432 92.5079 15.3259 92.4469 15.6363C92.3915 15.9467 92.3638 16.2959 92.3638 16.6728V16.695C92.3638 17.0719 92.3915 17.4155 92.4469 17.7315C92.5024 18.0419 92.5855 18.3301 92.6908 18.5795C92.7961 18.8345 92.9236 19.0562 93.0788 19.2446C93.234 19.4386 93.4058 19.5938 93.5998 19.7268C93.7938 19.8543 93.9989 19.9541 94.2262 20.0206C94.4534 20.0871 94.6973 20.1204 94.9578 20.1204C95.2183 20.1204 95.4622 20.0871 95.6894 20.0206Z" fill="#06061A"/>
<path d="M60.1719 25.8348H64.9109C65.6869 25.8348 66.413 25.8958 67.1003 26.0232C67.7876 26.1452 68.4195 26.3392 69.0014 26.5941C69.5779 26.8491 70.0989 27.1706 70.5534 27.5641C71.0079 27.9521 71.3959 28.4122 71.7118 28.9443C72.0278 29.4708 72.2716 30.0694 72.4379 30.7401C72.6042 31.4108 72.6929 32.1535 72.6929 32.9794V33.0015C72.6929 33.8108 72.6098 34.548 72.4379 35.2131C72.2716 35.8782 72.0278 36.4768 71.7118 37.0034C71.3959 37.5299 71.0079 37.9844 70.5534 38.3724C70.0989 38.7604 69.5834 39.0819 69.0014 39.3313C68.425 39.5863 67.7931 39.7747 67.1058 39.8967C66.4241 40.0186 65.6924 40.0851 64.9109 40.0851H60.1719V25.8348ZM64.8776 38.2228C65.4763 38.2228 66.0305 38.1784 66.5349 38.0898C67.0393 38.0011 67.4994 37.8681 67.9095 37.6907C68.3197 37.5133 68.68 37.2805 68.9959 36.9978C69.3063 36.7152 69.5723 36.3826 69.783 35.9946C69.9936 35.6066 70.1543 35.1632 70.2652 34.6644C70.3705 34.1655 70.4259 33.6057 70.4259 32.9904V32.9683C70.4259 32.3475 70.3705 31.7877 70.2652 31.2833C70.1599 30.7789 69.9991 30.3299 69.783 29.942C69.5723 29.554 69.3063 29.2159 68.9959 28.9276C68.6855 28.6394 68.3197 28.4066 67.9095 28.2182C67.4994 28.0353 67.0393 27.8967 66.5349 27.808C66.0305 27.7193 65.4763 27.675 64.8776 27.675H62.3114V38.2172H64.8776V38.2228Z" fill="#3E3EFF"/>
<path d="M75.3359 25.8348H77.3978V28.1794H75.3359V25.8348ZM75.3359 29.5484H77.3978V40.0741H75.3359V29.5484Z" fill="#3E3EFF"/>
<path d="M82.6635 40.124C82.1037 39.9688 81.6214 39.7416 81.2168 39.4478C80.8122 39.154 80.4907 38.7882 80.2468 38.3503C80.003 37.9125 79.8478 37.4192 79.7812 36.8593H81.8431C81.8986 37.203 81.9983 37.4968 82.1535 37.7406C82.3032 37.9845 82.4972 38.1841 82.7355 38.3392C82.9739 38.4944 83.2455 38.6053 83.5614 38.6774C83.8773 38.7494 84.221 38.7827 84.609 38.7827C84.8251 38.7827 85.0302 38.7716 85.2298 38.7494C85.4293 38.7272 85.6122 38.6884 85.7729 38.633C85.9392 38.5776 86.0889 38.5166 86.2219 38.439C86.3549 38.367 86.4713 38.2727 86.56 38.1674C86.6487 38.0621 86.7207 37.9402 86.7706 37.8071C86.8205 37.6741 86.8482 37.53 86.8482 37.3693V37.3471C86.8482 37.0866 86.7928 36.8649 86.6875 36.6931C86.5822 36.5157 86.4325 36.3716 86.2385 36.2496C86.0445 36.1277 85.8173 36.0279 85.5512 35.9448C85.2852 35.8617 84.9914 35.7896 84.6755 35.7231L83.1291 35.3905C82.6967 35.2963 82.2977 35.1688 81.9207 35.0025C81.5494 34.8362 81.2224 34.6312 80.9508 34.3873C80.6792 34.1434 80.463 33.8496 80.3078 33.506C80.1526 33.1623 80.075 32.7688 80.075 32.3254V32.3032C80.075 31.8543 80.1803 31.4386 80.3965 31.0672C80.6127 30.6958 80.9064 30.3744 81.2833 30.1083C81.6602 29.8422 82.1037 29.6372 82.6191 29.4875C83.1291 29.3379 83.6833 29.2658 84.2764 29.2658C84.8639 29.2658 85.4016 29.3268 85.8949 29.4432C86.3882 29.5596 86.8261 29.7425 87.1974 29.9919C87.5688 30.2413 87.8736 30.5628 88.112 30.9563C88.3503 31.3499 88.5 31.821 88.5776 32.3642H86.5157C86.4824 32.1647 86.427 31.9873 86.3549 31.8321C86.2829 31.6824 86.1886 31.5494 86.0833 31.433C85.978 31.3166 85.8561 31.2224 85.7175 31.1448C85.5845 31.0672 85.4348 31.0062 85.2741 30.9563C85.1134 30.912 84.9415 30.8732 84.7531 30.8566C84.5702 30.8344 84.3762 30.8289 84.1711 30.8289C83.8829 30.8289 83.6113 30.8621 83.3563 30.9231C83.1013 30.9896 82.8852 31.0783 82.7023 31.1947C82.5194 31.3111 82.3752 31.4552 82.2755 31.6215C82.1702 31.7877 82.1203 31.9817 82.1203 32.1979V32.2201C82.1203 32.4196 82.1591 32.6025 82.2311 32.7577C82.3032 32.9129 82.4085 33.0459 82.5471 33.1623C82.6856 33.2787 82.8575 33.373 83.057 33.4561C83.2565 33.5392 83.4893 33.6058 83.7443 33.6556L85.2796 33.9882C85.784 34.0935 86.2552 34.2265 86.6986 34.3762C87.142 34.5259 87.5244 34.7198 87.8515 34.9582C88.1785 35.1965 88.4334 35.4847 88.6164 35.8284C88.7993 36.172 88.8935 36.5933 88.8935 37.0921V37.1143C88.8935 37.458 88.8436 37.7794 88.7438 38.0732C88.6441 38.367 88.5 38.6386 88.317 38.8824C88.1341 39.1263 87.9069 39.3369 87.6464 39.5254C87.3859 39.7083 87.0921 39.8635 86.7651 39.991C86.4436 40.1129 86.0944 40.2071 85.7175 40.2737C85.3406 40.3402 84.9471 40.3679 84.5369 40.3679C83.8496 40.3568 83.2233 40.2792 82.6635 40.124Z" fill="#3E3EFF"/>
<path d="M94.3084 40.1685C93.8428 40.0466 93.4215 39.8692 93.0336 39.6364C92.6511 39.4092 92.3019 39.1265 91.9971 38.7995C91.6922 38.4669 91.4317 38.1011 91.2266 37.6909C91.016 37.2808 90.8553 36.8318 90.7444 36.3496C90.6336 35.8674 90.5781 35.3519 90.5781 34.8143V34.7921C90.5781 33.9829 90.7001 33.2401 90.9495 32.5584C91.1934 31.8766 91.5481 31.2946 91.9971 30.8069C92.4516 30.3191 93.0003 29.9367 93.6433 29.6651C94.2862 29.3935 95.0068 29.2549 95.7994 29.2549C96.4811 29.2549 97.1019 29.3436 97.6617 29.5265C98.2215 29.7094 98.7148 29.9644 99.1361 30.2914C99.5573 30.6184 99.9065 31.012 100.184 31.4665C100.461 31.9265 100.66 32.4309 100.777 32.9796H98.6761C98.5874 32.6581 98.4599 32.3699 98.2881 32.115C98.1162 31.86 97.9056 31.6494 97.6617 31.4775C97.4179 31.3057 97.1407 31.1782 96.8303 31.0896C96.5199 31.0009 96.1818 30.9565 95.8215 30.9565C95.3781 30.9565 94.968 31.0397 94.5966 31.2115C94.2252 31.3833 93.8982 31.6327 93.6266 31.9598C93.355 32.2868 93.1444 32.6859 92.9892 33.1625C92.8396 33.6392 92.762 34.1769 92.762 34.781V34.8032C92.762 35.2078 92.7952 35.5847 92.8673 35.9284C92.9393 36.2775 93.0391 36.5935 93.1666 36.8762C93.2941 37.1644 93.4493 37.4138 93.6322 37.6355C93.8151 37.8517 94.0202 38.0401 94.2419 38.1842C94.4691 38.3339 94.713 38.4448 94.9791 38.5224C95.2451 38.5999 95.5278 38.6387 95.8215 38.6387C96.1874 38.6387 96.5199 38.5944 96.8303 38.5002C97.1407 38.4115 97.4179 38.2785 97.6617 38.1066C97.9056 37.9348 98.1162 37.7242 98.2881 37.4692C98.4599 37.2143 98.5874 36.9316 98.6761 36.6046H100.777C100.66 37.1588 100.466 37.6632 100.184 38.1177C99.9065 38.5778 99.5518 38.9713 99.1361 39.2983C98.7148 39.6309 98.2215 39.8859 97.6617 40.0632C97.1019 40.2461 96.4811 40.3348 95.7994 40.3348C95.2728 40.357 94.774 40.2905 94.3084 40.1685Z" fill="#3E3EFF"/>
<path d="M105.526 39.9357C104.872 39.6585 104.312 39.2705 103.852 38.7772C103.392 38.2839 103.037 37.7019 102.793 37.0202C102.549 36.3384 102.422 35.6012 102.422 34.8086V34.7865C102.422 33.9828 102.544 33.2456 102.793 32.5749C103.037 31.9042 103.392 31.3167 103.852 30.8234C104.312 30.3301 104.872 29.9421 105.526 29.665C106.18 29.3879 106.923 29.2493 107.743 29.2493C108.563 29.2493 109.306 29.3879 109.966 29.665C110.625 29.9421 111.185 30.3246 111.639 30.8234C112.099 31.3167 112.449 31.9042 112.693 32.5749C112.936 33.2456 113.064 33.9828 113.064 34.7865V34.8086C113.064 35.6012 112.942 36.3384 112.693 37.0202C112.449 37.7019 112.094 38.2839 111.639 38.7772C111.179 39.2705 110.625 39.653 109.966 39.9357C109.306 40.2128 108.563 40.3569 107.743 40.3569C106.917 40.3569 106.18 40.2183 105.526 39.9357ZM109.106 38.3671C109.5 38.1786 109.827 37.9126 110.093 37.5745C110.354 37.2364 110.553 36.8317 110.686 36.3606C110.819 35.895 110.886 35.374 110.886 34.8086V34.7865C110.886 34.2211 110.819 33.7056 110.686 33.2345C110.553 32.7689 110.359 32.3643 110.093 32.0262C109.833 31.6881 109.5 31.4276 109.106 31.2391C108.713 31.0507 108.258 30.9564 107.737 30.9564C107.216 30.9564 106.762 31.0507 106.368 31.2391C105.975 31.4276 105.648 31.6881 105.382 32.0262C105.121 32.3643 104.922 32.7634 104.789 33.2345C104.656 33.7001 104.589 34.2211 104.589 34.7865V34.8086C104.589 35.374 104.656 35.8895 104.789 36.3606C104.922 36.8262 105.116 37.2308 105.382 37.5745C105.642 37.9126 105.975 38.1786 106.368 38.3671C106.762 38.5555 107.216 38.6497 107.737 38.6497C108.258 38.6497 108.713 38.5555 109.106 38.3671Z" fill="#3E3EFF"/>
<path d="M114.258 29.5486H116.503L119.823 38.3781H119.529L122.943 29.5486H124.972L120.782 40.0742H118.459L114.258 29.5486Z" fill="#3E3EFF"/>
<path d="M129.946 40.1628C129.464 40.0353 129.021 39.8524 128.627 39.6141C128.234 39.3757 127.885 39.0875 127.58 38.755C127.275 38.4224 127.014 38.0455 126.809 37.6353C126.599 37.2196 126.443 36.7762 126.333 36.294C126.227 35.8118 126.172 35.3074 126.172 34.7753V34.7531C126.172 33.9272 126.305 33.1734 126.571 32.5028C126.837 31.8321 127.203 31.2501 127.679 30.7734C128.151 30.2912 128.71 29.9198 129.353 29.6593C130.002 29.3988 130.7 29.2658 131.454 29.2658C132.014 29.2658 132.535 29.3323 133.017 29.4709C133.499 29.6095 133.932 29.809 134.325 30.0695C134.713 30.33 135.062 30.6404 135.362 31.0062C135.661 31.372 135.91 31.7767 136.11 32.2312C136.31 32.6857 136.454 33.179 136.542 33.7166C136.631 34.2543 136.67 34.8141 136.648 35.4071V35.4182H127.668L127.646 33.7499H134.464V33.7388C134.442 33.4672 134.397 33.2122 134.325 32.9628C134.253 32.7134 134.159 32.4861 134.031 32.2755C133.91 32.0649 133.76 31.8764 133.588 31.7101C133.416 31.5439 133.222 31.3998 133.001 31.2778C132.784 31.1559 132.54 31.0617 132.286 31.0007C132.025 30.9342 131.748 30.9065 131.443 30.9065C130.972 30.9065 130.545 30.9841 130.157 31.1392C129.769 31.2944 129.442 31.5328 129.165 31.8487C128.893 32.1702 128.683 32.5693 128.539 33.0515C128.395 33.5337 128.322 34.1046 128.334 34.7642V34.7864C128.334 35.1688 128.367 35.5346 128.428 35.8783C128.494 36.2219 128.589 36.5379 128.716 36.8205C128.843 37.1088 128.999 37.3637 129.187 37.591C129.37 37.8182 129.586 38.0178 129.83 38.1785C130.074 38.3392 130.34 38.4612 130.634 38.5499C130.928 38.633 131.243 38.6774 131.576 38.6774C131.964 38.6774 132.313 38.6441 132.624 38.572C132.928 38.5 133.2 38.3947 133.427 38.2617C133.655 38.1231 133.849 37.9568 134.009 37.7573C134.17 37.5577 134.298 37.336 134.397 37.0866H136.498C136.354 37.5633 136.149 38.0067 135.866 38.4113C135.589 38.8159 135.24 39.1651 134.819 39.4589C134.403 39.7526 133.921 39.9799 133.372 40.1406C132.823 40.3014 132.208 40.3845 131.521 40.3845C130.955 40.3568 130.434 40.2903 129.946 40.1628Z" fill="#3E3EFF"/>
<path d="M139.156 29.5485H141.218V31.4164C141.373 31.1115 141.556 30.8399 141.772 30.5905C141.989 30.3466 142.238 30.136 142.521 29.9642C142.803 29.7924 143.119 29.6594 143.468 29.5707C143.818 29.482 144.2 29.4321 144.61 29.4321H144.804V31.4441H144.25C143.773 31.4441 143.347 31.4995 142.975 31.6159C142.604 31.7323 142.282 31.9097 142.027 32.1591C141.767 32.4085 141.567 32.73 141.429 33.1291C141.29 33.5282 141.224 34.0104 141.224 34.5757V40.0686H139.156V29.5485Z" fill="#3E3EFF"/>
<path d="M147.157 41.6096H147.623C147.977 41.6096 148.271 41.5985 148.498 41.5708C148.726 41.543 148.914 41.4821 149.069 41.3878C149.224 41.2936 149.357 41.155 149.463 40.9721C149.568 40.7892 149.679 40.5398 149.784 40.2239L149.856 40.0243L145.461 29.5486H147.684L150.965 37.6465H150.987L154.412 29.5486H156.524L151.796 40.3846C151.613 40.8114 151.442 41.1772 151.281 41.4932C151.12 41.8035 150.959 42.0696 150.799 42.2913C150.638 42.5075 150.466 42.6904 150.278 42.829C150.095 42.9675 149.878 43.0784 149.64 43.156C149.402 43.2391 149.13 43.289 148.82 43.3167C148.515 43.3444 148.155 43.3555 147.745 43.3555H147.157V41.6096Z" fill="#3E3EFF"/>
<path d="M0 0V48H48V0H0Z" fill="#181863"/>
<path d="M0 10.6641V47.9999H37.3358V10.6641H0Z" fill="#3E3EFF"/>
<path d="M0 21.3338V47.9998H26.6661V21.3338H0Z" fill="#9999FF"/>
</svg>
