<svg width="113" height="50" viewBox="0 0 113 50" fill="none" xmlns="http://www.w3.org/2000/svg">
<path d="M54.123 10.3319H56.758V23.1769H54.123V10.3319Z" fill="#06061A"/>
<path d="M62.4392 23.2871C62.0042 23.1771 61.6042 23.0171 61.2392 22.8071C60.8792 22.5971 60.5542 22.3421 60.2692 22.0471C59.9842 21.7471 59.7442 21.4121 59.5492 21.0421C59.3542 20.6671 59.2042 20.2621 59.1042 19.8221C58.9992 19.3821 58.9492 18.9121 58.9492 18.4121V18.3921C58.9492 17.6521 59.0642 16.9721 59.2892 16.3571C59.5192 15.7421 59.8442 15.2121 60.2692 14.7671C60.6942 14.3221 61.2092 13.9771 61.8142 13.7321C62.4192 13.4871 63.0942 13.3621 63.8392 13.3621C64.5092 13.3621 65.1092 13.4521 65.6542 13.6271C66.1942 13.8021 66.6642 14.0471 67.0592 14.3621C67.4542 14.6771 67.7792 15.0471 68.0342 15.4821C68.2892 15.9171 68.4692 16.3971 68.5742 16.9171H66.0392C65.9742 16.6421 65.8742 16.4071 65.7492 16.2021C65.6192 15.9971 65.4692 15.8321 65.2842 15.6971C65.1042 15.5621 64.8942 15.4621 64.6542 15.3971C64.4192 15.3321 64.1642 15.2971 63.8892 15.2971C63.5442 15.2971 63.2292 15.3671 62.9492 15.5071C62.6692 15.6471 62.4292 15.8471 62.2242 16.1121C62.0192 16.3771 61.8642 16.7021 61.7542 17.0871C61.6442 17.4721 61.5892 17.9071 61.5892 18.3921V18.4121C61.5892 18.7421 61.6142 19.0471 61.6642 19.3271C61.7142 19.6071 61.7892 19.8671 61.8842 20.0971C61.9792 20.3271 62.0942 20.5321 62.2242 20.7071C62.3592 20.8821 62.5092 21.0321 62.6792 21.1521C62.8492 21.2721 63.0342 21.3671 63.2342 21.4271C63.4342 21.4871 63.6492 21.5171 63.8792 21.5171C64.1542 21.5171 64.4092 21.4821 64.6442 21.4171C64.8792 21.3521 65.0892 21.2471 65.2742 21.1121C65.4542 20.9771 65.6092 20.8071 65.7392 20.6021C65.8692 20.3971 65.9642 20.1621 66.0292 19.8971H68.5642C68.4592 20.4121 68.2842 20.8921 68.0242 21.3271C67.7642 21.7621 67.4442 22.1421 67.0492 22.4571C66.6542 22.7721 66.1892 23.0171 65.6442 23.1921C65.1042 23.3671 64.4992 23.4521 63.8292 23.4521C63.3442 23.4521 62.8742 23.3971 62.4392 23.2871Z" fill="#06061A"/>
<path d="M71.9692 23.2519C71.5342 23.1169 71.1542 22.9269 70.8342 22.6719C70.5142 22.4219 70.2692 22.1169 70.0892 21.7569C69.9142 21.3969 69.8242 20.9969 69.8242 20.5469V20.5369C69.8242 20.1919 69.8692 19.8819 69.9592 19.6019C70.0492 19.3269 70.1842 19.0819 70.3642 18.8619C70.5442 18.6469 70.7642 18.4569 71.0342 18.2919C71.2992 18.1269 71.6092 17.9819 71.9642 17.8569C72.3142 17.7319 72.7092 17.6269 73.1392 17.5319C73.5692 17.4419 74.0392 17.3619 74.5492 17.2969C74.9342 17.2469 75.2392 17.1969 75.4642 17.1469C75.6942 17.0969 75.8692 17.0319 75.9942 16.9569C76.1192 16.8819 76.1992 16.7919 76.2392 16.6869C76.2792 16.5819 76.2992 16.4519 76.2992 16.2969V16.2819C76.2992 16.0669 76.2592 15.8869 76.1792 15.7369C76.0992 15.5869 75.9842 15.4569 75.8342 15.3569C75.6842 15.2569 75.4992 15.1819 75.2942 15.1319C75.0842 15.0819 74.8492 15.0569 74.5892 15.0569C74.3042 15.0569 74.0442 15.0869 73.8092 15.1469C73.5742 15.2069 73.3742 15.3019 73.2092 15.4269C73.0442 15.5569 72.9092 15.7169 72.8192 15.9119C72.7242 16.1069 72.6742 16.3369 72.6592 16.6019H70.2492C70.2592 16.0619 70.3792 15.5869 70.5992 15.1819C70.8192 14.7769 71.1242 14.4369 71.5042 14.1619C71.8842 13.8869 72.3442 13.6819 72.8742 13.5419C73.4042 13.4019 73.9842 13.3319 74.6092 13.3319C75.2542 13.3319 75.8292 13.3869 76.3442 13.4919C76.8592 13.5969 77.2892 13.7769 77.6492 14.0319C78.0042 14.2869 78.2742 14.6269 78.4642 15.0519C78.6542 15.4769 78.7442 16.0069 78.7442 16.6469L78.7192 20.1719C78.7192 20.4919 78.7242 20.7919 78.7342 21.0669C78.7442 21.3419 78.7592 21.5969 78.7792 21.8419C78.7992 22.0869 78.8292 22.3169 78.8692 22.5319C78.9092 22.7519 78.9542 22.9619 79.0092 23.1719H76.5292C76.5192 23.0969 76.5042 23.0269 76.4992 22.9619C76.4892 22.8969 76.4792 22.8269 76.4742 22.7619C76.4642 22.6969 76.4592 22.6219 76.4492 22.5469C76.4442 22.4719 76.4392 22.3869 76.4392 22.2969C76.2792 22.4769 76.1042 22.6419 75.8992 22.7819C75.6992 22.9269 75.4742 23.0469 75.2242 23.1419C74.9742 23.2369 74.6992 23.3119 74.3942 23.3669C74.0892 23.4169 73.7542 23.4419 73.3942 23.4419C72.8842 23.4519 72.4092 23.3819 71.9692 23.2519ZM74.7242 21.6419C74.9142 21.6069 75.0842 21.5619 75.2442 21.4969C75.4042 21.4319 75.5442 21.3519 75.6742 21.2569C75.8042 21.1619 75.9092 21.0419 75.9992 20.9119C76.0892 20.7769 76.1592 20.6269 76.2092 20.4619C76.2592 20.2969 76.2842 20.1119 76.2842 19.9119V18.3619C76.1192 18.4219 75.9642 18.4769 75.8192 18.5219C75.6742 18.5669 75.5342 18.6119 75.3942 18.6519C75.2592 18.6919 75.1242 18.7269 74.9992 18.7619C74.8692 18.7969 74.7492 18.8269 74.6342 18.8569C74.3592 18.9319 74.1192 18.9969 73.9042 19.0619C73.6892 19.1269 73.5042 19.1919 73.3442 19.2569C73.1842 19.3219 73.0442 19.3969 72.9342 19.4719C72.8242 19.5469 72.7292 19.6319 72.6592 19.7219C72.5892 19.8119 72.5392 19.9119 72.5042 20.0219C72.4692 20.1319 72.4542 20.2569 72.4542 20.3969V20.4069C72.4542 20.6119 72.4942 20.7969 72.5742 20.9569C72.6542 21.1169 72.7642 21.2519 72.9092 21.3619C73.0542 21.4719 73.2292 21.5569 73.4392 21.6119C73.6492 21.6719 73.8842 21.6969 74.1442 21.6969C74.3392 21.6919 74.5342 21.6769 74.7242 21.6419Z" fill="#06061A"/>
<path d="M83.8669 23.307C83.4969 23.212 83.1569 23.062 82.8319 22.872C82.5119 22.677 82.2169 22.437 81.9519 22.157C81.6869 21.877 81.4619 21.547 81.2669 21.172C81.0769 20.797 80.9269 20.382 80.8269 19.927C80.7219 19.472 80.6719 18.977 80.6719 18.442V18.422C80.6719 17.622 80.7869 16.907 81.0169 16.287C81.2469 15.662 81.5569 15.142 81.9519 14.717C82.3419 14.292 82.8019 13.967 83.3319 13.747C83.8619 13.527 84.4169 13.412 85.0069 13.412C85.3469 13.412 85.6669 13.447 85.9619 13.517C86.2619 13.587 86.5319 13.687 86.7819 13.812C87.0319 13.942 87.2519 14.092 87.4519 14.267C87.6469 14.442 87.8119 14.637 87.9369 14.842V10.332H90.4769V23.177H87.9369V22.022C87.8069 22.227 87.6469 22.422 87.4519 22.597C87.2569 22.772 87.0319 22.927 86.7819 23.052C86.5319 23.182 86.2619 23.277 85.9619 23.347C85.6619 23.417 85.3469 23.452 85.0069 23.452C84.6169 23.452 84.2369 23.402 83.8669 23.307ZM86.3469 21.437C86.5519 21.377 86.7369 21.287 86.9119 21.172C87.0869 21.057 87.2419 20.912 87.3819 20.737C87.5219 20.562 87.6369 20.362 87.7319 20.137C87.8269 19.907 87.8969 19.652 87.9519 19.372C88.0019 19.092 88.0269 18.777 88.0269 18.437V18.417C88.0269 18.077 88.0019 17.767 87.9519 17.482C87.9019 17.202 87.8269 16.942 87.7319 16.717C87.6369 16.487 87.5219 16.287 87.3819 16.117C87.2419 15.942 87.0869 15.802 86.9119 15.682C86.7369 15.567 86.5519 15.477 86.3469 15.417C86.1419 15.357 85.9219 15.327 85.6869 15.327C85.4519 15.327 85.2319 15.357 85.0269 15.417C84.8219 15.477 84.6369 15.567 84.4619 15.682C84.2869 15.797 84.1319 15.942 83.9919 16.117C83.8519 16.292 83.7369 16.492 83.6419 16.717C83.5469 16.947 83.4769 17.202 83.4219 17.482C83.3719 17.762 83.3469 18.077 83.3469 18.417V18.437C83.3469 18.777 83.3719 19.087 83.4219 19.372C83.4719 19.652 83.5469 19.912 83.6419 20.137C83.7369 20.367 83.8519 20.567 83.9919 20.737C84.1319 20.912 84.2869 21.052 84.4619 21.172C84.6369 21.287 84.8219 21.377 85.0269 21.437C85.2319 21.497 85.4519 21.527 85.6869 21.527C85.9219 21.527 86.1419 21.497 86.3469 21.437Z" fill="#06061A"/>
<path d="M54.2949 26.682H56.2249V37.842H62.4999V39.527H54.2949V26.682Z" fill="#3E3EFF"/>
<path d="M65.6471 39.5877C65.2171 39.4577 64.8471 39.2677 64.5371 39.0227C64.2221 38.7777 63.9821 38.4777 63.8021 38.1227C63.6271 37.7677 63.5371 37.3677 63.5371 36.9227V36.9027C63.5371 36.5677 63.5821 36.2677 63.6671 35.9977C63.7571 35.7277 63.8871 35.4877 64.0571 35.2727C64.2321 35.0577 64.4471 34.8727 64.7071 34.7127C64.9671 34.5527 65.2721 34.4077 65.6171 34.2827C65.9621 34.1577 66.3521 34.0527 66.7821 33.9577C67.2121 33.8677 67.6871 33.7877 68.2021 33.7227C68.5971 33.6677 68.9071 33.6127 69.1421 33.5577C69.3721 33.5027 69.5521 33.4327 69.6771 33.3527C69.8021 33.2727 69.8821 33.1727 69.9171 33.0577C69.9521 32.9427 69.9721 32.7977 69.9721 32.6227V32.6027C69.9721 32.3677 69.9271 32.1627 69.8371 31.9877C69.7471 31.8127 69.6171 31.6677 69.4471 31.5527C69.2771 31.4327 69.0721 31.3477 68.8271 31.2877C68.5821 31.2277 68.3121 31.2027 68.0071 31.2027C67.6921 31.2027 67.4021 31.2377 67.1371 31.3027C66.8721 31.3677 66.6471 31.4727 66.4521 31.6177C66.2621 31.7627 66.1121 31.9377 66.0021 32.1577C65.8921 32.3727 65.8321 32.6327 65.8221 32.9377H63.9621C63.9621 32.3927 64.0721 31.9177 64.2921 31.5227C64.5121 31.1227 64.8071 30.7977 65.1771 30.5377C65.5471 30.2777 65.9771 30.0877 66.4721 29.9577C66.9621 29.8277 67.4821 29.7677 68.0221 29.7677C68.6121 29.7677 69.1421 29.8227 69.6121 29.9277C70.0821 30.0327 70.4821 30.2077 70.8071 30.4527C71.1321 30.6977 71.3821 31.0177 71.5521 31.4177C71.7271 31.8177 71.8121 32.3127 71.8121 32.8927L71.7921 36.3827C71.7921 36.7277 71.7971 37.0427 71.8021 37.3277C71.8071 37.6127 71.8221 37.8827 71.8421 38.1327C71.8621 38.3827 71.8921 38.6227 71.9321 38.8527C71.9721 39.0827 72.0171 39.3077 72.0721 39.5327H70.2221C70.2121 39.4527 70.1971 39.3777 70.1871 39.3077C70.1771 39.2377 70.1621 39.1677 70.1521 39.0927C70.1421 39.0177 70.1321 38.9427 70.1271 38.8627C70.1221 38.7827 70.1171 38.6977 70.1071 38.5977C69.9571 38.7677 69.7821 38.9277 69.5921 39.0727C69.4021 39.2177 69.1821 39.3427 68.9371 39.4477C68.6921 39.5527 68.4121 39.6327 68.0971 39.6927C67.7821 39.7527 67.4321 39.7827 67.0371 39.7827C66.5371 39.7827 66.0771 39.7177 65.6471 39.5877ZM68.1621 38.2627C68.3821 38.2227 68.5871 38.1677 68.7721 38.0877C68.9571 38.0127 69.1271 37.9177 69.2771 37.8077C69.4271 37.6977 69.5571 37.5627 69.6621 37.4127C69.7671 37.2627 69.8471 37.0927 69.9021 36.9027C69.9621 36.7127 69.9871 36.5077 69.9871 36.2827V34.5627C69.8071 34.6227 69.6321 34.6777 69.4621 34.7327C69.2971 34.7827 69.1371 34.8327 68.9821 34.8727C68.8321 34.9177 68.6821 34.9527 68.5421 34.9927C68.3971 35.0277 68.2571 35.0677 68.1171 35.1027C67.7821 35.1827 67.4871 35.2577 67.2271 35.3327C66.9671 35.4077 66.7421 35.4827 66.5471 35.5627C66.3521 35.6377 66.1871 35.7177 66.0571 35.7977C65.9221 35.8777 65.8171 35.9727 65.7321 36.0777C65.6521 36.1827 65.5921 36.2927 65.5521 36.4127C65.5171 36.5327 65.4971 36.6727 65.4971 36.8327V36.8427C65.4971 37.0777 65.5421 37.2927 65.6271 37.4777C65.7171 37.6627 65.8421 37.8177 66.0121 37.9477C66.1771 38.0777 66.3821 38.1727 66.6271 38.2327C66.8721 38.2977 67.1471 38.3277 67.4571 38.3277C67.7071 38.3227 67.9421 38.3027 68.1621 38.2627Z" fill="#3E3EFF"/>
<path d="M74.6426 30.0322H76.5026V31.1722C76.6626 30.9572 76.8326 30.7672 77.0226 30.5972C77.2126 30.4272 77.4226 30.2822 77.6576 30.1622C77.8926 30.0422 78.1526 29.9472 78.4376 29.8822C78.7226 29.8172 79.0426 29.7822 79.3926 29.7822C79.9676 29.7822 80.4726 29.8772 80.9026 30.0622C81.3326 30.2522 81.6926 30.5222 81.9826 30.8722C82.2726 31.2222 82.4876 31.6522 82.6326 32.1572C82.7776 32.6622 82.8526 33.2272 82.8526 33.8622V39.5272H80.9926V34.2522C80.9926 33.7822 80.9476 33.3722 80.8576 33.0072C80.7676 32.6472 80.6276 32.3422 80.4376 32.0972C80.2476 31.8522 80.0126 31.6672 79.7326 31.5422C79.4526 31.4172 79.1226 31.3572 78.7426 31.3572C78.3676 31.3572 78.0376 31.4172 77.7526 31.5422C77.4726 31.6672 77.2376 31.8522 77.0526 32.0972C76.8676 32.3422 76.7276 32.6472 76.6376 33.0072C76.5476 33.3672 76.5026 33.7822 76.5026 34.2522V39.5272H74.6426V30.0322Z" fill="#3E3EFF"/>
<path d="M88.3611 39.6127C87.9411 39.5027 87.5611 39.3427 87.2111 39.1327C86.8661 38.9277 86.5511 38.6727 86.2761 38.3777C86.0011 38.0777 85.7661 37.7477 85.5811 37.3777C85.3911 37.0077 85.2461 36.6027 85.1461 36.1677C85.0461 35.7327 84.9961 35.2677 84.9961 34.7827V34.7627C84.9961 34.0327 85.1061 33.3627 85.3311 32.7477C85.5511 32.1327 85.8711 31.6077 86.2761 31.1677C86.6861 30.7277 87.1811 30.3827 87.7611 30.1377C88.3411 29.8927 88.9911 29.7677 89.7061 29.7677C90.3211 29.7677 90.8811 29.8477 91.3861 30.0127C91.8911 30.1777 92.3361 30.4077 92.7161 30.7027C93.0961 30.9977 93.4111 31.3527 93.6611 31.7627C93.9111 32.1777 94.0911 32.6327 94.1961 33.1277H92.3011C92.2211 32.8377 92.1061 32.5777 91.9511 32.3477C91.7961 32.1177 91.6061 31.9277 91.3861 31.7727C91.1661 31.6177 90.9161 31.5027 90.6361 31.4227C90.3561 31.3427 90.0511 31.3027 89.7261 31.3027C89.3261 31.3027 88.9561 31.3777 88.6211 31.5327C88.2861 31.6877 87.9911 31.9127 87.7461 32.2077C87.5011 32.5027 87.3111 32.8627 87.1711 33.2927C87.0361 33.7227 86.9661 34.2077 86.9661 34.7527V34.7727C86.9661 35.1377 86.9961 35.4777 87.0611 35.7877C87.1261 36.1027 87.2161 36.3877 87.3311 36.6427C87.4461 36.9027 87.5861 37.1277 87.7511 37.3277C87.9161 37.5227 88.1011 37.6927 88.3011 37.8227C88.5061 37.9577 88.7261 38.0577 88.9661 38.1277C89.2061 38.1977 89.4611 38.2327 89.7261 38.2327C90.0561 38.2327 90.3561 38.1927 90.6361 38.1077C90.9161 38.0277 91.1661 37.9077 91.3861 37.7527C91.6061 37.5977 91.7961 37.4077 91.9511 37.1777C92.1061 36.9477 92.2211 36.6927 92.3011 36.3977H94.1961C94.0911 36.8977 93.9161 37.3527 93.6611 37.7627C93.4111 38.1777 93.0911 38.5327 92.7161 38.8277C92.3361 39.1277 91.8911 39.3577 91.3861 39.5177C90.8811 39.6827 90.3211 39.7627 89.7061 39.7627C89.2311 39.7827 88.7811 39.7227 88.3611 39.6127Z" fill="#3E3EFF"/>
<path d="M99.0671 39.6075C98.6321 39.4925 98.2321 39.3275 97.8771 39.1125C97.5221 38.8975 97.2071 38.6375 96.9321 38.3375C96.6571 38.0375 96.4221 37.6975 96.2371 37.3275C96.0471 36.9525 95.9071 36.5525 95.8071 36.1175C95.7121 35.6825 95.6621 35.2275 95.6621 34.7475V34.7275C95.6621 33.9825 95.7821 33.3025 96.0221 32.6975C96.2621 32.0925 96.5921 31.5675 97.0221 31.1375C97.4471 30.7025 97.9521 30.3675 98.5321 30.1325C99.1171 29.8975 99.7471 29.7775 100.427 29.7775C100.932 29.7775 101.402 29.8375 101.837 29.9625C102.272 30.0875 102.662 30.2675 103.017 30.5025C103.367 30.7375 103.682 31.0175 103.952 31.3475C104.222 31.6775 104.447 32.0425 104.627 32.4525C104.807 32.8625 104.937 33.3075 105.017 33.7925C105.097 34.2775 105.132 34.7825 105.112 35.3175V35.3275H97.0121L96.9921 33.8225H103.142V33.8125C103.122 33.5675 103.082 33.3375 103.017 33.1125C102.952 32.8875 102.867 32.6825 102.752 32.4925C102.642 32.3025 102.507 32.1325 102.352 31.9825C102.197 31.8325 102.022 31.7025 101.822 31.5925C101.627 31.4825 101.407 31.3975 101.177 31.3425C100.942 31.2825 100.692 31.2575 100.417 31.2575C99.9921 31.2575 99.6071 31.3275 99.2571 31.4675C98.9071 31.6075 98.6121 31.8225 98.3621 32.1075C98.1171 32.3975 97.9271 32.7575 97.7971 33.1925C97.6671 33.6275 97.6021 34.1425 97.6121 34.7375V34.7575C97.6121 35.1025 97.6421 35.4325 97.6971 35.7425C97.7571 36.0525 97.8421 36.3375 97.9571 36.5925C98.0721 36.8525 98.2121 37.0825 98.3821 37.2875C98.5471 37.4925 98.7421 37.6725 98.9621 37.8175C99.1821 37.9625 99.4221 38.0725 99.6871 38.1525C99.9521 38.2275 100.237 38.2675 100.537 38.2675C100.887 38.2675 101.202 38.2375 101.482 38.1725C101.757 38.1075 102.002 38.0125 102.207 37.8925C102.412 37.7675 102.587 37.6175 102.732 37.4375C102.877 37.2575 102.992 37.0575 103.082 36.8325H104.977C104.847 37.2625 104.662 37.6625 104.407 38.0275C104.157 38.3925 103.842 38.7075 103.462 38.9725C103.087 39.2375 102.652 39.4425 102.157 39.5875C101.662 39.7325 101.107 39.8075 100.487 39.8075C99.9771 39.7825 99.5071 39.7225 99.0671 39.6075Z" fill="#3E3EFF"/>
<path d="M107.381 30.032H109.241V31.717C109.381 31.442 109.546 31.197 109.741 30.972C109.936 30.752 110.161 30.562 110.416 30.407C110.671 30.252 110.956 30.132 111.271 30.052C111.586 29.972 111.931 29.927 112.301 29.927H112.476V31.742H111.976C111.546 31.742 111.161 31.792 110.826 31.897C110.491 32.002 110.201 32.162 109.971 32.387C109.736 32.612 109.556 32.902 109.431 33.262C109.306 33.622 109.246 34.057 109.246 34.567V39.522H107.386V30.032H107.381Z" fill="#3E3EFF"/>
<path d="M21.6445 0V25L43.2945 37.5V12.5L21.6445 0Z" fill="#181863"/>
<path d="M10.8242 6.25V31.25L32.4742 43.75V18.75L10.8242 6.25Z" fill="#3E3EFF"/>
<path d="M0 12.5V37.5L21.65 50V25L0 12.5Z" fill="#9999FF"/>
</svg>
