<svg width="180" height="22" viewBox="0 0 180 22" fill="none" xmlns="http://www.w3.org/2000/svg">
<path d="M0.00400013 18V1.08H3.172V18H0.00400013ZM12.3169 18.36C11.6609 18.36 11.0489 18.284 10.4809 18.132C9.91294 17.988 9.39294 17.78 8.92094 17.508C8.45694 17.236 8.03694 16.904 7.66094 16.512C7.29294 16.112 6.98094 15.668 6.72494 15.18C6.47694 14.692 6.28494 14.16 6.14894 13.584C6.01294 13 5.94494 12.384 5.94494 11.736V11.712C5.94494 10.744 6.09294 9.856 6.38894 9.048C6.69294 8.232 7.12094 7.532 7.67294 6.948C8.22494 6.364 8.89294 5.912 9.67694 5.592C10.4609 5.264 11.3409 5.1 12.3169 5.1C13.1729 5.1 13.9489 5.216 14.6449 5.448C15.3409 5.672 15.9449 5.988 16.4569 6.396C16.9769 6.796 17.4009 7.28 17.7289 7.848C18.0649 8.408 18.3009 9.024 18.4369 9.696H15.3769C15.2889 9.328 15.1529 9.008 14.9689 8.736C14.7929 8.456 14.5729 8.224 14.3089 8.04C14.0529 7.848 13.7609 7.708 13.4329 7.62C13.1049 7.524 12.7449 7.476 12.3529 7.476C11.8809 7.476 11.4449 7.572 11.0449 7.764C10.6529 7.948 10.3129 8.224 10.0249 8.592C9.74494 8.952 9.52494 9.396 9.36494 9.924C9.21294 10.444 9.13694 11.04 9.13694 11.712V11.736C9.13694 12.184 9.17294 12.6 9.24494 12.984C9.31694 13.368 9.41694 13.72 9.54494 14.04C9.68094 14.352 9.84494 14.628 10.0369 14.868C10.2289 15.108 10.4409 15.312 10.6729 15.48C10.9129 15.648 11.1729 15.776 11.4529 15.864C11.7409 15.944 12.0409 15.984 12.3529 15.984C12.7449 15.984 13.1049 15.936 13.4329 15.84C13.7609 15.744 14.0529 15.604 14.3089 15.42C14.5729 15.228 14.7929 14.996 14.9689 14.724C15.1529 14.444 15.2889 14.12 15.3769 13.752H18.4369C18.3009 14.424 18.0649 15.044 17.7289 15.612C17.4009 16.172 16.9769 16.656 16.4569 17.064C15.9449 17.472 15.3409 17.788 14.6449 18.012C13.9489 18.244 13.1729 18.36 12.3169 18.36ZM24.8504 18.36C24.1784 18.36 23.5544 18.272 22.9784 18.096C22.4104 17.92 21.9144 17.668 21.4904 17.34C21.0744 17.012 20.7504 16.612 20.5184 16.14C20.2864 15.668 20.1704 15.136 20.1704 14.544V14.52C20.1704 14.072 20.2304 13.668 20.3504 13.308C20.4704 12.948 20.6464 12.628 20.8784 12.348C21.1104 12.06 21.4024 11.812 21.7544 11.604C22.1064 11.388 22.5104 11.2 22.9664 11.04C23.4304 10.872 23.9464 10.728 24.5144 10.608C25.0824 10.488 25.7064 10.384 26.3864 10.296C26.8904 10.224 27.2904 10.156 27.5864 10.092C27.8904 10.02 28.1224 9.936 28.2824 9.84C28.4504 9.736 28.5584 9.612 28.6064 9.468C28.6624 9.324 28.6904 9.144 28.6904 8.928V8.904C28.6904 8.616 28.6344 8.368 28.5224 8.16C28.4104 7.952 28.2504 7.776 28.0424 7.632C27.8424 7.488 27.5944 7.384 27.2984 7.32C27.0104 7.248 26.6824 7.212 26.3144 7.212C25.9304 7.212 25.5784 7.256 25.2584 7.344C24.9384 7.424 24.6624 7.552 24.4304 7.728C24.1984 7.904 24.0144 8.124 23.8784 8.388C23.7504 8.652 23.6784 8.968 23.6624 9.336H20.7344C20.7424 8.624 20.8904 8.004 21.1784 7.476C21.4664 6.94 21.8624 6.496 22.3664 6.144C22.8704 5.784 23.4624 5.516 24.1424 5.34C24.8224 5.164 25.5584 5.076 26.3504 5.076C27.1664 5.076 27.9024 5.148 28.5584 5.292C29.2224 5.428 29.7784 5.66 30.2264 5.988C30.6824 6.316 31.0304 6.756 31.2704 7.308C31.5184 7.86 31.6424 8.544 31.6424 9.36L31.6064 13.98C31.6064 14.42 31.6104 14.824 31.6184 15.192C31.6264 15.552 31.6464 15.896 31.6784 16.224C31.7104 16.544 31.7504 16.852 31.7984 17.148C31.8544 17.436 31.9184 17.72 31.9904 18H29.0024C28.9864 17.904 28.9704 17.812 28.9544 17.724C28.9384 17.628 28.9224 17.536 28.9064 17.448C28.8984 17.352 28.8904 17.256 28.8824 17.16C28.8744 17.056 28.8664 16.944 28.8584 16.824C28.6584 17.056 28.4264 17.268 28.1624 17.46C27.9064 17.652 27.6144 17.812 27.2864 17.94C26.9664 18.068 26.6024 18.168 26.1944 18.24C25.7944 18.32 25.3464 18.36 24.8504 18.36ZM25.6784 16.164C25.9664 16.164 26.2384 16.144 26.4944 16.104C26.7584 16.056 26.9984 15.988 27.2144 15.9C27.4384 15.804 27.6384 15.688 27.8144 15.552C27.9984 15.416 28.1504 15.26 28.2704 15.084C28.3984 14.9 28.4944 14.692 28.5584 14.46C28.6304 14.228 28.6664 13.976 28.6664 13.704V11.592C28.4504 11.664 28.2384 11.732 28.0304 11.796C27.8304 11.86 27.6344 11.92 27.4424 11.976C27.2584 12.032 27.0784 12.084 26.9024 12.132C26.7344 12.172 26.5664 12.216 26.3984 12.264C26.0144 12.352 25.6704 12.444 25.3664 12.54C25.0704 12.628 24.8064 12.72 24.5744 12.816C24.3504 12.904 24.1584 13 23.9984 13.104C23.8464 13.2 23.7224 13.312 23.6264 13.44C23.5304 13.568 23.4584 13.708 23.4104 13.86C23.3704 14.004 23.3504 14.172 23.3504 14.364V14.376C23.3504 14.664 23.4024 14.92 23.5064 15.144C23.6104 15.368 23.7624 15.556 23.9624 15.708C24.1624 15.86 24.4064 15.976 24.6944 16.056C24.9904 16.128 25.3184 16.164 25.6784 16.164ZM40.0529 18.36C39.5249 18.36 39.0169 18.292 38.5289 18.156C38.0409 18.028 37.5849 17.836 37.1609 17.58C36.7369 17.324 36.3449 17.008 35.9849 16.632C35.6329 16.256 35.3329 15.824 35.0849 15.336C34.8369 14.848 34.6409 14.304 34.4969 13.704C34.3609 13.104 34.2929 12.456 34.2929 11.76V11.736C34.2929 10.688 34.4449 9.756 34.7489 8.94C35.0529 8.116 35.4649 7.424 35.9849 6.864C36.5049 6.304 37.1169 5.876 37.8209 5.58C38.5249 5.284 39.2689 5.136 40.0529 5.136C40.5009 5.136 40.9209 5.184 41.3129 5.28C41.7049 5.376 42.0649 5.512 42.3929 5.688C42.7209 5.856 43.0169 6.056 43.2809 6.288C43.5449 6.52 43.7689 6.776 43.9529 7.056V1.08H46.9889V18H43.9529V16.44C43.7689 16.712 43.5449 16.968 43.2809 17.208C43.0169 17.44 42.7209 17.644 42.3929 17.82C42.0649 17.988 41.7049 18.12 41.3129 18.216C40.9209 18.312 40.5009 18.36 40.0529 18.36ZM40.7729 15.984C41.0929 15.984 41.3929 15.944 41.6729 15.864C41.9609 15.784 42.2249 15.664 42.4649 15.504C42.7129 15.344 42.9329 15.148 43.1249 14.916C43.3249 14.676 43.4889 14.4 43.6169 14.088C43.7529 13.776 43.8569 13.428 43.9289 13.044C44.0089 12.652 44.0489 12.224 44.0489 11.76V11.736C44.0489 11.272 44.0089 10.848 43.9289 10.464C43.8569 10.072 43.7529 9.72 43.6169 9.408C43.4889 9.096 43.3249 8.824 43.1249 8.592C42.9329 8.352 42.7129 8.152 42.4649 7.992C42.2249 7.832 41.9609 7.712 41.6729 7.632C41.3929 7.552 41.0929 7.512 40.7729 7.512C40.4529 7.512 40.1489 7.552 39.8609 7.632C39.5729 7.712 39.3089 7.832 39.0689 7.992C38.8289 8.152 38.6089 8.352 38.4089 8.592C38.2169 8.824 38.0529 9.096 37.9169 9.408C37.7889 9.72 37.6849 10.072 37.6049 10.464C37.5329 10.848 37.4969 11.272 37.4969 11.736V11.76C37.4969 12.224 37.5329 12.652 37.6049 13.044C37.6849 13.428 37.7889 13.776 37.9169 14.088C38.0529 14.4 38.2169 14.676 38.4089 14.916C38.6089 15.148 38.8289 15.344 39.0689 15.504C39.3089 15.664 39.5729 15.784 39.8609 15.864C40.1489 15.944 40.4529 15.984 40.7729 15.984Z" fill="#0C2340"/>
<path d="M64.0951 18.36C63.1591 18.36 62.2871 18.26 61.4791 18.06C60.6791 17.86 59.9471 17.58 59.2831 17.22C58.6271 16.852 58.0391 16.408 57.5191 15.888C57.0071 15.368 56.5751 14.78 56.2231 14.124C55.8711 13.468 55.6031 12.76 55.4191 12C55.2431 11.232 55.1551 10.416 55.1551 9.552V9.528C55.1551 8.232 55.3591 7.048 55.7671 5.976C56.1751 4.896 56.7591 3.968 57.5191 3.192C58.2871 2.416 59.2231 1.812 60.3271 1.38C61.4391 0.939999 62.6951 0.719999 64.0951 0.719999C65.1671 0.719999 66.1551 0.855999 67.0591 1.128C67.9631 1.4 68.7631 1.796 69.4591 2.316C70.1631 2.828 70.7551 3.456 71.2351 4.2C71.7151 4.944 72.0671 5.788 72.2911 6.732H69.0271C68.8511 6.164 68.5991 5.672 68.2711 5.256C67.9511 4.84 67.5751 4.496 67.1431 4.224C66.7111 3.944 66.2351 3.736 65.7151 3.6C65.1951 3.464 64.6471 3.396 64.0711 3.396C63.4631 3.396 62.8991 3.464 62.3791 3.6C61.8671 3.736 61.4031 3.928 60.9871 4.176C60.5791 4.424 60.2191 4.732 59.9071 5.1C59.5951 5.46 59.3311 5.868 59.1151 6.324C58.9071 6.772 58.7511 7.264 58.6471 7.8C58.5431 8.336 58.4911 8.912 58.4911 9.528V9.552C58.4911 10.16 58.5431 10.736 58.6471 11.28C58.7511 11.816 58.9071 12.312 59.1151 12.768C59.3311 13.216 59.5951 13.624 59.9071 13.992C60.2191 14.352 60.5791 14.656 60.9871 14.904C61.4031 15.152 61.8671 15.344 62.3791 15.48C62.8991 15.616 63.4631 15.684 64.0711 15.684C64.6471 15.684 65.1951 15.616 65.7151 15.48C66.2351 15.344 66.7111 15.14 67.1431 14.868C67.5751 14.588 67.9511 14.24 68.2711 13.824C68.5991 13.4 68.8511 12.908 69.0271 12.348H72.2911C72.0671 13.292 71.7151 14.136 71.2351 14.88C70.7551 15.624 70.1631 16.256 69.4591 16.776C68.7631 17.288 67.9631 17.68 67.0591 17.952C66.1551 18.224 65.1671 18.36 64.0951 18.36ZM80.6058 18.36C79.5978 18.36 78.6898 18.196 77.8818 17.868C77.0818 17.54 76.3978 17.084 75.8298 16.5C75.2618 15.916 74.8258 15.216 74.5218 14.4C74.2178 13.584 74.0658 12.696 74.0658 11.736V11.712C74.0658 10.744 74.2178 9.856 74.5218 9.048C74.8258 8.24 75.2618 7.544 75.8298 6.96C76.3978 6.368 77.0818 5.912 77.8818 5.592C78.6898 5.264 79.5978 5.1 80.6058 5.1C81.6058 5.1 82.5098 5.264 83.3178 5.592C84.1258 5.912 84.8098 6.368 85.3698 6.96C85.9378 7.544 86.3738 8.24 86.6778 9.048C86.9818 9.856 87.1338 10.744 87.1338 11.712V11.736C87.1338 12.696 86.9818 13.584 86.6778 14.4C86.3738 15.216 85.9378 15.916 85.3698 16.5C84.8098 17.084 84.1258 17.54 83.3178 17.868C82.5098 18.196 81.6058 18.36 80.6058 18.36ZM80.6058 15.96C81.1578 15.96 81.6418 15.86 82.0578 15.66C82.4738 15.46 82.8218 15.176 83.1018 14.808C83.3818 14.432 83.5938 13.988 83.7378 13.476C83.8818 12.956 83.9538 12.376 83.9538 11.736V11.712C83.9538 11.072 83.8818 10.496 83.7378 9.984C83.5938 9.464 83.3818 9.02 83.1018 8.652C82.8218 8.284 82.4738 8 82.0578 7.8C81.6418 7.6 81.1578 7.5 80.6058 7.5C80.0538 7.5 79.5658 7.6 79.1418 7.8C78.7258 8 78.3778 8.284 78.0978 8.652C77.8178 9.02 77.6058 9.464 77.4618 9.984C77.3258 10.496 77.2578 11.072 77.2578 11.712V11.736C77.2578 12.376 77.3258 12.956 77.4618 13.476C77.6058 13.988 77.8178 14.432 78.0978 14.808C78.3778 15.176 78.7258 15.46 79.1418 15.66C79.5658 15.86 80.0538 15.96 80.6058 15.96ZM89.9172 18V1.08H92.9652V18H89.9172ZM102.285 18.36C101.277 18.36 100.369 18.196 99.5614 17.868C98.7614 17.54 98.0774 17.084 97.5094 16.5C96.9414 15.916 96.5054 15.216 96.2014 14.4C95.8974 13.584 95.7454 12.696 95.7454 11.736V11.712C95.7454 10.744 95.8974 9.856 96.2014 9.048C96.5054 8.24 96.9414 7.544 97.5094 6.96C98.0774 6.368 98.7614 5.912 99.5614 5.592C100.369 5.264 101.277 5.1 102.285 5.1C103.285 5.1 104.189 5.264 104.997 5.592C105.805 5.912 106.489 6.368 107.049 6.96C107.617 7.544 108.053 8.24 108.357 9.048C108.661 9.856 108.813 10.744 108.813 11.712V11.736C108.813 12.696 108.661 13.584 108.357 14.4C108.053 15.216 107.617 15.916 107.049 16.5C106.489 17.084 105.805 17.54 104.997 17.868C104.189 18.196 103.285 18.36 102.285 18.36ZM102.285 15.96C102.837 15.96 103.321 15.86 103.737 15.66C104.153 15.46 104.501 15.176 104.781 14.808C105.061 14.432 105.273 13.988 105.417 13.476C105.561 12.956 105.633 12.376 105.633 11.736V11.712C105.633 11.072 105.561 10.496 105.417 9.984C105.273 9.464 105.061 9.02 104.781 8.652C104.501 8.284 104.153 8 103.737 7.8C103.321 7.6 102.837 7.5 102.285 7.5C101.733 7.5 101.245 7.6 100.821 7.8C100.405 8 100.057 8.284 99.7774 8.652C99.4974 9.02 99.2854 9.464 99.1414 9.984C99.0054 10.496 98.9374 11.072 98.9374 11.712V11.736C98.9374 12.376 99.0054 12.956 99.1414 13.476C99.2854 13.988 99.4974 14.432 99.7774 14.808C100.057 15.176 100.405 15.46 100.821 15.66C101.245 15.86 101.733 15.96 102.285 15.96ZM111.597 18V5.496H114.645V7.8C114.813 7.432 115.021 7.096 115.269 6.792C115.525 6.488 115.817 6.228 116.145 6.012C116.473 5.796 116.841 5.632 117.249 5.52C117.657 5.4 118.101 5.34 118.581 5.34H118.809V8.28H118.053C117.525 8.28 117.049 8.34 116.625 8.46C116.209 8.58 115.853 8.776 115.557 9.048C115.261 9.32 115.033 9.676 114.873 10.116C114.721 10.556 114.645 11.092 114.645 11.724V18H111.597ZM123.478 18L119.722 5.496H122.794L125.53 15.204H125.362L128.17 5.496H131.182L134.122 15.228H133.93L136.714 5.496H139.642L135.874 18H132.526L129.466 8.064H129.754L126.838 18H123.478ZM145.46 18.36C144.788 18.36 144.164 18.272 143.588 18.096C143.02 17.92 142.524 17.668 142.1 17.34C141.684 17.012 141.36 16.612 141.128 16.14C140.896 15.668 140.78 15.136 140.78 14.544V14.52C140.78 14.072 140.84 13.668 140.96 13.308C141.08 12.948 141.256 12.628 141.488 12.348C141.72 12.06 142.012 11.812 142.364 11.604C142.716 11.388 143.12 11.2 143.576 11.04C144.04 10.872 144.556 10.728 145.124 10.608C145.692 10.488 146.316 10.384 146.996 10.296C147.5 10.224 147.9 10.156 148.196 10.092C148.5 10.02 148.732 9.936 148.892 9.84C149.06 9.736 149.168 9.612 149.216 9.468C149.272 9.324 149.3 9.144 149.3 8.928V8.904C149.3 8.616 149.244 8.368 149.132 8.16C149.02 7.952 148.86 7.776 148.652 7.632C148.452 7.488 148.204 7.384 147.908 7.32C147.62 7.248 147.292 7.212 146.924 7.212C146.54 7.212 146.188 7.256 145.868 7.344C145.548 7.424 145.272 7.552 145.04 7.728C144.808 7.904 144.624 8.124 144.488 8.388C144.36 8.652 144.288 8.968 144.272 9.336H141.344C141.352 8.624 141.5 8.004 141.788 7.476C142.076 6.94 142.472 6.496 142.976 6.144C143.48 5.784 144.072 5.516 144.752 5.34C145.432 5.164 146.168 5.076 146.96 5.076C147.776 5.076 148.512 5.148 149.168 5.292C149.832 5.428 150.388 5.66 150.836 5.988C151.292 6.316 151.64 6.756 151.88 7.308C152.128 7.86 152.252 8.544 152.252 9.36L152.216 13.98C152.216 14.42 152.22 14.824 152.228 15.192C152.236 15.552 152.256 15.896 152.288 16.224C152.32 16.544 152.36 16.852 152.408 17.148C152.464 17.436 152.528 17.72 152.6 18H149.612C149.596 17.904 149.58 17.812 149.564 17.724C149.548 17.628 149.532 17.536 149.516 17.448C149.508 17.352 149.5 17.256 149.492 17.16C149.484 17.056 149.476 16.944 149.468 16.824C149.268 17.056 149.036 17.268 148.772 17.46C148.516 17.652 148.224 17.812 147.896 17.94C147.576 18.068 147.212 18.168 146.804 18.24C146.404 18.32 145.956 18.36 145.46 18.36ZM146.288 16.164C146.576 16.164 146.848 16.144 147.104 16.104C147.368 16.056 147.608 15.988 147.824 15.9C148.048 15.804 148.248 15.688 148.424 15.552C148.608 15.416 148.76 15.26 148.88 15.084C149.008 14.9 149.104 14.692 149.168 14.46C149.24 14.228 149.276 13.976 149.276 13.704V11.592C149.06 11.664 148.848 11.732 148.64 11.796C148.44 11.86 148.244 11.92 148.052 11.976C147.868 12.032 147.688 12.084 147.512 12.132C147.344 12.172 147.176 12.216 147.008 12.264C146.624 12.352 146.28 12.444 145.976 12.54C145.68 12.628 145.416 12.72 145.184 12.816C144.96 12.904 144.768 13 144.608 13.104C144.456 13.2 144.332 13.312 144.236 13.44C144.14 13.568 144.068 13.708 144.02 13.86C143.98 14.004 143.96 14.172 143.96 14.364V14.376C143.96 14.664 144.012 14.92 144.116 15.144C144.22 15.368 144.372 15.556 144.572 15.708C144.772 15.86 145.016 15.976 145.304 16.056C145.6 16.128 145.928 16.164 146.288 16.164ZM155.808 21.9V19.488H156.648C157.024 19.488 157.328 19.472 157.56 19.44C157.8 19.416 158.004 19.356 158.172 19.26C158.34 19.164 158.48 19.024 158.592 18.84C158.704 18.656 158.816 18.4 158.928 18.072L159.012 17.844L153.9 5.496H157.104L160.68 14.628H160.704L164.532 5.496H167.556L161.952 18.324C161.728 18.844 161.512 19.292 161.304 19.668C161.104 20.052 160.9 20.376 160.692 20.64C160.484 20.904 160.26 21.116 160.02 21.276C159.788 21.444 159.52 21.576 159.216 21.672C158.912 21.768 158.564 21.828 158.172 21.852C157.78 21.884 157.324 21.9 156.804 21.9H155.808ZM174.244 18.36C173.372 18.36 172.588 18.264 171.892 18.072C171.196 17.888 170.596 17.62 170.092 17.268C169.588 16.908 169.188 16.468 168.892 15.948C168.596 15.428 168.412 14.832 168.34 14.16H171.352C171.408 14.536 171.516 14.856 171.676 15.12C171.844 15.384 172.052 15.6 172.3 15.768C172.556 15.928 172.852 16.048 173.188 16.128C173.524 16.208 173.896 16.248 174.304 16.248C174.536 16.248 174.756 16.236 174.964 16.212C175.18 16.18 175.376 16.136 175.552 16.08C175.728 16.024 175.888 15.956 176.032 15.876C176.176 15.796 176.296 15.7 176.392 15.588C176.488 15.476 176.56 15.352 176.608 15.216C176.664 15.072 176.692 14.916 176.692 14.748V14.724C176.692 14.444 176.636 14.212 176.524 14.028C176.412 13.844 176.252 13.688 176.044 13.56C175.836 13.424 175.584 13.312 175.288 13.224C174.992 13.136 174.664 13.052 174.304 12.972L172.384 12.576C171.824 12.456 171.312 12.296 170.848 12.096C170.392 11.888 170 11.632 169.672 11.328C169.344 11.024 169.088 10.668 168.904 10.26C168.728 9.844 168.64 9.376 168.64 8.856V8.832C168.64 8.28 168.772 7.776 169.036 7.32C169.308 6.856 169.676 6.464 170.14 6.144C170.612 5.816 171.168 5.56 171.808 5.376C172.456 5.192 173.152 5.1 173.896 5.1C174.648 5.1 175.336 5.172 175.96 5.316C176.592 5.46 177.14 5.688 177.604 6C178.068 6.304 178.444 6.696 178.732 7.176C179.028 7.648 179.22 8.212 179.308 8.868H176.308C176.276 8.66 176.22 8.476 176.14 8.316C176.068 8.148 175.972 8.004 175.852 7.884C175.74 7.756 175.612 7.648 175.468 7.56C175.332 7.472 175.176 7.404 175 7.356C174.832 7.3 174.648 7.26 174.448 7.236C174.248 7.212 174.04 7.2 173.824 7.2C173.512 7.2 173.224 7.236 172.96 7.308C172.696 7.372 172.468 7.468 172.276 7.596C172.084 7.724 171.932 7.876 171.82 8.052C171.708 8.228 171.652 8.428 171.652 8.652V8.676C171.652 8.9 171.692 9.096 171.772 9.264C171.86 9.424 171.98 9.568 172.132 9.696C172.292 9.816 172.484 9.92 172.708 10.008C172.94 10.096 173.204 10.172 173.5 10.236L175.384 10.62C176.024 10.756 176.608 10.92 177.136 11.112C177.672 11.304 178.132 11.548 178.516 11.844C178.9 12.132 179.196 12.484 179.404 12.9C179.612 13.308 179.716 13.8 179.716 14.376V14.4C179.716 14.816 179.656 15.204 179.536 15.564C179.416 15.916 179.24 16.24 179.008 16.536C178.776 16.824 178.496 17.084 178.168 17.316C177.848 17.54 177.484 17.732 177.076 17.892C176.668 18.044 176.224 18.16 175.744 18.24C175.272 18.32 174.772 18.36 174.244 18.36Z" fill="#4041F6"/>
</svg>
