<svg width="102" height="56" viewBox="0 0 102 56" fill="none" xmlns="http://www.w3.org/2000/svg">
<path d="M60.4648 11.5458H63.4159V25.9317H60.4648V11.5458Z" fill="#06061A"/>
<path d="M69.7759 26.0548C69.2887 25.9316 68.8407 25.7524 68.4319 25.5172C68.0287 25.282 67.6647 24.9964 67.3455 24.666C67.0263 24.33 66.7576 23.9549 66.5392 23.5405C66.3208 23.1205 66.1528 22.6669 66.0408 22.1741C65.9232 21.6813 65.8672 21.155 65.8672 20.595V20.5726C65.8672 19.7438 65.996 18.9822 66.248 18.2935C66.5056 17.6047 66.8696 17.0111 67.3455 16.5127C67.8215 16.0143 68.3983 15.628 69.0759 15.3536C69.7535 15.0792 70.5094 14.9392 71.3438 14.9392C72.0942 14.9392 72.7661 15.04 73.3765 15.236C73.9813 15.432 74.5077 15.7064 74.9501 16.0591C75.3925 16.4119 75.7564 16.8263 76.042 17.3135C76.3276 17.8007 76.5292 18.3383 76.6468 18.9206H73.8077C73.7349 18.6126 73.6229 18.3495 73.4829 18.1199C73.3373 17.8903 73.1693 17.7055 72.9621 17.5543C72.7605 17.4031 72.5254 17.2911 72.2566 17.2183C71.9934 17.1455 71.7078 17.1063 71.3998 17.1063C71.0134 17.1063 70.6606 17.1847 70.347 17.3415C70.0334 17.4983 69.7646 17.7223 69.5351 18.0191C69.3055 18.3159 69.1319 18.6798 69.0087 19.111C68.8855 19.5422 68.8239 20.0294 68.8239 20.5726V20.595C68.8239 20.9646 68.8519 21.3062 68.9079 21.6197C68.9639 21.9333 69.0479 22.2245 69.1543 22.4821C69.2607 22.7397 69.3895 22.9693 69.5351 23.1653C69.6863 23.3613 69.8542 23.5293 70.0446 23.6637C70.235 23.7981 70.4422 23.9045 70.6662 23.9717C70.8902 24.0389 71.131 24.0725 71.3886 24.0725C71.6966 24.0725 71.9822 24.0333 72.2454 23.9605C72.5086 23.8877 72.7437 23.7701 72.9509 23.6189C73.1525 23.4677 73.3261 23.2773 73.4717 23.0477C73.6173 22.8181 73.7237 22.5549 73.7965 22.2581H76.6356C76.518 22.8349 76.322 23.3725 76.0308 23.8597C75.7396 24.3468 75.3813 24.7724 74.9389 25.1252C74.4965 25.478 73.9757 25.7524 73.3653 25.9484C72.7605 26.1444 72.083 26.2396 71.3326 26.2396C70.7838 26.2396 70.263 26.178 69.7759 26.0548Z" fill="#06061A"/>
<path d="M80.4453 26.0157C79.9581 25.8645 79.5325 25.6517 79.1741 25.3661C78.8157 25.0861 78.5414 24.7446 78.3398 24.3414C78.1438 23.9382 78.043 23.4902 78.043 22.9862V22.975C78.043 22.5886 78.0934 22.2414 78.1942 21.9279C78.295 21.6199 78.4462 21.3455 78.6478 21.0991C78.8493 20.8583 79.0957 20.6455 79.3981 20.4607C79.6949 20.2759 80.0421 20.1135 80.4397 19.9735C80.8317 19.8335 81.2741 19.7159 81.7556 19.6095C82.2372 19.5087 82.7636 19.4191 83.3348 19.3463C83.766 19.2903 84.1076 19.2343 84.3595 19.1783C84.6171 19.1224 84.8131 19.0496 84.9531 18.9656C85.0931 18.8816 85.1827 18.7808 85.2275 18.6632C85.2723 18.5456 85.2947 18.4 85.2947 18.2264V18.2096C85.2947 17.9688 85.2499 17.7672 85.1603 17.5992C85.0707 17.4312 84.9419 17.2856 84.7739 17.1736C84.6059 17.0616 84.3987 16.9776 84.1692 16.9216C83.934 16.8656 83.6708 16.8376 83.3796 16.8376C83.0604 16.8376 82.7692 16.8712 82.506 16.9384C82.2428 17.0056 82.0188 17.112 81.834 17.252C81.6492 17.3976 81.498 17.5768 81.3973 17.7952C81.2909 18.0136 81.2349 18.2712 81.2181 18.568H78.519C78.5302 17.9632 78.6645 17.4312 78.9109 16.9776C79.1573 16.524 79.4989 16.1433 79.9245 15.8353C80.3501 15.5273 80.8653 15.2977 81.4588 15.1409C82.0524 14.9841 82.702 14.9057 83.402 14.9057C84.1244 14.9057 84.7683 14.9673 85.3451 15.0849C85.9219 15.2025 86.4035 15.4041 86.8067 15.6897C87.2042 15.9753 87.5066 16.356 87.7194 16.832C87.9322 17.308 88.033 17.9016 88.033 18.6184L88.005 22.5662C88.005 22.9246 88.0106 23.2606 88.0218 23.5686C88.033 23.8766 88.0498 24.1622 88.0722 24.4366C88.0946 24.711 88.1282 24.9685 88.173 25.2093C88.2178 25.4557 88.2682 25.6909 88.3298 25.9261H85.5523C85.5411 25.8421 85.5243 25.7637 85.5187 25.6909C85.5075 25.6181 85.4963 25.5397 85.4907 25.4669C85.4795 25.3941 85.4739 25.3101 85.4627 25.2261C85.4571 25.1421 85.4515 25.0469 85.4515 24.9461C85.2723 25.1477 85.0763 25.3325 84.8467 25.4893C84.6227 25.6517 84.3707 25.7861 84.0908 25.8925C83.8108 25.9989 83.5028 26.0829 83.1612 26.1445C82.8196 26.2005 82.4444 26.2285 82.0412 26.2285C81.47 26.2397 80.9381 26.1613 80.4453 26.0157ZM83.5308 24.2126C83.7436 24.1734 83.934 24.123 84.1132 24.0502C84.2923 23.9774 84.4491 23.8878 84.5947 23.7814C84.7403 23.675 84.8579 23.5406 84.9587 23.395C85.0595 23.2438 85.1379 23.0758 85.1939 22.891C85.2499 22.7062 85.2779 22.499 85.2779 22.275V20.5391C85.0931 20.6063 84.9195 20.6679 84.7571 20.7183C84.5947 20.7687 84.4379 20.8191 84.2811 20.8639C84.13 20.9087 83.9788 20.9479 83.8388 20.9871C83.6932 21.0263 83.5588 21.0599 83.43 21.0935C83.122 21.1775 82.8532 21.2503 82.6124 21.3231C82.3716 21.3959 82.1644 21.4687 81.9852 21.5415C81.806 21.6143 81.6492 21.6983 81.526 21.7823C81.4028 21.8663 81.2965 21.9615 81.2181 22.0622C81.1397 22.163 81.0837 22.275 81.0445 22.3982C81.0053 22.5214 80.9885 22.6614 80.9885 22.8182V22.8294C80.9885 23.059 81.0333 23.2662 81.1229 23.4454C81.2125 23.6246 81.3356 23.7758 81.498 23.899C81.6604 24.0222 81.8564 24.1174 82.0916 24.179C82.3268 24.2462 82.59 24.2742 82.8812 24.2742C83.0996 24.2686 83.318 24.2518 83.5308 24.2126Z" fill="#06061A"/>
<path d="M93.7697 26.0773C93.3553 25.9709 92.9745 25.8029 92.6105 25.5901C92.2521 25.3717 91.9217 25.103 91.625 24.7894C91.3282 24.4758 91.0762 24.1062 90.8578 23.6862C90.645 23.2662 90.477 22.8014 90.365 22.2919C90.2474 21.7823 90.1914 21.2279 90.1914 20.6287V20.6063C90.1914 19.7103 90.3202 18.9096 90.5778 18.2152C90.8354 17.5152 91.1826 16.9328 91.625 16.4569C92.0617 15.9809 92.5769 15.6169 93.1705 15.3705C93.7641 15.1241 94.3857 14.9953 95.0464 14.9953C95.4272 14.9953 95.7856 15.0345 96.116 15.1129C96.452 15.1913 96.7544 15.3033 97.0344 15.4433C97.3144 15.5889 97.5607 15.7569 97.7847 15.9529C98.0031 16.1489 98.1879 16.3673 98.3279 16.5969V11.5458H101.173V25.9317H98.3279V24.6382C98.1823 24.8678 98.0031 25.0862 97.7847 25.2822C97.5663 25.4781 97.3144 25.6517 97.0344 25.7917C96.7544 25.9373 96.452 26.0437 96.116 26.1221C95.78 26.2005 95.4272 26.2397 95.0464 26.2397C94.6096 26.2397 94.1841 26.1837 93.7697 26.0773ZM96.5472 23.983C96.7768 23.9158 96.984 23.815 97.18 23.6862C97.3759 23.5574 97.5495 23.395 97.7063 23.199C97.8631 23.003 97.9919 22.779 98.0983 22.527C98.2047 22.2695 98.2831 21.9839 98.3447 21.6703C98.4007 21.3567 98.4287 21.0039 98.4287 20.6231V20.6007C98.4287 20.2199 98.4007 19.8727 98.3447 19.5536C98.2887 19.24 98.2047 18.9488 98.0983 18.6968C97.9919 18.4392 97.8631 18.2152 97.7063 18.0248C97.5495 17.8288 97.3759 17.672 97.18 17.5376C96.984 17.4088 96.7768 17.308 96.5472 17.2408C96.3176 17.1736 96.0712 17.14 95.808 17.14C95.5448 17.14 95.2984 17.1736 95.0688 17.2408C94.8392 17.308 94.632 17.4088 94.4361 17.5376C94.2401 17.6664 94.0665 17.8288 93.9097 18.0248C93.7529 18.2208 93.6241 18.4448 93.5177 18.6968C93.4113 18.9544 93.3329 19.24 93.2713 19.5536C93.2153 19.8671 93.1873 20.2199 93.1873 20.6007V20.6231C93.1873 21.0039 93.2153 21.3511 93.2713 21.6703C93.3273 21.9839 93.4113 22.2751 93.5177 22.527C93.6241 22.7846 93.7529 23.0086 93.9097 23.199C94.0665 23.395 94.2401 23.5518 94.4361 23.6862C94.632 23.815 94.8392 23.9158 95.0688 23.983C95.2984 24.0502 95.5448 24.0838 95.808 24.0838C96.0712 24.0838 96.3176 24.0502 96.5472 23.983Z" fill="#06061A"/>
<path d="M60.6523 29.8572H62.8139V42.356H69.8416V44.2431H60.6523V29.8572Z" fill="#3E3EFF"/>
<path d="M73.3709 44.3108C72.8893 44.1652 72.475 43.9524 72.1278 43.678C71.775 43.4036 71.5062 43.0677 71.3046 42.6701C71.1086 42.2725 71.0078 41.8245 71.0078 41.3261V41.3037C71.0078 40.9285 71.0582 40.5925 71.1534 40.2902C71.2542 39.9878 71.3998 39.719 71.5902 39.4782C71.7862 39.2374 72.027 39.0302 72.3182 38.851C72.6094 38.6718 72.9509 38.5094 73.3373 38.3694C73.7237 38.2294 74.1605 38.1118 74.6421 38.0054C75.1237 37.9046 75.6557 37.815 76.2324 37.7422C76.6748 37.6806 77.022 37.6191 77.2852 37.5575C77.5428 37.4959 77.7444 37.4175 77.8844 37.3279C78.0244 37.2383 78.114 37.1263 78.1532 36.9975C78.1924 36.8687 78.2148 36.7063 78.2148 36.5103V36.4879C78.2148 36.2247 78.1644 35.9951 78.0636 35.7991C77.9628 35.6031 77.8172 35.4407 77.6268 35.3119C77.4364 35.1775 77.2068 35.0823 76.9324 35.0151C76.658 34.9479 76.3556 34.9199 76.014 34.9199C75.6612 34.9199 75.3365 34.9591 75.0397 35.0319C74.7429 35.1047 74.4909 35.2223 74.2725 35.3847C74.0597 35.5471 73.8917 35.7431 73.7685 35.9895C73.6453 36.2303 73.5781 36.5215 73.5669 36.8631H71.4838C71.4838 36.2527 71.607 35.7207 71.8534 35.2783C72.0998 34.8304 72.4302 34.4664 72.8446 34.1752C73.2589 33.884 73.7405 33.6712 74.2949 33.5256C74.8437 33.38 75.4261 33.3128 76.0308 33.3128C76.6916 33.3128 77.2852 33.3744 77.8116 33.492C78.338 33.6096 78.7859 33.8056 79.1499 34.08C79.5139 34.3544 79.7939 34.7128 79.9843 35.1607C80.1803 35.6087 80.2755 36.1631 80.2755 36.8127L80.2531 40.7213C80.2531 41.1077 80.2587 41.4605 80.2643 41.7797C80.2699 42.0989 80.2867 42.4013 80.3091 42.6813C80.3315 42.9613 80.3651 43.2301 80.4099 43.4876C80.4547 43.7452 80.5051 43.9972 80.5667 44.2492H78.4948C78.4836 44.1596 78.4667 44.0756 78.4555 43.9972C78.4443 43.9188 78.4276 43.8404 78.4164 43.7564C78.4052 43.6724 78.394 43.5884 78.3884 43.4988C78.3828 43.4092 78.3772 43.314 78.366 43.2021C78.198 43.3924 78.002 43.5716 77.7892 43.734C77.5764 43.8964 77.33 44.0364 77.0556 44.154C76.7812 44.2716 76.4676 44.3612 76.1148 44.4284C75.762 44.4956 75.3701 44.5292 74.9277 44.5292C74.3677 44.5292 73.8525 44.4564 73.3709 44.3108ZM76.1876 42.8269C76.434 42.7821 76.6636 42.7205 76.8708 42.6309C77.078 42.5469 77.2684 42.4405 77.4364 42.3173C77.6044 42.1941 77.75 42.0429 77.8676 41.8749C77.9852 41.7069 78.0748 41.5165 78.1364 41.3037C78.2036 41.0909 78.2316 40.8613 78.2316 40.6093V38.683C78.03 38.7502 77.834 38.8118 77.6436 38.8734C77.4588 38.9294 77.2796 38.9854 77.106 39.0302C76.938 39.0806 76.77 39.1198 76.6132 39.1646C76.4508 39.2038 76.294 39.2486 76.1372 39.2878C75.762 39.3774 75.4317 39.4614 75.1405 39.5454C74.8493 39.6294 74.5973 39.7134 74.3789 39.803C74.1605 39.887 73.9757 39.9766 73.8301 40.0662C73.6789 40.1558 73.5613 40.2622 73.4661 40.3798C73.3765 40.4974 73.3093 40.6205 73.2645 40.7549C73.2253 40.8893 73.2029 41.0461 73.2029 41.2253V41.2365C73.2029 41.4997 73.2533 41.7405 73.3485 41.9477C73.4493 42.1549 73.5893 42.3285 73.7797 42.4741C73.9645 42.6197 74.1941 42.7261 74.4685 42.7933C74.7429 42.8661 75.0509 42.8997 75.3981 42.8997C75.678 42.8941 75.9356 42.8717 76.1876 42.8269Z" fill="#3E3EFF"/>
<path d="M85.4471 44.2931C84.8815 44.1363 84.3943 43.9067 83.9855 43.6099C83.5767 43.3131 83.2519 42.9435 83.0055 42.5011C82.7591 42.0587 82.6024 41.5604 82.5352 40.9948H84.6183C84.6743 41.342 84.7751 41.6388 84.9319 41.8852C85.0887 42.1315 85.2791 42.3331 85.5199 42.4899C85.7606 42.6467 86.035 42.7587 86.3486 42.8315C86.6622 42.9043 87.015 42.9379 87.407 42.9379C87.6254 42.9379 87.8326 42.9267 88.0342 42.9043C88.2358 42.8819 88.4205 42.8427 88.5829 42.7867C88.7509 42.7307 88.9021 42.6691 89.0365 42.5907C89.1709 42.5179 89.2885 42.4227 89.3781 42.3163C89.4677 42.2099 89.5405 42.0867 89.5909 41.9524C89.6413 41.818 89.6693 41.6724 89.6693 41.51V41.4876C89.6693 41.2244 89.6133 41.0004 89.5069 40.8268C89.4005 40.6476 89.2493 40.502 89.0533 40.3788C88.8573 40.2556 88.6277 40.1548 88.359 40.0708C88.0902 39.9868 87.7934 39.914 87.4742 39.8468L85.9118 39.5108C85.4751 39.4156 85.0719 39.2868 84.6911 39.1189C84.3159 38.9509 83.9855 38.7437 83.7111 38.4973C83.4367 38.2509 83.2183 37.9541 83.0615 37.6069C82.9047 37.2597 82.8264 36.8621 82.8264 36.4141V36.3917C82.8264 35.9382 82.9327 35.5182 83.1511 35.143C83.3695 34.7678 83.6663 34.443 84.0471 34.1742C84.4279 33.9054 84.8759 33.6982 85.3967 33.5471C85.9118 33.3959 86.4718 33.3231 87.071 33.3231C87.6646 33.3231 88.2078 33.3847 88.7061 33.5023C89.2045 33.6198 89.6469 33.8046 90.0221 34.0566C90.3973 34.3086 90.7053 34.6334 90.9461 35.031C91.1869 35.4286 91.338 35.9046 91.4164 36.4533H89.3333C89.2997 36.2518 89.2437 36.0726 89.1709 35.9158C89.0981 35.7646 89.0029 35.6302 88.8965 35.5126C88.7901 35.395 88.6669 35.2998 88.5269 35.2214C88.3925 35.143 88.2414 35.0814 88.079 35.031C87.9166 34.9862 87.743 34.947 87.5526 34.9302C87.3678 34.9078 87.1718 34.9022 86.9646 34.9022C86.6734 34.9022 86.399 34.9358 86.1414 34.9974C85.8838 35.0646 85.6655 35.1542 85.4807 35.2718C85.2959 35.3894 85.1503 35.535 85.0495 35.703C84.9431 35.871 84.8927 36.067 84.8927 36.2854V36.3078C84.8927 36.5093 84.9319 36.6941 85.0047 36.8509C85.0775 37.0077 85.1839 37.1421 85.3239 37.2597C85.4639 37.3773 85.6374 37.4725 85.839 37.5565C86.0406 37.6405 86.2758 37.7077 86.5334 37.7581L88.0846 38.0941C88.5941 38.2005 89.0701 38.3349 89.5181 38.4861C89.9661 38.6373 90.3525 38.8333 90.6829 39.0741C91.0133 39.3148 91.2708 39.606 91.4556 39.9532C91.6404 40.3004 91.7356 40.726 91.7356 41.23V41.2524C91.7356 41.5996 91.6852 41.9244 91.5844 42.2211C91.4836 42.5179 91.338 42.7923 91.1533 43.0387C90.9685 43.2851 90.7389 43.4979 90.4757 43.6883C90.2125 43.8731 89.9157 44.0299 89.5853 44.1587C89.2605 44.2819 88.9077 44.3771 88.5269 44.4443C88.1462 44.5115 87.7486 44.5395 87.3342 44.5395C86.6454 44.5283 86.0126 44.4499 85.4471 44.2931Z" fill="#3E3EFF"/>
<path d="M96.1996 44.0806C95.8132 43.9742 95.5108 43.8006 95.2868 43.5598C95.0628 43.319 94.906 42.9998 94.8164 42.6022C94.7268 42.2046 94.682 41.7175 94.682 41.1407V35.3841H93.0469V33.6089H94.682V30.2435H96.7651V33.6089H99.0387V35.3841H96.7651V41.0959C96.7651 41.3479 96.7763 41.5607 96.8043 41.7399C96.8323 41.9191 96.8883 42.0591 96.9779 42.1654C97.0675 42.2718 97.1963 42.3502 97.3587 42.395C97.5267 42.4454 97.7451 42.4678 98.0195 42.4678H98.9603V44.243H97.6723C97.0731 44.243 96.5803 44.187 96.1996 44.0806Z" fill="#3E3EFF"/>
<path d="M33.0156 10.3897V56.0001L48.2639 47.0852V19.3046L33.0156 10.3897Z" fill="#D8D8FF"/>
<path d="M15.2483 27.7806V0L0 8.91488V36.6955L15.2483 27.7806Z" fill="#9999FF"/>
<path d="M15.2483 27.7805L48.2703 47.083L33.022 55.9979L0 36.6954L15.2483 27.7805Z" fill="#181863"/>
<path d="M15.2483 0L48.2703 19.3025L33.022 28.2174L0 8.91489L15.2483 0Z" fill="#3E3EFF"/>
</svg>
