<svg width="153" height="50" viewBox="0 0 153 50" fill="none" xmlns="http://www.w3.org/2000/svg">
<path d="M54.1055 10.3339H56.7405V23.1788H54.1055V10.3339Z" fill="#06061A"/>
<path d="M62.4295 23.2889C61.9945 23.1789 61.5945 23.0189 61.2295 22.8089C60.8695 22.5989 60.5445 22.3439 60.2595 22.0489C59.9745 21.7489 59.7345 21.4139 59.5395 21.0439C59.3445 20.6689 59.1945 20.2639 59.0945 19.8239C58.9895 19.3839 58.9395 18.9139 58.9395 18.4139V18.3939C58.9395 17.6539 59.0545 16.9739 59.2795 16.3589C59.5095 15.7439 59.8345 15.2139 60.2595 14.7689C60.6845 14.3239 61.1995 13.9789 61.8045 13.7339C62.4095 13.4889 63.0844 13.3639 63.8294 13.3639C64.4994 13.3639 65.0994 13.4539 65.6444 13.6289C66.1844 13.8039 66.6544 14.0489 67.0494 14.3639C67.4444 14.6789 67.7694 15.0489 68.0244 15.4839C68.2794 15.9189 68.4594 16.3989 68.5644 16.9189H66.0294C65.9644 16.6439 65.8644 16.4089 65.7394 16.2039C65.6094 15.9989 65.4594 15.8339 65.2744 15.6989C65.0944 15.5639 64.8844 15.4639 64.6444 15.3989C64.4094 15.3339 64.1544 15.2989 63.8794 15.2989C63.5344 15.2989 63.2194 15.3689 62.9394 15.5089C62.6594 15.6489 62.4194 15.8489 62.2144 16.1139C62.0094 16.3789 61.8544 16.7039 61.7444 17.0889C61.6344 17.4739 61.5795 17.9089 61.5795 18.3939V18.4139C61.5795 18.7439 61.6045 19.0489 61.6545 19.3289C61.7045 19.6089 61.7795 19.8689 61.8745 20.0989C61.9695 20.3289 62.0844 20.5339 62.2144 20.7089C62.3494 20.8839 62.4994 21.0339 62.6694 21.1539C62.8394 21.2739 63.0245 21.3689 63.2245 21.4289C63.4245 21.4889 63.6394 21.5189 63.8694 21.5189C64.1444 21.5189 64.3994 21.4839 64.6344 21.4189C64.8694 21.3539 65.0794 21.2489 65.2644 21.1139C65.4444 20.9789 65.5994 20.8089 65.7294 20.6039C65.8594 20.3989 65.9544 20.1639 66.0194 19.8989H68.5544C68.4494 20.4139 68.2744 20.8939 68.0144 21.3289C67.7544 21.7639 67.4344 22.1439 67.0394 22.4589C66.6444 22.7739 66.1794 23.0189 65.6344 23.1939C65.0944 23.3689 64.4894 23.4539 63.8194 23.4539C63.3344 23.4539 62.8644 23.3989 62.4295 23.2889Z" fill="#06061A"/>
<path d="M71.9516 23.2537C71.5166 23.1187 71.1366 22.9287 70.8166 22.6737C70.4966 22.4237 70.2516 22.1187 70.0716 21.7587C69.8966 21.3987 69.8066 20.9987 69.8066 20.5487V20.5387C69.8066 20.1937 69.8516 19.8837 69.9416 19.6037C70.0316 19.3287 70.1666 19.0837 70.3466 18.8637C70.5266 18.6487 70.7466 18.4587 71.0166 18.2937C71.2816 18.1287 71.5916 17.9837 71.9466 17.8587C72.2966 17.7337 72.6916 17.6287 73.1216 17.5337C73.5516 17.4437 74.0216 17.3637 74.5316 17.2987C74.9166 17.2487 75.2216 17.1987 75.4466 17.1487C75.6766 17.0987 75.8516 17.0337 75.9766 16.9587C76.1016 16.8837 76.1816 16.7937 76.2216 16.6887C76.2616 16.5837 76.2816 16.4537 76.2816 16.2987V16.2837C76.2816 16.0737 76.2416 15.8887 76.1616 15.7387C76.0816 15.5887 75.9666 15.4587 75.8166 15.3587C75.6666 15.2587 75.4816 15.1837 75.2766 15.1337C75.0666 15.0837 74.8316 15.0587 74.5716 15.0587C74.2866 15.0587 74.0266 15.0887 73.7916 15.1487C73.5566 15.2087 73.3566 15.3037 73.1916 15.4287C73.0266 15.5587 72.8916 15.7187 72.8016 15.9137C72.7066 16.1087 72.6566 16.3387 72.6416 16.6037H70.2316C70.2416 16.0637 70.3616 15.5887 70.5816 15.1837C70.8016 14.7787 71.1066 14.4387 71.4866 14.1637C71.8716 13.8887 72.3266 13.6837 72.8566 13.5437C73.3866 13.4037 73.9666 13.3337 74.5916 13.3337C75.2366 13.3337 75.8116 13.3887 76.3266 13.4937C76.8416 13.5987 77.2716 13.7787 77.6316 14.0337C77.9866 14.2887 78.2566 14.6287 78.4466 15.0537C78.6366 15.4787 78.7266 16.0087 78.7266 16.6487L78.7016 20.1737C78.7016 20.4937 78.7066 20.7937 78.7166 21.0687C78.7266 21.3437 78.7416 21.5987 78.7616 21.8437C78.7816 22.0887 78.8116 22.3187 78.8516 22.5337C78.8916 22.7537 78.9366 22.9637 78.9916 23.1737H76.5116C76.5016 23.0987 76.4866 23.0287 76.4816 22.9637C76.4716 22.8987 76.4616 22.8287 76.4566 22.7637C76.4466 22.6987 76.4416 22.6237 76.4316 22.5487C76.4266 22.4737 76.4216 22.3887 76.4216 22.2987C76.2616 22.4787 76.0866 22.6437 75.8816 22.7837C75.6816 22.9287 75.4566 23.0487 75.2066 23.1437C74.9566 23.2387 74.6816 23.3137 74.3766 23.3687C74.0716 23.4187 73.7366 23.4437 73.3766 23.4437C72.8666 23.4537 72.3916 23.3837 71.9516 23.2537ZM74.7066 21.6437C74.8966 21.6087 75.0666 21.5637 75.2266 21.4987C75.3866 21.4337 75.5266 21.3537 75.6566 21.2587C75.7866 21.1637 75.8916 21.0437 75.9816 20.9137C76.0716 20.7787 76.1416 20.6287 76.1916 20.4637C76.2416 20.2987 76.2666 20.1137 76.2666 19.9137V18.3637C76.1016 18.4237 75.9466 18.4787 75.8016 18.5237C75.6566 18.5687 75.5166 18.6137 75.3766 18.6537C75.2416 18.6937 75.1066 18.7287 74.9816 18.7637C74.8516 18.7987 74.7316 18.8287 74.6166 18.8587C74.3416 18.9337 74.1016 18.9987 73.8866 19.0637C73.6716 19.1287 73.4866 19.1937 73.3266 19.2587C73.1666 19.3237 73.0266 19.3987 72.9166 19.4737C72.8066 19.5487 72.7116 19.6337 72.6416 19.7237C72.5716 19.8137 72.5216 19.9137 72.4866 20.0237C72.4516 20.1337 72.4366 20.2587 72.4366 20.3987V20.4087C72.4366 20.6137 72.4766 20.7987 72.5566 20.9587C72.6366 21.1187 72.7466 21.2537 72.8916 21.3637C73.0366 21.4737 73.2116 21.5587 73.4216 21.6137C73.6316 21.6737 73.8666 21.6987 74.1266 21.6987C74.3216 21.6937 74.5166 21.6787 74.7066 21.6437Z" fill="#06061A"/>
<path d="M83.8376 23.3088C83.4676 23.2138 83.1276 23.0638 82.8026 22.8738C82.4826 22.6788 82.1876 22.4388 81.9226 22.1588C81.6576 21.8788 81.4326 21.5488 81.2376 21.1738C81.0476 20.7988 80.8976 20.3839 80.7976 19.9289C80.6926 19.4739 80.6426 18.9789 80.6426 18.4439V18.4239C80.6426 17.6239 80.7576 16.9089 80.9876 16.2889C81.2176 15.6639 81.5276 15.1439 81.9226 14.7189C82.3126 14.2939 82.7726 13.9689 83.3026 13.7489C83.8326 13.5289 84.3876 13.4139 84.9776 13.4139C85.3176 13.4139 85.6376 13.4489 85.9326 13.5189C86.2326 13.5889 86.5026 13.6889 86.7526 13.8139C87.0026 13.9439 87.2226 14.0939 87.4226 14.2689C87.6176 14.4439 87.7826 14.6389 87.9076 14.8439V10.3339H90.4476V23.1788H87.9076V22.0238C87.7776 22.2288 87.6176 22.4238 87.4226 22.5988C87.2276 22.7738 87.0026 22.9288 86.7526 23.0538C86.5026 23.1838 86.2326 23.2788 85.9326 23.3488C85.6326 23.4188 85.3176 23.4538 84.9776 23.4538C84.5876 23.4538 84.2076 23.4038 83.8376 23.3088ZM86.3176 21.4388C86.5226 21.3788 86.7076 21.2888 86.8826 21.1738C87.0576 21.0588 87.2126 20.9138 87.3526 20.7388C87.4926 20.5638 87.6076 20.3638 87.7026 20.1388C87.7976 19.9088 87.8676 19.6538 87.9226 19.3739C87.9726 19.0939 87.9976 18.7789 87.9976 18.4389V18.4189C87.9976 18.0789 87.9726 17.7689 87.9226 17.4839C87.8726 17.2039 87.7976 16.9439 87.7026 16.7189C87.6076 16.4889 87.4926 16.2889 87.3526 16.1189C87.2126 15.9439 87.0576 15.8039 86.8826 15.6839C86.7076 15.5689 86.5226 15.4789 86.3176 15.4189C86.1126 15.3589 85.8926 15.3289 85.6576 15.3289C85.4226 15.3289 85.2026 15.3589 84.9976 15.4189C84.7926 15.4789 84.6076 15.5689 84.4326 15.6839C84.2576 15.7989 84.1026 15.9439 83.9626 16.1189C83.8226 16.2939 83.7076 16.4939 83.6126 16.7189C83.5176 16.9489 83.4476 17.2039 83.3926 17.4839C83.3426 17.7639 83.3176 18.0789 83.3176 18.4189V18.4389C83.3176 18.7789 83.3426 19.0889 83.3926 19.3739C83.4426 19.6538 83.5176 19.9138 83.6126 20.1388C83.7076 20.3688 83.8226 20.5688 83.9626 20.7388C84.1026 20.9138 84.2576 21.0538 84.4326 21.1738C84.6076 21.2888 84.7926 21.3788 84.9976 21.4388C85.2026 21.4988 85.4226 21.5288 85.6576 21.5288C85.8926 21.5288 86.1126 21.4988 86.3176 21.4388Z" fill="#06061A"/>
<path d="M53.0664 26.6838H55.1364L58.0864 37.4888H57.9214L60.4364 26.6838H63.1614L65.7114 37.4788H65.6214L68.5364 26.6838H70.5314L67.0214 39.5288H64.4264L61.7564 28.3938H61.8464L59.2114 39.5288H56.6164L53.0664 26.6838Z" fill="#3E3EFF"/>
<path d="M74.5793 39.404C73.9893 39.154 73.4843 38.804 73.0693 38.359C72.6543 37.914 72.3343 37.389 72.1143 36.774C71.8943 36.159 71.7793 35.494 71.7793 34.779V34.759C71.7793 34.034 71.8893 33.369 72.1143 32.764C72.3343 32.159 72.6543 31.629 73.0693 31.184C73.4843 30.739 73.9893 30.389 74.5793 30.139C75.1693 29.889 75.8393 29.764 76.5793 29.764C77.3193 29.764 77.9893 29.889 78.5843 30.139C79.1793 30.389 79.6843 30.734 80.0943 31.184C80.5093 31.629 80.8243 32.159 81.0443 32.764C81.2643 33.369 81.3793 34.034 81.3793 34.759V34.779C81.3793 35.494 81.2693 36.159 81.0443 36.774C80.8243 37.389 80.5043 37.914 80.0943 38.359C79.6793 38.804 79.1793 39.149 78.5843 39.404C77.9893 39.654 77.3193 39.784 76.5793 39.784C75.8393 39.784 75.1743 39.659 74.5793 39.404ZM77.8143 37.989C78.1693 37.819 78.4643 37.579 78.7043 37.274C78.9393 36.969 79.1193 36.604 79.2393 36.179C79.3593 35.759 79.4193 35.289 79.4193 34.779V34.759C79.4193 34.249 79.3593 33.784 79.2393 33.359C79.1193 32.939 78.9443 32.574 78.7043 32.269C78.4693 31.964 78.1693 31.729 77.8143 31.559C77.4593 31.389 77.0493 31.304 76.5793 31.304C76.1093 31.304 75.6993 31.389 75.3443 31.559C74.9893 31.729 74.6943 31.964 74.4543 32.269C74.2193 32.574 74.0393 32.934 73.9193 33.359C73.7993 33.779 73.7393 34.249 73.7393 34.759V34.779C73.7393 35.289 73.7993 35.754 73.9193 36.179C74.0393 36.599 74.2143 36.964 74.4543 37.274C74.6893 37.579 74.9893 37.819 75.3443 37.989C75.6993 38.159 76.1093 38.244 76.5793 38.244C77.0493 38.244 77.4593 38.159 77.8143 37.989Z" fill="#3E3EFF"/>
<path d="M83.6543 30.034H85.5143V31.719C85.6543 31.444 85.8193 31.199 86.0143 30.979C86.2093 30.759 86.4343 30.569 86.6893 30.414C86.9443 30.259 87.2293 30.139 87.5443 30.059C87.8593 29.979 88.2043 29.934 88.5743 29.934H88.7493V31.749H88.2493C87.8193 31.749 87.4343 31.799 87.0993 31.904C86.7643 32.009 86.4743 32.169 86.2443 32.394C86.0093 32.619 85.8293 32.909 85.7043 33.269C85.5793 33.629 85.5193 34.064 85.5193 34.574V39.5289H83.6593V30.034H83.6543Z" fill="#3E3EFF"/>
<path d="M90.5714 26.6838H92.4314V34.3188L92.2314 34.2088L96.9664 30.0338H99.2514L93.8114 34.6988L93.8014 34.1788L99.5664 39.5288H96.9164L91.9614 34.8988L92.4264 34.7888V39.5238H90.5664V26.6838H90.5714Z" fill="#3E3EFF"/>
<path d="M102.772 39.5743C102.267 39.4343 101.832 39.2293 101.467 38.9643C101.102 38.6993 100.812 38.3693 100.592 37.9743C100.372 37.5793 100.232 37.1343 100.172 36.6293H102.032C102.082 36.9393 102.172 37.2043 102.312 37.4243C102.452 37.6443 102.622 37.8243 102.837 37.9643C103.052 38.1043 103.297 38.2043 103.582 38.2693C103.867 38.3343 104.177 38.3643 104.527 38.3643C104.722 38.3643 104.907 38.3543 105.087 38.3343C105.267 38.3143 105.432 38.2793 105.577 38.2293C105.727 38.1793 105.862 38.1243 105.982 38.0543C106.102 37.9893 106.207 37.9043 106.287 37.8093C106.367 37.7143 106.432 37.6043 106.477 37.4843C106.522 37.3643 106.547 37.2343 106.547 37.0893V37.0693C106.547 36.8343 106.497 36.6343 106.402 36.4793C106.307 36.3193 106.172 36.1893 105.997 36.0793C105.822 35.9693 105.617 35.8793 105.377 35.8043C105.137 35.7293 104.872 35.6643 104.587 35.6043L103.192 35.3043C102.802 35.2193 102.442 35.1043 102.102 34.9543C101.767 34.8043 101.472 34.6193 101.227 34.3993C100.982 34.1793 100.787 33.9143 100.647 33.6043C100.507 33.2943 100.437 32.9393 100.437 32.5393V32.5193C100.437 32.1143 100.532 31.7393 100.727 31.4043C100.922 31.0693 101.187 30.7793 101.527 30.5393C101.867 30.2993 102.267 30.1143 102.732 29.9793C103.192 29.8443 103.692 29.7793 104.227 29.7793C104.757 29.7793 105.242 29.8343 105.687 29.9393C106.132 30.0443 106.527 30.2093 106.862 30.4343C107.197 30.6593 107.472 30.9493 107.687 31.3043C107.902 31.6593 108.037 32.0843 108.107 32.5743H106.247C106.217 32.3943 106.167 32.2343 106.102 32.0943C106.037 31.9593 105.952 31.8393 105.857 31.7343C105.762 31.6293 105.652 31.5443 105.527 31.4743C105.407 31.4043 105.272 31.3493 105.127 31.3043C104.982 31.2643 104.827 31.2293 104.657 31.2143C104.492 31.1943 104.317 31.1893 104.132 31.1893C103.872 31.1893 103.627 31.2193 103.397 31.2743C103.167 31.3343 102.972 31.4143 102.807 31.5193C102.642 31.6243 102.512 31.7543 102.422 31.9043C102.327 32.0543 102.282 32.2293 102.282 32.4243V32.4443C102.282 32.6243 102.317 32.7893 102.382 32.9293C102.447 33.0693 102.542 33.1893 102.667 33.2943C102.792 33.3993 102.947 33.4843 103.127 33.5593C103.307 33.6343 103.517 33.6943 103.747 33.7393L105.132 34.0393C105.587 34.1343 106.012 34.2543 106.412 34.3893C106.812 34.5243 107.157 34.6993 107.452 34.9143C107.747 35.1293 107.977 35.3893 108.142 35.6993C108.307 36.0093 108.392 36.3893 108.392 36.8393V36.8593C108.392 37.1693 108.347 37.4593 108.257 37.7243C108.167 37.9893 108.037 38.2343 107.872 38.4543C107.707 38.6743 107.502 38.8643 107.267 39.0343C107.032 39.1993 106.767 39.3393 106.472 39.4543C106.182 39.5643 105.867 39.6493 105.527 39.7093C105.187 39.7693 104.832 39.7943 104.462 39.7943C103.842 39.7843 103.277 39.7143 102.772 39.5743Z" fill="#3E3EFF"/>
<path d="M114.498 39.6743C114.193 39.5993 113.913 39.4993 113.658 39.3643C113.403 39.2293 113.173 39.0693 112.968 38.8843C112.763 38.6993 112.588 38.4993 112.448 38.2793V42.4893H110.588V30.0343H112.448V31.2843C112.588 31.0643 112.763 30.8643 112.968 30.6793C113.173 30.4943 113.403 30.3343 113.658 30.1993C113.913 30.0643 114.193 29.9643 114.498 29.8893C114.803 29.8143 115.123 29.7793 115.453 29.7793C115.858 29.7793 116.253 29.8293 116.628 29.9293C117.003 30.0293 117.358 30.1793 117.683 30.3693C118.013 30.5643 118.313 30.8043 118.583 31.0893C118.858 31.3743 119.088 31.7043 119.278 32.0743C119.468 32.4443 119.618 32.8543 119.723 33.3043C119.828 33.7543 119.883 34.2443 119.883 34.7693V34.7893C119.883 35.5793 119.768 36.2843 119.533 36.8993C119.298 37.5143 118.983 38.0393 118.583 38.4643C118.183 38.8893 117.713 39.2193 117.173 39.4443C116.633 39.6693 116.058 39.7793 115.448 39.7793C115.123 39.7843 114.803 39.7443 114.498 39.6743ZM115.918 38.1393C116.158 38.0743 116.378 37.9793 116.583 37.8543C116.788 37.7243 116.973 37.5693 117.138 37.3743C117.303 37.1843 117.448 36.9593 117.563 36.7043C117.678 36.4493 117.768 36.1643 117.833 35.8443C117.898 35.5243 117.928 35.1743 117.928 34.7943V34.7743C117.928 34.3893 117.898 34.0393 117.833 33.7243C117.768 33.4043 117.678 33.1193 117.563 32.8643C117.448 32.6093 117.308 32.3843 117.138 32.1943C116.973 32.0043 116.788 31.8443 116.583 31.7143C116.378 31.5843 116.158 31.4893 115.918 31.4293C115.678 31.3643 115.423 31.3343 115.158 31.3343C114.898 31.3343 114.648 31.3643 114.408 31.4293C114.168 31.4943 113.943 31.5893 113.738 31.7143C113.533 31.8443 113.343 31.9993 113.178 32.1943C113.013 32.3843 112.868 32.6093 112.753 32.8643C112.638 33.1193 112.548 33.4043 112.483 33.7243C112.418 34.0443 112.388 34.3943 112.388 34.7743V34.7943C112.388 35.1793 112.418 35.5293 112.483 35.8443C112.548 36.1643 112.638 36.4493 112.753 36.7043C112.868 36.9593 113.008 37.1843 113.178 37.3743C113.343 37.5643 113.533 37.7243 113.738 37.8543C113.943 37.9843 114.168 38.0793 114.408 38.1393C114.648 38.2043 114.898 38.2343 115.158 38.2343C115.423 38.2343 115.678 38.2043 115.918 38.1393Z" fill="#3E3EFF"/>
<path d="M123.587 39.5891C123.157 39.4591 122.787 39.2692 122.477 39.0242C122.162 38.7792 121.922 38.4792 121.742 38.1242C121.567 37.7692 121.477 37.3692 121.477 36.9242V36.9042C121.477 36.5692 121.522 36.2692 121.607 35.9992C121.697 35.7292 121.827 35.4892 121.997 35.2742C122.172 35.0592 122.387 34.8742 122.647 34.7142C122.907 34.5542 123.212 34.4092 123.557 34.2842C123.902 34.1592 124.292 34.0542 124.722 33.9592C125.152 33.8692 125.627 33.7892 126.142 33.7242C126.537 33.6692 126.847 33.6142 127.082 33.5592C127.312 33.5042 127.492 33.4342 127.617 33.3542C127.742 33.2742 127.822 33.1742 127.857 33.0592C127.892 32.9442 127.912 32.7992 127.912 32.6242V32.6042C127.912 32.3692 127.867 32.1642 127.777 31.9892C127.687 31.8142 127.557 31.6692 127.387 31.5542C127.217 31.4342 127.012 31.3492 126.767 31.2892C126.522 31.2292 126.252 31.2042 125.947 31.2042C125.632 31.2042 125.342 31.2392 125.077 31.3042C124.812 31.3692 124.587 31.4742 124.392 31.6192C124.202 31.7642 124.052 31.9392 123.942 32.1592C123.832 32.3742 123.772 32.6342 123.762 32.9392H121.902C121.902 32.3942 122.012 31.9192 122.232 31.5242C122.452 31.1242 122.747 30.7992 123.117 30.5392C123.487 30.2792 123.917 30.0892 124.412 29.9592C124.907 29.8292 125.422 29.7692 125.962 29.7692C126.552 29.7692 127.082 29.8242 127.552 29.9292C128.022 30.0342 128.422 30.2092 128.747 30.4542C129.072 30.6992 129.322 31.0192 129.492 31.4192C129.667 31.8192 129.752 32.3142 129.752 32.8942L129.732 36.3842C129.732 36.7292 129.737 37.0442 129.742 37.3342C129.747 37.6192 129.762 37.8892 129.782 38.1392C129.802 38.3892 129.832 38.6292 129.872 38.8592C129.912 39.0892 129.957 39.3141 130.012 39.5391H128.162C128.152 39.4591 128.137 39.3841 128.127 39.3141C128.117 39.2442 128.102 39.1742 128.092 39.0992C128.082 39.0242 128.072 38.9492 128.067 38.8692C128.062 38.7892 128.057 38.7042 128.047 38.6042C127.897 38.7742 127.722 38.9342 127.532 39.0792C127.342 39.2242 127.122 39.3492 126.877 39.4542C126.632 39.5592 126.352 39.6391 126.037 39.6992C125.722 39.7591 125.372 39.7891 124.977 39.7891C124.477 39.7841 124.017 39.7191 123.587 39.5891ZM126.102 38.2642C126.322 38.2242 126.527 38.1692 126.712 38.0892C126.897 38.0142 127.067 37.9192 127.217 37.8092C127.367 37.6992 127.497 37.5642 127.602 37.4142C127.707 37.2642 127.787 37.0942 127.842 36.9042C127.902 36.7142 127.927 36.5092 127.927 36.2842V34.5642C127.747 34.6242 127.572 34.6792 127.402 34.7342C127.237 34.7842 127.077 34.8342 126.922 34.8742C126.772 34.9192 126.622 34.9542 126.482 34.9942C126.337 35.0292 126.197 35.0692 126.057 35.1042C125.722 35.1842 125.427 35.2592 125.167 35.3342C124.907 35.4092 124.682 35.4842 124.487 35.5642C124.292 35.6392 124.127 35.7192 123.997 35.7992C123.862 35.8792 123.757 35.9742 123.672 36.0792C123.592 36.1842 123.532 36.2942 123.492 36.4142C123.457 36.5342 123.437 36.6742 123.437 36.8342V36.8442C123.437 37.0792 123.482 37.2942 123.567 37.4792C123.657 37.6642 123.782 37.8192 123.952 37.9492C124.117 38.0792 124.322 38.1742 124.567 38.2342C124.812 38.2992 125.087 38.3292 125.397 38.3292C125.647 38.3242 125.877 38.3042 126.102 38.2642Z" fill="#3E3EFF"/>
<path d="M135.281 39.6142C134.861 39.5042 134.481 39.3442 134.131 39.1342C133.786 38.9292 133.471 38.6742 133.196 38.3792C132.921 38.0792 132.686 37.7492 132.501 37.3792C132.311 37.0092 132.166 36.6042 132.066 36.1692C131.966 35.7342 131.916 35.2692 131.916 34.7842V34.7642C131.916 34.0342 132.026 33.3642 132.251 32.7492C132.471 32.1342 132.791 31.6092 133.196 31.1692C133.606 30.7292 134.101 30.3842 134.681 30.1392C135.261 29.8942 135.911 29.7692 136.626 29.7692C137.241 29.7692 137.801 29.8492 138.306 30.0142C138.811 30.1792 139.256 30.4092 139.636 30.7042C140.016 30.9992 140.331 31.3542 140.581 31.7642C140.831 32.1792 141.011 32.6342 141.116 33.1292H139.221C139.141 32.8392 139.026 32.5792 138.871 32.3492C138.716 32.1192 138.526 31.9292 138.306 31.7742C138.086 31.6192 137.836 31.5042 137.556 31.4242C137.276 31.3442 136.971 31.3042 136.646 31.3042C136.246 31.3042 135.876 31.3792 135.541 31.5342C135.206 31.6892 134.911 31.9142 134.666 32.2092C134.421 32.5042 134.231 32.8642 134.091 33.2942C133.956 33.7242 133.886 34.2092 133.886 34.7542V34.7742C133.886 35.1392 133.916 35.4792 133.981 35.7892C134.046 36.1042 134.136 36.3892 134.251 36.6442C134.366 36.9042 134.506 37.1292 134.671 37.3292C134.836 37.5242 135.021 37.6942 135.221 37.8242C135.426 37.9592 135.646 38.0592 135.886 38.1292C136.126 38.1992 136.381 38.2342 136.646 38.2342C136.976 38.2342 137.276 38.1942 137.556 38.1092C137.836 38.0292 138.086 37.9092 138.306 37.7542C138.526 37.5992 138.716 37.4092 138.871 37.1792C139.026 36.9492 139.141 36.6942 139.221 36.3992H141.116C141.011 36.8992 140.836 37.3542 140.581 37.7642C140.331 38.1792 140.011 38.5342 139.636 38.8292C139.256 39.1292 138.811 39.3592 138.306 39.5192C137.801 39.6842 137.241 39.7641 136.626 39.7641C136.146 39.7842 135.696 39.7241 135.281 39.6142Z" fill="#3E3EFF"/>
<path d="M146.006 39.6093C145.571 39.4943 145.171 39.3293 144.816 39.1143C144.461 38.8993 144.146 38.6393 143.866 38.3393C143.591 38.0393 143.356 37.6993 143.171 37.3293C142.981 36.9543 142.841 36.5543 142.741 36.1193C142.646 35.6843 142.596 35.2293 142.596 34.7493V34.7293C142.596 33.9843 142.716 33.3043 142.956 32.6993C143.196 32.0943 143.526 31.5693 143.956 31.1393C144.381 30.7043 144.886 30.3693 145.466 30.1343C146.051 29.8993 146.681 29.7793 147.361 29.7793C147.866 29.7793 148.336 29.8393 148.771 29.9643C149.206 30.0893 149.596 30.2693 149.951 30.5043C150.301 30.7393 150.616 31.0193 150.886 31.3493C151.156 31.6793 151.381 32.0443 151.561 32.4543C151.741 32.8643 151.871 33.3093 151.951 33.7943C152.031 34.2793 152.066 34.7843 152.046 35.3193V35.3293H143.946L143.926 33.8243H150.076V33.8143C150.056 33.5693 150.016 33.3393 149.951 33.1143C149.886 32.8893 149.801 32.6843 149.686 32.4943C149.576 32.3043 149.441 32.1343 149.286 31.9843C149.131 31.8343 148.956 31.7043 148.756 31.5943C148.561 31.4843 148.341 31.3993 148.111 31.3443C147.876 31.2843 147.626 31.2593 147.351 31.2593C146.926 31.2593 146.541 31.3293 146.191 31.4693C145.841 31.6093 145.546 31.8243 145.296 32.1093C145.051 32.3993 144.861 32.7593 144.731 33.1943C144.601 33.6293 144.536 34.1443 144.546 34.7393V34.7593C144.546 35.1043 144.576 35.4343 144.631 35.7443C144.691 36.0543 144.776 36.3393 144.891 36.5943C145.006 36.8543 145.146 37.0843 145.316 37.2893C145.481 37.4943 145.676 37.6743 145.896 37.8193C146.116 37.9643 146.356 38.0743 146.621 38.1543C146.886 38.2293 147.171 38.2693 147.471 38.2693C147.821 38.2693 148.136 38.2393 148.416 38.1743C148.691 38.1093 148.936 38.0143 149.141 37.8943C149.346 37.7693 149.521 37.6193 149.666 37.4393C149.811 37.2593 149.926 37.0593 150.016 36.8343H151.911C151.781 37.2643 151.596 37.6643 151.341 38.0293C151.091 38.3943 150.776 38.7093 150.396 38.9743C150.021 39.2393 149.586 39.4443 149.091 39.5893C148.596 39.7343 148.041 39.8093 147.421 39.8093C146.916 39.7843 146.446 39.7243 146.006 39.6093Z" fill="#3E3EFF"/>
<path d="M21.74 0L43.2999 12.5V25L32.47 31.25L32.475 43.7499L21.64 49.9999L0 37.5049V25.005L10.815 18.75V6.24999L21.74 0Z" fill="#9999FF"/>
<path d="M32.4733 31.25L10.8184 18.75V6.25L32.4883 18.76L32.4733 31.25Z" fill="#181863"/>
<path d="M21.635 49.9995L0 37.5095V25.0095L21.64 37.5095L21.635 49.9995Z" fill="#181863"/>
<path d="M21.6426 12.5V25L32.4776 18.75L32.4726 6.25L21.6426 12.5Z" fill="#3939E5"/>
<path d="M32.4727 18.745V31.25L43.3026 24.995V12.5L32.4727 18.745Z" fill="#3939E5"/>
<path d="M10.7988 31.25L10.8188 43.765L21.6338 37.5L21.6288 25L10.7988 31.25Z" fill="#3939E5"/>
<path d="M21.6426 37.5V50L32.4776 43.75L32.4726 31.25L21.6426 37.5Z" fill="#3939E5"/>
</svg>
