<svg width="92" height="50" viewBox="0 0 92 50" fill="none" xmlns="http://www.w3.org/2000/svg">
<path d="M53.9941 10.3323H56.6291V23.1773H53.9941V10.3323Z" fill="#06061A"/>
<path d="M62.3064 23.2873C61.8714 23.1773 61.4714 23.0173 61.1064 22.8073C60.7464 22.5973 60.4214 22.3423 60.1364 22.0473C59.8514 21.7473 59.6114 21.4123 59.4164 21.0423C59.2214 20.6673 59.0714 20.2623 58.9714 19.8223C58.8664 19.3823 58.8164 18.9123 58.8164 18.4123V18.3923C58.8164 17.6523 58.9314 16.9723 59.1564 16.3573C59.3864 15.7423 59.7114 15.2123 60.1364 14.7673C60.5614 14.3223 61.0764 13.9773 61.6814 13.7323C62.2864 13.4873 62.9614 13.3623 63.7064 13.3623C64.3764 13.3623 64.9764 13.4523 65.5214 13.6273C66.0614 13.8023 66.5314 14.0473 66.9264 14.3623C67.3214 14.6773 67.6464 15.0473 67.9014 15.4823C68.1564 15.9173 68.3364 16.3973 68.4414 16.9173H65.9064C65.8414 16.6423 65.7414 16.4073 65.6164 16.2023C65.4864 15.9973 65.3364 15.8323 65.1514 15.6973C64.9714 15.5623 64.7614 15.4623 64.5214 15.3973C64.2864 15.3323 64.0314 15.2973 63.7564 15.2973C63.4114 15.2973 63.0964 15.3673 62.8164 15.5073C62.5364 15.6473 62.2964 15.8473 62.0914 16.1123C61.8864 16.3773 61.7314 16.7023 61.6214 17.0873C61.5114 17.4723 61.4564 17.9073 61.4564 18.3923V18.4123C61.4564 18.7423 61.4814 19.0473 61.5314 19.3273C61.5814 19.6073 61.6564 19.8673 61.7514 20.0973C61.8464 20.3273 61.9614 20.5323 62.0914 20.7073C62.2264 20.8823 62.3764 21.0323 62.5464 21.1523C62.7164 21.2723 62.9014 21.3673 63.1014 21.4273C63.3014 21.4873 63.5164 21.5173 63.7464 21.5173C64.0214 21.5173 64.2764 21.4823 64.5114 21.4173C64.7464 21.3523 64.9564 21.2473 65.1414 21.1123C65.3214 20.9773 65.4764 20.8073 65.6064 20.6023C65.7364 20.3973 65.8314 20.1623 65.8964 19.8973H68.4314C68.3264 20.4123 68.1514 20.8923 67.8914 21.3273C67.6314 21.7623 67.3114 22.1423 66.9164 22.4573C66.5214 22.7723 66.0564 23.0173 65.5114 23.1923C64.9714 23.3673 64.3664 23.4523 63.6964 23.4523C63.2064 23.4523 62.7414 23.3973 62.3064 23.2873Z" fill="#06061A"/>
<path d="M71.8314 23.2522C71.3964 23.1172 71.0164 22.9272 70.6964 22.6722C70.3764 22.4222 70.1314 22.1172 69.9564 21.7572C69.7814 21.3972 69.6914 20.9972 69.6914 20.5472V20.5372C69.6914 20.1922 69.7364 19.8822 69.8264 19.6022C69.9164 19.3272 70.0514 19.0822 70.2314 18.8622C70.4114 18.6472 70.6314 18.4572 70.9014 18.2922C71.1664 18.1272 71.4764 17.9822 71.8314 17.8572C72.1814 17.7322 72.5764 17.6272 73.0064 17.5322C73.4364 17.4422 73.9064 17.3622 74.4164 17.2972C74.8014 17.2472 75.1064 17.1972 75.3314 17.1472C75.5614 17.0972 75.7364 17.0322 75.8614 16.9572C75.9864 16.8822 76.0664 16.7922 76.1064 16.6872C76.1464 16.5822 76.1664 16.4522 76.1664 16.2972V16.2822C76.1664 16.0672 76.1264 15.8872 76.0464 15.7372C75.9664 15.5872 75.8514 15.4572 75.7014 15.3572C75.5514 15.2572 75.3664 15.1822 75.1614 15.1322C74.9514 15.0822 74.7164 15.0572 74.4564 15.0572C74.1714 15.0572 73.9114 15.0872 73.6764 15.1472C73.4414 15.2072 73.2414 15.3022 73.0764 15.4272C72.9114 15.5572 72.7764 15.7172 72.6864 15.9122C72.5914 16.1072 72.5414 16.3372 72.5264 16.6022H70.1114C70.1214 16.0622 70.2414 15.5872 70.4614 15.1822C70.6814 14.7772 70.9864 14.4372 71.3664 14.1622C71.7514 13.8872 72.2064 13.6822 72.7364 13.5422C73.2664 13.4022 73.8464 13.3322 74.4714 13.3322C75.1164 13.3322 75.6914 13.3872 76.2064 13.4922C76.7214 13.5972 77.1564 13.7772 77.5114 14.0322C77.8664 14.2872 78.1364 14.6272 78.3264 15.0522C78.5164 15.4772 78.6064 16.0072 78.6064 16.6472L78.5814 20.1722C78.5814 20.4922 78.5864 20.7922 78.5964 21.0672C78.6064 21.3422 78.6214 21.5972 78.6414 21.8422C78.6614 22.0872 78.6914 22.3172 78.7314 22.5322C78.7714 22.7522 78.8164 22.9622 78.8714 23.1722H76.3914C76.3814 23.0972 76.3664 23.0272 76.3614 22.9621C76.3514 22.8972 76.3414 22.8272 76.3364 22.7621C76.3264 22.6972 76.3214 22.6222 76.3114 22.5472C76.3064 22.4722 76.3014 22.3872 76.3014 22.2972C76.1414 22.4772 75.9664 22.6422 75.7614 22.7822C75.5614 22.9272 75.3364 23.0472 75.0864 23.1422C74.8364 23.2372 74.5614 23.3122 74.2564 23.3672C73.9514 23.4172 73.6164 23.4422 73.2564 23.4422C72.7464 23.4522 72.2714 23.3822 71.8314 23.2522ZM74.5864 21.6422C74.7764 21.6072 74.9464 21.5622 75.1064 21.4972C75.2664 21.4322 75.4064 21.3522 75.5364 21.2572C75.6664 21.1622 75.7714 21.0422 75.8614 20.9122C75.9514 20.7772 76.0214 20.6272 76.0714 20.4622C76.1214 20.2972 76.1464 20.1122 76.1464 19.9122V18.3622C75.9814 18.4222 75.8264 18.4772 75.6814 18.5222C75.5364 18.5672 75.3964 18.6122 75.2564 18.6522C75.1214 18.6922 74.9864 18.7272 74.8614 18.7622C74.7314 18.7972 74.6114 18.8272 74.4964 18.8572C74.2214 18.9322 73.9814 18.9972 73.7664 19.0622C73.5514 19.1272 73.3664 19.1922 73.2064 19.2572C73.0464 19.3222 72.9064 19.3972 72.7964 19.4722C72.6864 19.5472 72.5914 19.6322 72.5214 19.7222C72.4514 19.8122 72.4014 19.9122 72.3664 20.0222C72.3314 20.1322 72.3164 20.2572 72.3164 20.3972V20.4072C72.3164 20.6122 72.3564 20.7972 72.4364 20.9572C72.5164 21.1172 72.6264 21.2522 72.7714 21.3622C72.9164 21.4722 73.0914 21.5572 73.3014 21.6122C73.5114 21.6722 73.7464 21.6972 74.0064 21.6972C74.2014 21.6922 74.3964 21.6772 74.5864 21.6422Z" fill="#06061A"/>
<path d="M83.736 23.3073C83.366 23.2123 83.026 23.0623 82.701 22.8723C82.381 22.6773 82.086 22.4373 81.821 22.1573C81.556 21.8773 81.331 21.5473 81.136 21.1723C80.946 20.7973 80.796 20.3823 80.696 19.9273C80.591 19.4723 80.541 18.9773 80.541 18.4423V18.4223C80.541 17.6223 80.656 16.9073 80.886 16.2873C81.116 15.6623 81.426 15.1423 81.821 14.7173C82.211 14.2923 82.671 13.9673 83.201 13.7473C83.731 13.5273 84.286 13.4123 84.876 13.4123C85.216 13.4123 85.536 13.4473 85.831 13.5173C86.131 13.5873 86.401 13.6873 86.651 13.8123C86.901 13.9423 87.121 14.0923 87.321 14.2673C87.516 14.4423 87.681 14.6373 87.806 14.8423V10.3323H90.346V23.1773H87.806V22.0223C87.676 22.2273 87.516 22.4223 87.321 22.5973C87.126 22.7723 86.901 22.9273 86.651 23.0523C86.401 23.1823 86.131 23.2773 85.831 23.3473C85.531 23.4173 85.216 23.4523 84.876 23.4523C84.486 23.4523 84.106 23.4023 83.736 23.3073ZM86.216 21.4373C86.421 21.3773 86.606 21.2873 86.781 21.1723C86.956 21.0573 87.111 20.9123 87.251 20.7373C87.391 20.5623 87.506 20.3623 87.601 20.1373C87.696 19.9073 87.766 19.6523 87.821 19.3723C87.871 19.0923 87.896 18.7773 87.896 18.4373V18.4173C87.896 18.0773 87.871 17.7673 87.821 17.4823C87.771 17.2023 87.696 16.9423 87.601 16.7173C87.506 16.4873 87.391 16.2873 87.251 16.1173C87.111 15.9423 86.956 15.8023 86.781 15.6823C86.606 15.5673 86.421 15.4773 86.216 15.4173C86.011 15.3573 85.791 15.3273 85.556 15.3273C85.321 15.3273 85.101 15.3573 84.896 15.4173C84.691 15.4773 84.506 15.5673 84.331 15.6823C84.156 15.7973 84.001 15.9423 83.861 16.1173C83.721 16.2923 83.606 16.4923 83.511 16.7173C83.416 16.9473 83.346 17.2023 83.291 17.4823C83.241 17.7623 83.216 18.0773 83.216 18.4173V18.4373C83.216 18.7773 83.241 19.0873 83.291 19.3723C83.341 19.6523 83.416 19.9123 83.511 20.1373C83.606 20.3673 83.721 20.5673 83.861 20.7373C84.001 20.9123 84.156 21.0523 84.331 21.1723C84.506 21.2873 84.691 21.3773 84.896 21.4373C85.101 21.4973 85.321 21.5273 85.556 21.5273C85.791 21.5273 86.011 21.4973 86.216 21.4373Z" fill="#06061A"/>
<path d="M54.166 26.6823H62.976V28.3673H56.096V32.1773H62.281V33.8622H56.096V39.5273H54.166V26.6823Z" fill="#3E3EFF"/>
<path d="M67.7253 39.6077C67.2903 39.4927 66.8903 39.3277 66.5353 39.1127C66.1803 38.8977 65.8653 38.6377 65.5903 38.3377C65.3153 38.0377 65.0803 37.6977 64.8953 37.3277C64.7053 36.9527 64.5653 36.5527 64.4653 36.1177C64.3703 35.6827 64.3203 35.2277 64.3203 34.7477V34.7277C64.3203 33.9827 64.4403 33.3027 64.6803 32.6977C64.9203 32.0927 65.2503 31.5677 65.6803 31.1377C66.1053 30.7027 66.6103 30.3677 67.1903 30.1327C67.7703 29.8977 68.4053 29.7777 69.0853 29.7777C69.5903 29.7777 70.0603 29.8377 70.4953 29.9627C70.9303 30.0877 71.3203 30.2677 71.6753 30.5027C72.0253 30.7377 72.3403 31.0177 72.6103 31.3477C72.8803 31.6777 73.1053 32.0427 73.2853 32.4527C73.4653 32.8627 73.5953 33.3077 73.6753 33.7927C73.7553 34.2777 73.7903 34.7827 73.7703 35.3177V35.3277H65.6703L65.6503 33.8227H71.8003V33.8127C71.7803 33.5677 71.7403 33.3377 71.6753 33.1127C71.6103 32.8877 71.5253 32.6827 71.4103 32.4927C71.3003 32.3027 71.1653 32.1327 71.0103 31.9827C70.8553 31.8327 70.6803 31.7027 70.4803 31.5927C70.2853 31.4827 70.0653 31.3977 69.8353 31.3427C69.6003 31.2827 69.3503 31.2577 69.0753 31.2577C68.6503 31.2577 68.2653 31.3277 67.9153 31.4677C67.5653 31.6077 67.2703 31.8227 67.0203 32.1077C66.7753 32.3977 66.5853 32.7577 66.4553 33.1927C66.3253 33.6277 66.2603 34.1427 66.2703 34.7377V34.7577C66.2703 35.1027 66.3003 35.4327 66.3553 35.7427C66.4153 36.0527 66.5003 36.3377 66.6153 36.5927C66.7303 36.8527 66.8703 37.0827 67.0403 37.2877C67.2053 37.4927 67.4003 37.6727 67.6203 37.8177C67.8403 37.9627 68.0803 38.0727 68.3453 38.1527C68.6103 38.2277 68.8953 38.2677 69.1953 38.2677C69.5453 38.2677 69.8603 38.2377 70.1403 38.1727C70.4153 38.1077 70.6603 38.0127 70.8653 37.8927C71.0703 37.7677 71.2453 37.6177 71.3903 37.4377C71.5353 37.2577 71.6503 37.0577 71.7403 36.8327H73.6353C73.5053 37.2627 73.3203 37.6627 73.0653 38.0277C72.8153 38.3927 72.5003 38.7077 72.1203 38.9727C71.7453 39.2377 71.3103 39.4427 70.8153 39.5877C70.3203 39.7327 69.7653 39.8077 69.1453 39.8077C68.6303 39.7827 68.1603 39.7227 67.7253 39.6077Z" fill="#3E3EFF"/>
<path d="M78.7674 39.6077C78.3324 39.4927 77.9324 39.3277 77.5774 39.1127C77.2224 38.8977 76.9074 38.6377 76.6274 38.3377C76.3524 38.0377 76.1174 37.6977 75.9324 37.3277C75.7424 36.9527 75.6024 36.5527 75.5024 36.1177C75.4074 35.6827 75.3574 35.2277 75.3574 34.7477V34.7277C75.3574 33.9827 75.4774 33.3027 75.7174 32.6977C75.9574 32.0927 76.2874 31.5677 76.7174 31.1377C77.1424 30.7027 77.6474 30.3677 78.2274 30.1327C78.8124 29.8977 79.4424 29.7777 80.1224 29.7777C80.6274 29.7777 81.0974 29.8377 81.5324 29.9627C81.9674 30.0877 82.3574 30.2677 82.7124 30.5027C83.0624 30.7377 83.3774 31.0177 83.6474 31.3477C83.9174 31.6777 84.1424 32.0427 84.3224 32.4527C84.5024 32.8627 84.6324 33.3077 84.7124 33.7927C84.7924 34.2777 84.8274 34.7827 84.8074 35.3177V35.3277H76.7074L76.6874 33.8227H82.8374V33.8127C82.8174 33.5677 82.7774 33.3377 82.7124 33.1127C82.6474 32.8877 82.5624 32.6827 82.4474 32.4927C82.3374 32.3027 82.2024 32.1327 82.0474 31.9827C81.8924 31.8327 81.7174 31.7027 81.5174 31.5927C81.3224 31.4827 81.1024 31.3977 80.8724 31.3427C80.6374 31.2827 80.3874 31.2577 80.1124 31.2577C79.6874 31.2577 79.3024 31.3277 78.9524 31.4677C78.6024 31.6077 78.3074 31.8227 78.0574 32.1077C77.8124 32.3977 77.6224 32.7577 77.4924 33.1927C77.3624 33.6277 77.2974 34.1427 77.3074 34.7377V34.7577C77.3074 35.1027 77.3374 35.4327 77.3924 35.7427C77.4524 36.0527 77.5374 36.3377 77.6524 36.5927C77.7674 36.8527 77.9074 37.0827 78.0774 37.2877C78.2424 37.4927 78.4374 37.6727 78.6574 37.8177C78.8774 37.9627 79.1174 38.0727 79.3824 38.1527C79.6474 38.2277 79.9324 38.2677 80.2324 38.2677C80.5824 38.2677 80.8974 38.2377 81.1774 38.1727C81.4524 38.1077 81.6974 38.0127 81.9024 37.8927C82.1074 37.7677 82.2824 37.6177 82.4274 37.4377C82.5724 37.2577 82.6874 37.0577 82.7774 36.8327H84.6724C84.5424 37.2627 84.3574 37.6627 84.1024 38.0277C83.8524 38.3927 83.5374 38.7077 83.1574 38.9727C82.7824 39.2377 82.3474 39.4427 81.8524 39.5877C81.3574 39.7327 80.8024 39.8077 80.1824 39.8077C79.6774 39.7827 79.2074 39.7227 78.7674 39.6077Z" fill="#3E3EFF"/>
<path d="M88.856 39.3825C88.511 39.2875 88.241 39.1325 88.041 38.9175C87.841 38.7025 87.701 38.4175 87.621 38.0625C87.541 37.7075 87.501 37.2725 87.501 36.7575V31.6175H86.041V30.0325H87.501V27.0275H89.361V30.0325H91.391V31.6175H89.361V36.7175C89.361 36.9425 89.371 37.1325 89.396 37.2925C89.421 37.4525 89.471 37.5775 89.551 37.6725C89.631 37.7675 89.746 37.8375 89.891 37.8775C90.041 37.9225 90.236 37.9425 90.481 37.9425H91.321V39.5275H90.171C89.636 39.5275 89.201 39.4775 88.856 39.3825Z" fill="#3E3EFF"/>
<path d="M43.1 37.5V12.5L21.55 0L0 12.5V37.5L21.55 50L43.1 37.5Z" fill="#3E3EFF"/>
<path d="M21.5586 25L43.1086 12.5L21.5586 0V25Z" fill="#3939E5"/>
<path d="M21.5586 25L43.1086 37.5V12.5L21.5586 25Z" fill="#D8D8FF"/>
<path d="M21.5586 50L43.1086 37.5L21.5586 25V50Z" fill="#13134C"/>
<path d="M0 37.5L21.55 50V25L0 37.5Z" fill="#181863"/>
<path d="M0 12.5L21.55 25L0 37.5V12.5Z" fill="#9999FF"/>
<path d="M10.7773 18.755V31.26L21.5523 37.515L32.3273 31.26V18.755L21.5523 12.5L10.7773 18.755Z" fill="#181863"/>
<path d="M10.7773 18.7548L21.5523 25.0048L10.7773 31.2598V18.7548Z" fill="#3E3EFF"/>
<path d="M21.5523 37.5148L10.7773 31.2598L21.5523 25.0048V37.5148Z" fill="#3939E5"/>
<path d="M32.3336 31.2598L21.5586 37.5148V25.0048L32.3336 31.2598Z" fill="#6565FF"/>
<path d="M32.3336 18.7548V31.2598L21.5586 25.0048L32.3336 18.7548Z" fill="#9999FF"/>
<path d="M21.5586 12.5V25.005L32.3336 18.755L21.5586 12.5Z" fill="#13134C"/>
</svg>
