<svg width="111" height="50" viewBox="0 0 111 50" fill="none" xmlns="http://www.w3.org/2000/svg">
<path d="M54.1367 10.3323H56.7717V23.1773H54.1367V10.3323Z" fill="#06061A"/>
<path d="M62.45 23.2873C62.015 23.1773 61.615 23.0173 61.25 22.8073C60.89 22.5973 60.565 22.3423 60.28 22.0473C59.995 21.7473 59.755 21.4123 59.56 21.0423C59.365 20.6673 59.215 20.2623 59.115 19.8223C59.01 19.3823 58.96 18.9123 58.96 18.4123V18.3923C58.96 17.6523 59.075 16.9723 59.3 16.3573C59.53 15.7423 59.855 15.2123 60.28 14.7673C60.705 14.3223 61.22 13.9773 61.825 13.7323C62.43 13.4873 63.105 13.3623 63.85 13.3623C64.52 13.3623 65.12 13.4523 65.665 13.6273C66.205 13.8023 66.675 14.0473 67.07 14.3623C67.465 14.6773 67.79 15.0473 68.045 15.4823C68.3 15.9173 68.48 16.3973 68.585 16.9173H66.05C65.985 16.6423 65.885 16.4073 65.76 16.2023C65.63 15.9973 65.48 15.8323 65.295 15.6973C65.115 15.5623 64.905 15.4623 64.665 15.3973C64.43 15.3323 64.175 15.2973 63.9 15.2973C63.555 15.2973 63.24 15.3673 62.96 15.5073C62.68 15.6473 62.44 15.8473 62.235 16.1123C62.03 16.3773 61.875 16.7023 61.765 17.0873C61.655 17.4723 61.6 17.9073 61.6 18.3923V18.4123C61.6 18.7423 61.625 19.0473 61.675 19.3273C61.725 19.6073 61.8 19.8673 61.895 20.0973C61.99 20.3273 62.105 20.5323 62.235 20.7073C62.37 20.8823 62.52 21.0323 62.69 21.1523C62.86 21.2723 63.045 21.3673 63.245 21.4273C63.445 21.4873 63.66 21.5173 63.89 21.5173C64.165 21.5173 64.42 21.4823 64.655 21.4173C64.89 21.3523 65.1 21.2473 65.285 21.1123C65.465 20.9773 65.62 20.8073 65.75 20.6023C65.88 20.3973 65.975 20.1623 66.04 19.8973H68.575C68.47 20.4123 68.295 20.8923 68.035 21.3273C67.78 21.7623 67.455 22.1423 67.06 22.4573C66.665 22.7723 66.2 23.0173 65.655 23.1923C65.115 23.3673 64.51 23.4523 63.84 23.4523C63.355 23.4523 62.885 23.3973 62.45 23.2873Z" fill="#06061A"/>
<path d="M71.98 23.2522C71.545 23.1172 71.165 22.9272 70.845 22.6722C70.525 22.4222 70.28 22.1172 70.1 21.7572C69.925 21.3972 69.835 20.9972 69.835 20.5472V20.5372C69.835 20.1922 69.88 19.8822 69.97 19.6022C70.06 19.3272 70.195 19.0822 70.375 18.8622C70.555 18.6472 70.775 18.4572 71.045 18.2922C71.31 18.1272 71.62 17.9822 71.975 17.8572C72.325 17.7322 72.72 17.6272 73.15 17.5322C73.58 17.4422 74.05 17.3622 74.56 17.2972C74.945 17.2472 75.25 17.1972 75.475 17.1472C75.705 17.0972 75.88 17.0322 76.005 16.9572C76.13 16.8822 76.21 16.7922 76.25 16.6872C76.29 16.5822 76.31 16.4522 76.31 16.2972V16.2822C76.31 16.0672 76.27 15.8872 76.19 15.7372C76.11 15.5872 75.995 15.4572 75.845 15.3572C75.695 15.2572 75.51 15.1822 75.305 15.1322C75.095 15.0822 74.86 15.0572 74.6 15.0572C74.315 15.0572 74.055 15.0872 73.82 15.1472C73.585 15.2072 73.385 15.3022 73.22 15.4272C73.055 15.5572 72.92 15.7172 72.83 15.9122C72.735 16.1072 72.685 16.3372 72.67 16.6022H70.26C70.27 16.0622 70.39 15.5872 70.61 15.1822C70.83 14.7772 71.135 14.4372 71.515 14.1622C71.895 13.8872 72.355 13.6822 72.885 13.5422C73.415 13.4022 73.995 13.3322 74.62 13.3322C75.265 13.3322 75.84 13.3872 76.355 13.4922C76.87 13.5972 77.3 13.7772 77.66 14.0322C78.015 14.2872 78.285 14.6272 78.475 15.0522C78.665 15.4772 78.755 16.0072 78.755 16.6472L78.73 20.1722C78.73 20.4922 78.735 20.7922 78.745 21.0672C78.755 21.3422 78.77 21.5972 78.79 21.8422C78.81 22.0872 78.84 22.3172 78.88 22.5322C78.92 22.7522 78.965 22.9622 79.02 23.1722H76.54C76.53 23.0972 76.515 23.0272 76.51 22.9621C76.5 22.8972 76.49 22.8272 76.485 22.7621C76.475 22.6972 76.47 22.6222 76.46 22.5472C76.455 22.4722 76.45 22.3872 76.45 22.2972C76.29 22.4772 76.115 22.6422 75.91 22.7822C75.71 22.9272 75.485 23.0472 75.235 23.1422C74.985 23.2372 74.71 23.3122 74.405 23.3672C74.1 23.4172 73.765 23.4422 73.405 23.4422C72.895 23.4522 72.42 23.3822 71.98 23.2522ZM74.735 21.6422C74.925 21.6072 75.095 21.5622 75.255 21.4972C75.415 21.4322 75.555 21.3522 75.685 21.2572C75.815 21.1622 75.92 21.0422 76.01 20.9122C76.1 20.7772 76.17 20.6272 76.22 20.4622C76.27 20.2972 76.295 20.1122 76.295 19.9122V18.3622C76.13 18.4222 75.975 18.4772 75.83 18.5222C75.685 18.5672 75.545 18.6122 75.405 18.6522C75.27 18.6922 75.135 18.7272 75.01 18.7622C74.88 18.7972 74.76 18.8272 74.645 18.8572C74.37 18.9322 74.13 18.9972 73.915 19.0622C73.7 19.1272 73.515 19.1922 73.355 19.2572C73.195 19.3222 73.055 19.3972 72.945 19.4722C72.835 19.5472 72.74 19.6322 72.67 19.7222C72.6 19.8122 72.55 19.9122 72.515 20.0222C72.48 20.1322 72.465 20.2572 72.465 20.3972V20.4072C72.465 20.6122 72.505 20.7972 72.585 20.9572C72.665 21.1172 72.775 21.2522 72.92 21.3622C73.065 21.4722 73.24 21.5572 73.45 21.6122C73.66 21.6722 73.895 21.6972 74.155 21.6972C74.35 21.6922 74.545 21.6772 74.735 21.6422Z" fill="#06061A"/>
<path d="M83.8766 23.3073C83.5066 23.2123 83.1666 23.0623 82.8416 22.8723C82.5216 22.6773 82.2266 22.4373 81.9616 22.1573C81.6966 21.8773 81.4716 21.5473 81.2766 21.1723C81.0866 20.7973 80.9366 20.3823 80.8366 19.9273C80.7316 19.4723 80.6816 18.9773 80.6816 18.4423V18.4223C80.6816 17.6223 80.7966 16.9073 81.0266 16.2873C81.2566 15.6623 81.5666 15.1423 81.9616 14.7173C82.3516 14.2923 82.8116 13.9673 83.3416 13.7473C83.8716 13.5273 84.4266 13.4123 85.0166 13.4123C85.3566 13.4123 85.6766 13.4473 85.9716 13.5173C86.2716 13.5873 86.5416 13.6873 86.7916 13.8123C87.0416 13.9423 87.2616 14.0923 87.4616 14.2673C87.6566 14.4423 87.8216 14.6373 87.9466 14.8423V10.3323H90.4866V23.1773H87.9466V22.0223C87.8166 22.2273 87.6566 22.4223 87.4616 22.5973C87.2666 22.7723 87.0416 22.9273 86.7916 23.0523C86.5416 23.1823 86.2716 23.2773 85.9716 23.3473C85.6716 23.4173 85.3566 23.4523 85.0166 23.4523C84.6266 23.4523 84.2466 23.4023 83.8766 23.3073ZM86.3566 21.4373C86.5616 21.3773 86.7466 21.2873 86.9216 21.1723C87.0966 21.0573 87.2516 20.9123 87.3916 20.7373C87.5316 20.5623 87.6466 20.3623 87.7416 20.1373C87.8366 19.9073 87.9066 19.6523 87.9616 19.3723C88.0116 19.0923 88.0366 18.7773 88.0366 18.4373V18.4173C88.0366 18.0773 88.0116 17.7673 87.9616 17.4823C87.9116 17.2023 87.8366 16.9423 87.7416 16.7173C87.6466 16.4873 87.5316 16.2873 87.3916 16.1173C87.2516 15.9423 87.0966 15.8023 86.9216 15.6823C86.7466 15.5673 86.5616 15.4773 86.3566 15.4173C86.1516 15.3573 85.9316 15.3273 85.6966 15.3273C85.4616 15.3273 85.2416 15.3573 85.0366 15.4173C84.8316 15.4773 84.6466 15.5673 84.4716 15.6823C84.2966 15.7973 84.1416 15.9423 84.0016 16.1173C83.8616 16.2923 83.7466 16.4923 83.6516 16.7173C83.5566 16.9473 83.4866 17.2023 83.4316 17.4823C83.3816 17.7623 83.3566 18.0773 83.3566 18.4173V18.4373C83.3566 18.7773 83.3816 19.0873 83.4316 19.3723C83.4816 19.6523 83.5566 19.9123 83.6516 20.1373C83.7466 20.3673 83.8616 20.5673 84.0016 20.7373C84.1416 20.9123 84.2966 21.0523 84.4716 21.1723C84.6466 21.2873 84.8316 21.3773 85.0366 21.4373C85.2416 21.4973 85.4616 21.5273 85.6966 21.5273C85.9316 21.5273 86.1516 21.4973 86.3566 21.4373Z" fill="#06061A"/>
<path d="M54.3076 26.6823H62.9526V28.3673H56.2376V32.1773H62.2576V33.8622H56.2376V37.8422H62.9726V39.5273H54.3076V26.6823Z" fill="#3E3EFF"/>
<path d="M64.2441 30.0317H66.2691L69.2641 37.9967H68.9991L72.0791 30.0317H73.9091L70.1291 39.5267H68.0341L64.2441 30.0317Z" fill="#3E3EFF"/>
<path d="M77.7971 39.4025C77.2071 39.1525 76.7021 38.8025 76.2871 38.3575C75.8721 37.9125 75.5521 37.3875 75.3321 36.7725C75.1121 36.1575 74.9971 35.4925 74.9971 34.7775V34.7575C74.9971 34.0325 75.1071 33.3675 75.3321 32.7625C75.5521 32.1575 75.8721 31.6275 76.2871 31.1825C76.7021 30.7375 77.2071 30.3875 77.7971 30.1375C78.3871 29.8875 79.0571 29.7625 79.7971 29.7625C80.5371 29.7625 81.2071 29.8875 81.8021 30.1375C82.3971 30.3875 82.9021 30.7325 83.3121 31.1825C83.7271 31.6275 84.0421 32.1575 84.2621 32.7625C84.4821 33.3675 84.5971 34.0325 84.5971 34.7575V34.7775C84.5971 35.4925 84.4871 36.1575 84.2621 36.7725C84.0421 37.3875 83.7221 37.9125 83.3121 38.3575C82.8971 38.8025 82.3971 39.1475 81.8021 39.4025C81.2071 39.6525 80.5371 39.7825 79.7971 39.7825C79.0571 39.7825 78.3871 39.6575 77.7971 39.4025ZM81.0321 37.9874C81.3871 37.8175 81.6821 37.5775 81.9221 37.2725C82.1571 36.9675 82.3371 36.6025 82.4571 36.1775C82.5771 35.7575 82.6371 35.2875 82.6371 34.7775V34.7575C82.6371 34.2475 82.5771 33.7825 82.4571 33.3575C82.3371 32.9375 82.1621 32.5725 81.9221 32.2675C81.6871 31.9625 81.3871 31.7275 81.0321 31.5575C80.6771 31.3875 80.2671 31.3025 79.7971 31.3025C79.3271 31.3025 78.9171 31.3875 78.5621 31.5575C78.2071 31.7275 77.9121 31.9625 77.6721 32.2675C77.4371 32.5725 77.2571 32.9325 77.1371 33.3575C77.0171 33.7775 76.9571 34.2475 76.9571 34.7575V34.7775C76.9571 35.2875 77.0171 35.7525 77.1371 36.1775C77.2571 36.5975 77.4321 36.9625 77.6721 37.2725C77.9071 37.5775 78.2071 37.8175 78.5621 37.9874C78.9171 38.1574 79.3271 38.2425 79.7971 38.2425C80.2621 38.2425 80.6771 38.1574 81.0321 37.9874Z" fill="#3E3EFF"/>
<path d="M86.876 26.6823H88.736V39.5273H86.876V26.6823Z" fill="#3E3EFF"/>
<path d="M90.4824 30.0317H92.5074L95.5024 37.9967H95.2374L98.3174 30.0317H100.147L96.3674 39.5267H94.2724L90.4824 30.0317Z" fill="#3E3EFF"/>
<path d="M104.636 39.6077C104.201 39.4927 103.801 39.3277 103.446 39.1127C103.091 38.8977 102.776 38.6377 102.501 38.3377C102.226 38.0377 101.991 37.6977 101.806 37.3277C101.616 36.9527 101.476 36.5527 101.376 36.1177C101.281 35.6827 101.231 35.2277 101.231 34.7477V34.7277C101.231 33.9827 101.351 33.3027 101.591 32.6977C101.831 32.0927 102.161 31.5677 102.591 31.1377C103.016 30.7027 103.521 30.3677 104.101 30.1327C104.686 29.8977 105.316 29.7777 105.996 29.7777C106.501 29.7777 106.971 29.8377 107.406 29.9627C107.841 30.0877 108.231 30.2677 108.586 30.5027C108.936 30.7377 109.251 31.0177 109.521 31.3477C109.791 31.6777 110.016 32.0427 110.196 32.4527C110.376 32.8627 110.506 33.3077 110.586 33.7927C110.666 34.2777 110.701 34.7827 110.681 35.3177V35.3277H102.581L102.561 33.8227H108.711V33.8127C108.691 33.5677 108.651 33.3377 108.586 33.1127C108.521 32.8877 108.436 32.6827 108.321 32.4927C108.211 32.3027 108.076 32.1327 107.921 31.9827C107.766 31.8327 107.591 31.7027 107.391 31.5927C107.196 31.4827 106.976 31.3977 106.746 31.3427C106.511 31.2827 106.261 31.2577 105.986 31.2577C105.561 31.2577 105.176 31.3277 104.826 31.4677C104.476 31.6077 104.181 31.8227 103.931 32.1077C103.686 32.3977 103.496 32.7577 103.366 33.1927C103.236 33.6277 103.171 34.1427 103.181 34.7377V34.7577C103.181 35.1027 103.211 35.4327 103.266 35.7427C103.326 36.0527 103.411 36.3377 103.526 36.5927C103.641 36.8527 103.781 37.0827 103.951 37.2877C104.116 37.4927 104.311 37.6727 104.531 37.8177C104.751 37.9627 104.991 38.0727 105.256 38.1527C105.521 38.2277 105.806 38.2677 106.106 38.2677C106.456 38.2677 106.771 38.2377 107.051 38.1727C107.326 38.1077 107.571 38.0127 107.776 37.8927C107.981 37.7677 108.156 37.6177 108.301 37.4377C108.446 37.2577 108.561 37.0577 108.651 36.8327H110.546C110.416 37.2627 110.231 37.6627 109.976 38.0277C109.726 38.3927 109.411 38.7077 109.031 38.9727C108.656 39.2377 108.221 39.4427 107.726 39.5877C107.231 39.7327 106.676 39.8077 106.056 39.8077C105.541 39.7827 105.071 39.7227 104.636 39.6077Z" fill="#3E3EFF"/>
<path d="M0 12.5L21.65 0L43.3 12.5V37.5L21.65 50L0 37.5V12.5Z" fill="#D8D8FF"/>
<path d="M32.4814 18.75V31.25L43.3064 37.5V12.5" fill="#13134C"/>
<path d="M32.4695 18.75L21.6445 12.5V0L43.2945 12.5" fill="#181863"/>
<path d="M21.6473 25V12.5L10.8223 6.25V18.75L21.6473 25Z" fill="#5151FF"/>
<path d="M21.6445 25V37.5L32.4695 43.75V31.25L21.6445 25Z" fill="#3333CC"/>
<path d="M32.4695 18.75L21.6445 12.5V25" fill="#3E3EFF"/>
<path d="M21.6445 25L32.4695 31.25V18.75L21.6445 25Z" fill="#3939E5"/>
<path d="M0 37.5L21.65 50V37.5L10.825 31.25" fill="#9999FF"/>
<path d="M10.825 31.25V18.75L0 12.5V37.5L10.825 31.25Z" fill="#A3A3FF"/>
<path d="M10.8223 31.25L21.6473 37.5V25" fill="#5151FF"/>
<path d="M21.6473 25L10.8223 18.75V31.25L21.6473 25Z" fill="#6565FF"/>
</svg>
