<svg width="250" height="56" viewBox="0 0 250 56" fill="none" xmlns="http://www.w3.org/2000/svg">
<path d="M69.9648 8.99481H73.3727V25.6072H69.9648V8.99481Z" fill="#06061A"/>
<path d="M80.7128 25.7498C80.1502 25.6076 79.6329 25.4006 79.1609 25.129C78.6953 24.8575 78.275 24.5277 77.9064 24.1461C77.5378 23.7582 77.2274 23.3249 76.9752 22.8464C76.723 22.3614 76.529 21.8376 76.3997 21.2686C76.2639 20.6995 76.1992 20.0917 76.1992 19.445V19.4191C76.1992 18.4621 76.348 17.5827 76.6389 16.7873C76.9364 15.9919 77.3567 15.3065 77.9064 14.7309C78.456 14.1554 79.1221 13.7092 79.9045 13.3924C80.687 13.0755 81.5599 12.9138 82.5235 12.9138C83.39 12.9138 84.1659 13.0302 84.8708 13.2566C85.5692 13.4829 86.177 13.7998 86.6879 14.2071C87.1987 14.6145 87.619 15.0931 87.9488 15.6556C88.2786 16.2182 88.5114 16.839 88.6472 17.5115H85.3687C85.2846 17.1559 85.1553 16.8519 84.9936 16.5868C84.8255 16.3217 84.6315 16.1083 84.3923 15.9337C84.1595 15.7591 83.8879 15.6298 83.5775 15.5457C83.2736 15.4616 82.9438 15.4164 82.5881 15.4164C82.1419 15.4164 81.7345 15.5069 81.3724 15.688C81.0103 15.869 80.6999 16.1277 80.4348 16.4704C80.1696 16.8131 79.9692 17.2335 79.8269 17.7314C79.6847 18.2293 79.6135 18.7919 79.6135 19.4191V19.445C79.6135 19.8718 79.6459 20.2662 79.7105 20.6284C79.7752 20.9905 79.8722 21.3268 79.995 21.6242C80.1179 21.9217 80.2666 22.1868 80.4348 22.4131C80.6094 22.6394 80.8034 22.8334 81.0232 22.9886C81.2431 23.1438 81.4823 23.2667 81.741 23.3443C81.9997 23.4219 82.2777 23.4607 82.5752 23.4607C82.9308 23.4607 83.2606 23.4154 83.5646 23.3314C83.8685 23.2473 84.1401 23.1115 84.3793 22.9369C84.6121 22.7623 84.8126 22.5425 84.9807 22.2773C85.1488 22.0122 85.2717 21.7083 85.3558 21.3656H88.6343C88.4985 22.0316 88.2722 22.6524 87.9359 23.215C87.6061 23.7776 87.1858 24.269 86.6749 24.6764C86.1641 25.0838 85.5627 25.4006 84.8579 25.627C84.1595 25.8533 83.377 25.9632 82.5105 25.9632C81.8833 25.9632 81.2819 25.8921 80.7128 25.7498Z" fill="#06061A"/>
<path d="M93.0515 25.7044C92.4889 25.5298 91.9974 25.2841 91.5836 24.9543C91.1697 24.631 90.8529 24.2365 90.6201 23.7709C90.3937 23.3053 90.2773 22.788 90.2773 22.206V22.1931C90.2773 21.7469 90.3355 21.346 90.4519 20.9839C90.5683 20.6282 90.7429 20.3113 90.9757 20.0268C91.2085 19.7488 91.493 19.503 91.8422 19.2896C92.185 19.0762 92.5859 18.8887 93.045 18.7271C93.4977 18.5654 94.0085 18.4296 94.5646 18.3067C95.1207 18.1903 95.7286 18.0869 96.3882 18.0028C96.8861 17.9381 97.2806 17.8735 97.5715 17.8088C97.869 17.7441 98.0953 17.6601 98.257 17.5631C98.4187 17.4661 98.5221 17.3497 98.5739 17.2139C98.6256 17.0781 98.6514 16.91 98.6514 16.7095V16.6901C98.6514 16.412 98.5997 16.1793 98.4963 15.9853C98.3928 15.7913 98.2441 15.6231 98.0501 15.4938C97.8561 15.3645 97.6168 15.2675 97.3517 15.2028C97.0801 15.1381 96.7762 15.1058 96.4399 15.1058C96.0713 15.1058 95.7351 15.1446 95.4311 15.2222C95.1272 15.2998 94.8685 15.4227 94.6552 15.5843C94.4418 15.7525 94.2672 15.9594 94.1508 16.2116C94.0279 16.4638 93.9632 16.7612 93.9438 17.104H90.827C90.8399 16.4056 90.9951 15.7913 91.2796 15.2675C91.5642 14.7437 91.9586 14.304 92.4501 13.9483C92.948 13.5927 93.5365 13.3275 94.2219 13.1465C94.9074 12.9654 95.6575 12.8749 96.4658 12.8749C97.2999 12.8749 98.0436 12.946 98.7096 13.0818C99.3757 13.2176 99.9383 13.4504 100.397 13.7802C100.857 14.11 101.206 14.5497 101.451 15.0994C101.697 15.649 101.814 16.3344 101.814 17.1622L101.781 21.721C101.781 22.1349 101.788 22.5229 101.801 22.8785C101.814 23.2342 101.833 23.564 101.859 23.8808C101.885 24.1977 101.923 24.4952 101.975 24.7732C102.027 25.0577 102.085 25.3293 102.156 25.6009H98.9489C98.936 25.5039 98.9166 25.4134 98.9101 25.3293C98.8972 25.2453 98.8842 25.1547 98.8778 25.0707C98.8648 24.9866 98.8584 24.8896 98.8454 24.7926C98.839 24.6956 98.8325 24.5857 98.8325 24.4693C98.6256 24.7021 98.3993 24.9155 98.1341 25.0965C97.8755 25.2841 97.5845 25.4393 97.2612 25.5621C96.9378 25.685 96.5822 25.782 96.1877 25.8531C95.7933 25.9178 95.36 25.9501 94.8944 25.9501C94.2348 25.9631 93.6205 25.8725 93.0515 25.7044ZM96.6145 23.6222C96.8602 23.5769 97.0801 23.5187 97.287 23.4347C97.4939 23.3506 97.675 23.2471 97.8431 23.1243C98.0113 23.0014 98.1471 22.8527 98.2635 22.6781C98.3799 22.5035 98.4704 22.3095 98.535 22.0961C98.5997 21.8827 98.632 21.6434 98.632 21.3848V19.3802C98.4187 19.4578 98.2182 19.5289 98.0307 19.5871C97.8431 19.6453 97.6621 19.7035 97.481 19.7552C97.3064 19.807 97.1318 19.8522 96.9702 19.8975C96.802 19.9428 96.6468 19.9816 96.4981 20.0204C96.1424 20.1173 95.8321 20.2014 95.554 20.2855C95.2759 20.3695 95.0367 20.4536 94.8298 20.5377C94.6228 20.6217 94.4418 20.7187 94.2995 20.8157C94.1572 20.9127 94.0344 21.0227 93.9438 21.1391C93.8533 21.2554 93.7886 21.3848 93.7434 21.527C93.6981 21.6693 93.6787 21.831 93.6787 22.012V22.025C93.6787 22.2901 93.7304 22.5293 93.8339 22.7363C93.9374 22.9432 94.0796 23.1178 94.2672 23.2601C94.4547 23.4023 94.681 23.5123 94.9526 23.5834C95.2242 23.661 95.5281 23.6933 95.8644 23.6933C96.1166 23.6868 96.3688 23.6675 96.6145 23.6222Z" fill="#06061A"/>
<path d="M108.417 25.7754C107.939 25.6525 107.499 25.4585 107.079 25.2128C106.665 24.9606 106.283 24.6502 105.941 24.2881C105.598 23.9259 105.307 23.4992 105.055 23.0142C104.809 22.5292 104.615 21.9925 104.486 21.404C104.35 20.8156 104.285 20.1754 104.285 19.4835V19.4576C104.285 18.423 104.434 17.4982 104.731 16.6964C105.029 15.8881 105.43 15.2156 105.941 14.6659C106.445 14.1163 107.04 13.696 107.725 13.4114C108.411 13.1269 109.129 12.9782 109.892 12.9782C110.331 12.9782 110.745 13.0234 111.127 13.114C111.515 13.2045 111.864 13.3338 112.187 13.4955C112.511 13.6636 112.795 13.8576 113.054 14.0839C113.306 14.3103 113.519 14.5625 113.681 14.8276V8.99481H116.966V25.6072H113.681V24.1135C113.513 24.3786 113.306 24.6308 113.054 24.8571C112.802 25.0834 112.511 25.2839 112.187 25.4456C111.864 25.6137 111.515 25.7366 111.127 25.8271C110.739 25.9176 110.331 25.9629 109.892 25.9629C109.387 25.9629 108.896 25.8982 108.417 25.7754ZM111.625 23.3569C111.89 23.2793 112.129 23.1629 112.355 23.0142C112.582 22.8654 112.782 22.6779 112.963 22.4516C113.144 22.2253 113.293 21.9666 113.416 21.6756C113.539 21.3781 113.629 21.0484 113.7 20.6862C113.765 20.3241 113.797 19.9167 113.797 19.477V19.4511C113.797 19.0114 113.765 18.6105 113.7 18.2419C113.636 17.8798 113.539 17.5435 113.416 17.2525C113.293 16.9551 113.144 16.6964 112.963 16.4765C112.782 16.2502 112.582 16.0692 112.355 15.914C112.129 15.7652 111.89 15.6488 111.625 15.5712C111.359 15.4936 111.075 15.4548 110.771 15.4548C110.467 15.4548 110.183 15.4936 109.917 15.5712C109.652 15.6488 109.413 15.7652 109.187 15.914C108.96 16.0627 108.76 16.2502 108.579 16.4765C108.398 16.7029 108.249 16.9615 108.126 17.2525C108.003 17.55 107.913 17.8798 107.842 18.2419C107.777 18.604 107.745 19.0114 107.745 19.4511V19.477C107.745 19.9167 107.777 20.3176 107.842 20.6862C107.906 21.0484 108.003 21.3846 108.126 21.6756C108.249 21.9731 108.398 22.2317 108.579 22.4516C108.76 22.6779 108.96 22.859 109.187 23.0142C109.413 23.1629 109.652 23.2793 109.917 23.3569C110.183 23.4345 110.467 23.4733 110.771 23.4733C111.075 23.4733 111.359 23.4345 111.625 23.3569Z" fill="#06061A"/>
<path d="M70.1953 30.1404H73.4738L81.6022 43.6554H81.6281L81.6022 39.9565V30.1404H84.0207V46.7528H80.7228L72.6138 33.2379H72.5879L72.6138 36.9367V46.7528H70.1953V30.1404Z" fill="#3E3EFF"/>
<path d="M91.5716 46.856C91.0091 46.7072 90.4917 46.4938 90.0326 46.2158C89.5735 45.9377 89.1661 45.6015 88.8105 45.2135C88.4548 44.8255 88.1509 44.3858 87.9116 43.9073C87.6659 43.4223 87.4848 42.9049 87.3555 42.3424C87.2326 41.7798 87.168 41.1913 87.168 40.5705V40.5447C87.168 39.5812 87.3232 38.7017 87.6336 37.9193C87.944 37.1368 88.3707 36.4579 88.9269 35.9017C89.4765 35.3392 90.1296 34.9059 90.8797 34.602C91.6298 34.298 92.4511 34.1429 93.3305 34.1429C93.9837 34.1429 94.5915 34.2204 95.1541 34.3821C95.7167 34.5438 96.2211 34.7766 96.6802 35.0805C97.1328 35.3844 97.5402 35.7465 97.8894 36.1733C98.2386 36.6001 98.5296 37.0722 98.7624 37.6024C98.9952 38.1327 99.1633 38.7082 99.2668 39.3354C99.3702 39.9627 99.4155 40.6158 99.3896 41.3077V41.3207H88.9139L88.8881 39.3742H96.8418V39.3613C96.816 39.0445 96.7642 38.747 96.6802 38.456C96.5961 38.165 96.4862 37.8999 96.3375 37.6542C96.1952 37.4084 96.0206 37.1886 95.8201 36.9946C95.6197 36.8006 95.3933 36.6325 95.1347 36.4902C94.8825 36.3479 94.598 36.238 94.3005 36.1669C93.9966 36.0893 93.6733 36.0569 93.3176 36.0569C92.7679 36.0569 92.27 36.1475 91.8174 36.3285C91.3647 36.5096 90.9832 36.7876 90.6599 37.1562C90.343 37.5313 90.0973 37.9969 89.9292 38.5595C89.761 39.1221 89.677 39.7881 89.6899 40.5576V40.5835C89.6899 41.0297 89.7287 41.4565 89.7998 41.8574C89.8774 42.2583 89.9874 42.6269 90.1361 42.9567C90.2848 43.2929 90.4659 43.5904 90.6857 43.8555C90.8991 44.1206 91.1513 44.3534 91.4359 44.541C91.7204 44.7285 92.0308 44.8708 92.3735 44.9742C92.7162 45.0712 93.0848 45.123 93.4728 45.123C93.9255 45.123 94.3328 45.0842 94.695 45.0001C95.0506 44.916 95.3675 44.7932 95.6326 44.638C95.8977 44.4763 96.1241 44.2823 96.3116 44.0495C96.4991 43.8167 96.6478 43.5581 96.7642 43.2671H99.215C99.0469 43.8232 98.8077 44.3405 98.4779 44.8126C98.1545 45.2846 97.7471 45.692 97.2557 46.0347C96.7707 46.3775 96.2081 46.6426 95.5679 46.8301C94.9278 47.0176 94.21 47.1146 93.4081 47.1146C92.7421 47.0823 92.1342 47.0047 91.5716 46.856Z" fill="#3E3EFF"/>
<path d="M104.64 46.8107C103.987 46.6296 103.424 46.3645 102.952 46.0218C102.48 45.6791 102.105 45.2523 101.821 44.7414C101.536 44.2306 101.355 43.6551 101.277 43.0019H103.683C103.748 43.4029 103.864 43.7456 104.045 44.0301C104.22 44.3146 104.446 44.5474 104.724 44.7285C105.002 44.9096 105.319 45.0389 105.681 45.123C106.043 45.207 106.451 45.2458 106.903 45.2458C107.155 45.2458 107.395 45.2329 107.627 45.207C107.86 45.1812 108.074 45.1359 108.261 45.0712C108.455 45.0066 108.63 44.9354 108.785 44.8449C108.94 44.7608 109.076 44.6509 109.179 44.528C109.283 44.4052 109.367 44.2629 109.425 44.1077C109.483 43.9525 109.516 43.7844 109.516 43.5969V43.571C109.516 43.2671 109.451 43.0084 109.328 42.808C109.205 42.601 109.031 42.4329 108.804 42.2906C108.578 42.1484 108.313 42.032 108.002 41.935C107.692 41.838 107.349 41.7539 106.981 41.6763L105.177 41.2883C104.672 41.1784 104.207 41.0297 103.767 40.8357C103.334 40.6417 102.952 40.4024 102.635 40.1179C102.318 39.8334 102.066 39.4906 101.885 39.0897C101.704 38.6888 101.614 38.2297 101.614 37.7124V37.6865C101.614 37.1627 101.736 36.6777 101.989 36.2445C102.241 35.8112 102.584 35.4361 103.023 35.1258C103.463 34.8154 103.98 34.5761 104.582 34.4015C105.177 34.2269 105.823 34.1429 106.515 34.1429C107.201 34.1429 107.828 34.214 108.403 34.3498C108.979 34.4856 109.49 34.699 109.923 34.99C110.356 35.281 110.712 35.656 110.99 36.1151C111.268 36.5743 111.443 37.1239 111.533 37.7576H109.128C109.089 37.5248 109.024 37.3179 108.94 37.1368C108.856 36.9622 108.746 36.807 108.623 36.6712C108.5 36.5355 108.358 36.4255 108.196 36.335C108.041 36.2445 107.867 36.1733 107.679 36.1151C107.492 36.0634 107.291 36.0181 107.071 35.9987C106.858 35.9729 106.632 35.9664 106.392 35.9664C106.056 35.9664 105.739 36.0052 105.442 36.0763C105.144 36.1539 104.892 36.2574 104.679 36.3932C104.465 36.529 104.297 36.6971 104.181 36.8911C104.058 37.0851 104 37.3114 104 37.5636V37.5895C104 37.8223 104.045 38.0357 104.129 38.2167C104.213 38.3978 104.336 38.553 104.498 38.6888C104.659 38.8246 104.86 38.9345 105.093 39.0315C105.325 39.1285 105.597 39.2061 105.894 39.2643L107.686 39.6523C108.274 39.7752 108.824 39.9304 109.341 40.105C109.858 40.2796 110.305 40.5059 110.686 40.7839C111.068 41.062 111.365 41.3983 111.578 41.7992C111.792 42.2001 111.902 42.6916 111.902 43.2735V43.2994C111.902 43.7003 111.844 44.0754 111.727 44.4181C111.611 44.7608 111.443 45.0777 111.229 45.3622C111.016 45.6467 110.751 45.8925 110.447 46.1123C110.143 46.3257 109.8 46.5068 109.419 46.6555C109.044 46.7978 108.636 46.9077 108.19 46.9853C107.75 47.0629 107.291 47.0952 106.813 47.0952C106.024 47.0823 105.293 46.9918 104.64 46.8107Z" fill="#3E3EFF"/>
<path d="M117.059 46.5648C116.612 46.442 116.263 46.2415 116.005 45.9634C115.746 45.6854 115.565 45.3168 115.461 44.8577C115.358 44.3985 115.306 43.836 115.306 43.1699V36.5224H113.418V34.4725H115.306V30.5861H117.712V34.4725H120.337V36.5224H117.712V43.1182C117.712 43.4092 117.725 43.6549 117.757 43.8618C117.789 44.0688 117.854 44.2304 117.957 44.3533C118.061 44.4761 118.21 44.5667 118.397 44.6184C118.591 44.6766 118.843 44.7025 119.16 44.7025H120.247V46.7523H118.759C118.067 46.7523 117.498 46.6877 117.059 46.5648Z" fill="#3E3EFF"/>
<path d="M128.676 30.1404H134.722C135.815 30.1404 136.759 30.2633 137.561 30.5025C138.363 30.7483 139.029 31.091 139.552 31.5372C140.076 31.9834 140.471 32.5265 140.729 33.1603C140.988 33.794 141.117 34.5118 141.117 35.3071V35.333C141.117 36.1154 140.988 36.8268 140.729 37.4669C140.471 38.1007 140.076 38.6438 139.552 39.09C139.029 39.5362 138.363 39.8789 137.561 40.1182C136.759 40.3575 135.815 40.4803 134.722 40.4803H131.172V46.7464H128.676V30.1404ZM134.638 38.327C135.297 38.327 135.867 38.2623 136.345 38.1395C136.824 38.0166 137.218 37.8291 137.535 37.5769C137.852 37.3312 138.085 37.0143 138.233 36.6392C138.388 36.2642 138.466 35.8245 138.466 35.333V35.3071C138.466 34.8028 138.388 34.363 138.233 33.988C138.078 33.6129 137.845 33.2961 137.535 33.0439C137.218 32.7917 136.824 32.6041 136.345 32.4813C135.867 32.3584 135.297 32.2938 134.638 32.2938H131.172V38.327H134.638Z" fill="#3E3EFF"/>
<path d="M143.707 34.4728H146.113V36.652C146.294 36.2964 146.507 35.9795 146.759 35.6885C147.011 35.404 147.302 35.1582 147.632 34.9578C147.962 34.7573 148.331 34.6021 148.738 34.4987C149.145 34.3952 149.592 34.337 150.07 34.337H150.296V36.6843H149.65C149.094 36.6843 148.596 36.749 148.162 36.8848C147.729 37.0206 147.354 37.2275 147.057 37.5185C146.753 37.8095 146.52 38.1846 146.358 38.6502C146.197 39.1157 146.119 39.6783 146.119 40.3379V46.7462H143.714V34.4728H143.707Z" fill="#3E3EFF"/>
<path d="M155.399 46.5911C154.636 46.2678 153.982 45.8151 153.446 45.2396C152.909 44.6641 152.495 43.9851 152.211 43.1897C151.926 42.3944 151.777 41.5343 151.777 40.6096V40.5837C151.777 39.6461 151.92 38.7861 152.211 38.0036C152.495 37.2212 152.909 36.5357 153.446 35.9602C153.982 35.3847 154.636 34.932 155.399 34.6087C156.162 34.2854 157.028 34.1237 157.985 34.1237C158.942 34.1237 159.809 34.2854 160.578 34.6087C161.348 34.932 162.001 35.3782 162.531 35.9602C163.068 36.5357 163.475 37.2212 163.76 38.0036C164.044 38.7861 164.193 39.6461 164.193 40.5837V40.6096C164.193 41.5343 164.051 42.3944 163.76 43.1897C163.475 43.9851 163.061 44.6641 162.531 45.2396C161.994 45.8151 161.348 46.2613 160.578 46.5911C159.809 46.9144 158.942 47.0826 157.985 47.0826C157.022 47.0826 156.162 46.9209 155.399 46.5911ZM159.582 44.7611C160.042 44.5412 160.423 44.2308 160.733 43.8364C161.037 43.4419 161.27 42.9699 161.425 42.4202C161.581 41.877 161.658 41.2692 161.658 40.6096V40.5837C161.658 39.9242 161.581 39.3228 161.425 38.7731C161.27 38.2299 161.044 37.7579 160.733 37.3634C160.43 36.969 160.042 36.6651 159.582 36.4452C159.123 36.2253 158.593 36.1154 157.985 36.1154C157.377 36.1154 156.847 36.2253 156.388 36.4452C155.929 36.6651 155.547 36.969 155.237 37.3634C154.933 37.7579 154.7 38.2235 154.545 38.7731C154.39 39.3163 154.312 39.9242 154.312 40.5837V40.6096C154.312 41.2692 154.39 41.8706 154.545 42.4202C154.7 42.9634 154.927 43.4355 155.237 43.8364C155.541 44.2308 155.929 44.5412 156.388 44.7611C156.847 44.981 157.377 45.0909 157.985 45.0909C158.587 45.0909 159.117 44.981 159.582 44.7611Z" fill="#3E3EFF"/>
<path d="M170.51 46.889C170.025 46.7597 169.566 46.5721 169.146 46.3199C168.719 46.0677 168.331 45.7574 167.982 45.3888C167.626 45.0202 167.329 44.5934 167.083 44.1149C166.838 43.6363 166.644 43.1061 166.508 42.5176C166.372 41.9357 166.301 41.3019 166.301 40.6294V40.6036C166.301 39.5819 166.45 38.6701 166.753 37.8747C167.057 37.0793 167.465 36.4003 167.982 35.8507C168.499 35.2946 169.107 34.8743 169.806 34.5833C170.504 34.2923 171.248 34.15 172.03 34.15C172.47 34.15 172.884 34.1953 173.272 34.2923C173.66 34.3893 174.022 34.5186 174.352 34.6932C174.681 34.8678 174.979 35.0747 175.244 35.314C175.509 35.5532 175.735 35.8119 175.916 36.0964V30.1472H178.322V46.7597H175.916V45.143C175.735 45.4276 175.509 45.6862 175.244 45.9255C174.979 46.1647 174.681 46.3717 174.352 46.5463C174.022 46.7209 173.66 46.8502 173.272 46.9472C172.884 47.0442 172.47 47.0895 172.03 47.0895C171.5 47.083 170.995 47.0183 170.51 46.889ZM173.395 44.9555C173.698 44.8714 173.989 44.7486 174.255 44.5869C174.52 44.4188 174.765 44.2183 174.979 43.9661C175.192 43.7204 175.38 43.4294 175.528 43.0996C175.677 42.7698 175.794 42.4012 175.878 41.9874C175.962 41.5735 176.001 41.1209 176.001 40.6294V40.6036C176.001 40.1056 175.962 39.653 175.878 39.2456C175.794 38.8317 175.677 38.4632 175.528 38.1334C175.38 37.8036 175.199 37.5126 174.979 37.2669C174.765 37.0211 174.52 36.8142 174.255 36.6461C173.989 36.4779 173.698 36.3551 173.395 36.2775C173.091 36.1934 172.761 36.1546 172.418 36.1546C172.075 36.1546 171.746 36.1934 171.435 36.2775C171.125 36.3615 170.84 36.4844 170.575 36.6461C170.31 36.8142 170.071 37.0147 169.857 37.2669C169.644 37.5126 169.456 37.8036 169.308 38.1334C169.159 38.4632 169.043 38.8317 168.959 39.2456C168.874 39.6595 168.836 40.1121 168.836 40.6036V40.6294C168.836 41.1274 168.874 41.58 168.959 41.9874C169.043 42.3948 169.159 42.7698 169.308 43.0996C169.456 43.4294 169.637 43.7204 169.857 43.9661C170.071 44.2119 170.31 44.4188 170.575 44.5869C170.84 44.7551 171.125 44.8779 171.435 44.9555C171.746 45.0396 172.075 45.0784 172.418 45.0784C172.761 45.0784 173.091 45.0396 173.395 44.9555Z" fill="#3E3EFF"/>
<path d="M184.463 46.7141C183.907 46.4684 183.442 46.1192 183.067 45.6665C182.692 45.2139 182.413 44.6577 182.226 44.0046C182.038 43.3515 181.941 42.6208 181.941 41.7996V34.473H184.347V41.2952C184.347 41.903 184.405 42.4333 184.528 42.9053C184.651 43.3709 184.832 43.7654 185.071 44.0822C185.31 44.3991 185.614 44.6383 185.977 44.8C186.339 44.9617 186.765 45.0393 187.257 45.0393C187.742 45.0393 188.169 44.9617 188.537 44.8C188.899 44.6383 189.203 44.3991 189.443 44.0822C189.682 43.7654 189.863 43.3709 189.979 42.9053C190.096 42.4397 190.154 41.903 190.154 41.2952V34.473H192.559V46.7529H190.154V45.2785C189.947 45.5437 189.727 45.7894 189.481 46.0157C189.236 46.242 188.964 46.4296 188.66 46.5848C188.356 46.74 188.02 46.8628 187.651 46.9469C187.283 47.031 186.869 47.0762 186.416 47.0762C185.673 47.0827 185.019 46.9598 184.463 46.7141Z" fill="#3E3EFF"/>
<path d="M199.856 46.8624C199.313 46.7201 198.821 46.5132 198.369 46.2416C197.922 45.9765 197.515 45.6467 197.159 45.2652C196.804 44.8772 196.5 44.4504 196.26 43.9719C196.015 43.4934 195.827 42.9696 195.698 42.407C195.569 41.8444 195.504 41.243 195.504 40.6158V40.5899C195.504 39.6458 195.646 38.7793 195.937 37.9839C196.222 37.1885 196.636 36.5096 197.166 35.9405C197.696 35.3714 198.336 34.9253 199.086 34.6084C199.836 34.2915 200.677 34.1299 201.602 34.1299C202.397 34.1299 203.121 34.2333 203.775 34.4467C204.428 34.6601 205.003 34.9576 205.495 35.3391C205.986 35.7206 206.393 36.1798 206.723 36.71C207.047 37.2467 207.279 37.8352 207.415 38.4754H204.964C204.861 38.1003 204.712 37.764 204.512 37.4666C204.311 37.1691 204.066 36.9234 203.781 36.7229C203.496 36.5225 203.173 36.3738 202.811 36.2703C202.449 36.1668 202.054 36.1151 201.634 36.1151C201.117 36.1151 200.638 36.2121 200.205 36.4126C199.772 36.613 199.39 36.904 199.073 37.2855C198.757 37.6671 198.511 38.1326 198.33 38.6888C198.155 39.2449 198.065 39.8721 198.065 40.577V40.6028C198.065 41.0749 198.103 41.5146 198.188 41.9155C198.272 42.3229 198.388 42.6915 198.537 43.0213C198.685 43.3576 198.866 43.6486 199.08 43.9072C199.293 44.1594 199.533 44.3793 199.791 44.5474C200.056 44.722 200.341 44.8513 200.651 44.9419C200.962 45.0324 201.291 45.0777 201.634 45.0777C202.061 45.0777 202.449 45.0259 202.811 44.916C203.173 44.8125 203.496 44.6573 203.781 44.4569C204.066 44.2564 204.311 44.0107 204.512 43.7132C204.712 43.4158 204.861 43.086 204.964 42.7044H207.415C207.279 43.3511 207.053 43.9395 206.723 44.4698C206.4 45.0065 205.986 45.4656 205.495 45.8472C205.003 46.2352 204.428 46.5326 203.775 46.7395C203.121 46.9529 202.397 47.0564 201.602 47.0564C200.981 47.0823 200.399 47.0047 199.856 46.8624Z" fill="#3E3EFF"/>
<path d="M212.488 46.5648C212.042 46.442 211.693 46.2415 211.434 45.9634C211.176 45.6854 210.995 45.3168 210.891 44.8577C210.788 44.3985 210.736 43.836 210.736 43.1699V36.5224H208.848V34.4725H210.736V30.5861H213.141V34.4725H215.767V36.5224H213.141V43.1182C213.141 43.4092 213.154 43.6549 213.187 43.8618C213.219 44.0688 213.284 44.2304 213.387 44.3533C213.491 44.4761 213.639 44.5667 213.827 44.6184C214.021 44.6766 214.273 44.7025 214.59 44.7025H215.676V46.7523H214.189C213.504 46.7523 212.934 46.6877 212.488 46.5648Z" fill="#3E3EFF"/>
<path d="M218.66 30.1404H221.066V32.8757H218.66V30.1404ZM218.66 34.473H221.066V46.7528H218.66V34.473Z" fill="#3E3EFF"/>
<path d="M227.641 46.5911C226.878 46.2678 226.225 45.8151 225.688 45.2396C225.151 44.6641 224.737 43.9851 224.453 43.1897C224.168 42.3944 224.02 41.5343 224.02 40.6096V40.5837C224.02 39.6461 224.162 38.7861 224.453 38.0036C224.737 37.2212 225.151 36.5357 225.688 35.9602C226.225 35.3847 226.878 34.932 227.641 34.6087C228.404 34.2854 229.27 34.1237 230.227 34.1237C231.184 34.1237 232.051 34.2854 232.82 34.6087C233.59 34.932 234.243 35.3782 234.773 35.9602C235.31 36.5357 235.717 37.2212 236.002 38.0036C236.286 38.7861 236.435 39.6461 236.435 40.5837V40.6096C236.435 41.5343 236.293 42.3944 236.002 43.1897C235.717 43.9851 235.304 44.6641 234.773 45.2396C234.237 45.8151 233.59 46.2613 232.82 46.5911C232.051 46.9144 231.184 47.0826 230.227 47.0826C229.264 47.0826 228.404 46.9209 227.641 46.5911ZM231.818 44.7611C232.277 44.5412 232.659 44.2308 232.969 43.8364C233.273 43.4419 233.506 42.9699 233.661 42.4202C233.816 41.877 233.894 41.2692 233.894 40.6096V40.5837C233.894 39.9242 233.816 39.3228 233.661 38.7731C233.506 38.2299 233.28 37.7579 232.969 37.3634C232.665 36.969 232.277 36.6651 231.818 36.4452C231.359 36.2253 230.829 36.1154 230.221 36.1154C229.613 36.1154 229.083 36.2253 228.624 36.4452C228.165 36.6651 227.783 36.969 227.473 37.3634C227.169 37.7579 226.936 38.2235 226.781 38.7731C226.626 39.3163 226.548 39.9242 226.548 40.5837V40.6096C226.548 41.2692 226.626 41.8706 226.781 42.4202C226.936 42.9634 227.162 43.4355 227.473 43.8364C227.777 44.2308 228.165 44.5412 228.624 44.7611C229.083 44.981 229.613 45.0909 230.221 45.0909C230.829 45.0909 231.359 44.981 231.818 44.7611Z" fill="#3E3EFF"/>
<path d="M239.387 34.473H241.792V35.9474C241.999 35.6693 242.219 35.4236 242.465 35.2037C242.711 34.9839 242.982 34.7963 243.286 34.6411C243.59 34.4859 243.926 34.3631 244.295 34.279C244.663 34.195 245.077 34.1497 245.53 34.1497C246.274 34.1497 246.927 34.2726 247.483 34.5118C248.039 34.7575 248.504 35.1067 248.88 35.5594C249.255 36.012 249.533 36.5682 249.72 37.2213C249.908 37.8744 250.005 38.6051 250.005 39.4263V46.7529H247.599V39.9307C247.599 39.3229 247.541 38.7926 247.425 38.3206C247.308 37.855 247.127 37.4605 246.881 37.1437C246.636 36.8268 246.332 36.5876 245.97 36.4259C245.607 36.2642 245.181 36.1866 244.689 36.1866C244.204 36.1866 243.777 36.2642 243.409 36.4259C243.047 36.5876 242.743 36.8268 242.504 37.1437C242.264 37.4605 242.083 37.855 241.967 38.3206C241.85 38.7862 241.792 39.3229 241.792 39.9307V46.7529H239.387V34.473Z" fill="#3E3EFF"/>
<path d="M31.6875 35.417H56.0015V55.9998H31.6875V35.417Z" fill="#181863"/>
<path d="M56.0015 0H31.6875V34.2724H56.0015V0Z" fill="#9999FF"/>
<path d="M30.5348 0H0V55.9998H30.5348V0Z" fill="#3E3EFF"/>
</svg>
