<svg width="177" height="24" viewBox="0 0 177 24" fill="none" xmlns="http://www.w3.org/2000/svg">
<path fill-rule="evenodd" clip-rule="evenodd" d="M50.9187 22.93C51.5074 23.2848 52.1369 23.5513 52.8099 23.7294L52.8112 23.7281C53.4829 23.9048 54.1804 23.9946 54.9023 23.9946C55.5251 23.9946 56.1083 23.9307 56.6522 23.8028C57.196 23.675 57.6964 23.4956 58.1518 23.2617C58.6073 23.0279 59.0152 22.7505 59.3768 22.4283C59.7385 22.106 60.0349 21.7566 60.2688 21.3786V23.4956H64.9173V0H60.2688V8.24881C60.0349 7.87083 59.7371 7.52141 59.3768 7.19918C59.0152 6.87695 58.6073 6.59959 58.1518 6.36573C57.6964 6.13324 57.196 5.95241 56.6522 5.82461C56.107 5.6968 55.5251 5.6329 54.9023 5.6329C53.8242 5.6329 52.8031 5.83548 51.8364 6.24065C50.8697 6.64582 50.0281 7.23725 49.3116 8.01495C48.5951 8.79265 48.0254 9.74983 47.6039 10.8892C47.1811 12.0285 46.9703 13.3297 46.9703 14.7967V14.8307C46.9703 15.8083 47.0641 16.7138 47.2531 17.5472C47.4408 18.3807 47.7113 19.138 48.0607 19.8219C48.4102 20.5058 48.8276 21.1054 49.3102 21.622C49.7943 22.1387 50.3299 22.5751 50.9187 22.93ZM58.3762 19.8314C58.0594 20.0421 57.7154 20.2026 57.3429 20.3141C56.9703 20.4256 56.5679 20.4813 56.1342 20.4813C55.7004 20.4813 55.298 20.4256 54.9255 20.3141C54.5529 20.2039 54.2089 20.0421 53.8921 19.8314C53.5753 19.6207 53.2898 19.3569 53.0342 19.0401C52.7786 18.7233 52.5652 18.3562 52.3925 17.9402C52.2198 17.5241 52.0866 17.0578 51.9928 16.5411C51.8989 16.0245 51.8514 15.4561 51.8514 14.8334V14.7995C51.8514 14.1781 51.8976 13.6084 51.9928 13.0918C52.0866 12.5765 52.2198 12.1088 52.3925 11.6927C52.5652 11.2753 52.7786 10.9096 53.0342 10.5928C53.2898 10.276 53.5753 10.0122 53.8921 9.80149C54.2089 9.59075 54.5529 9.43032 54.9255 9.31883C55.298 9.20734 55.7004 9.15159 56.1342 9.15159C56.5679 9.15159 56.9703 9.20734 57.3429 9.31883C57.7154 9.42896 58.0594 9.59075 58.3762 9.80149C58.693 10.0122 58.9785 10.276 59.2341 10.5928C59.4897 10.9096 59.7032 11.2767 59.8758 11.6927C60.0485 12.1088 60.1817 12.5751 60.2756 13.0918C60.3694 13.6084 60.417 14.1767 60.417 14.7995V14.8334C60.417 15.4548 60.3694 16.0245 60.2756 16.5411C60.1817 17.0564 60.0485 17.5241 59.8758 17.9402C59.7032 18.3562 59.4897 18.7233 59.2341 19.0401C58.9785 19.3569 58.693 19.6207 58.3762 19.8314ZM5.11265 0.00161133H0.296875V23.4972H5.11265V0.00161133ZM12.7232 22.8226C13.3839 23.2046 14.1154 23.4969 14.9149 23.6968L14.9176 23.6995C15.717 23.8994 16.5722 24 17.4832 24C18.7055 24 19.8109 23.8423 20.7993 23.5255C21.7877 23.2087 22.6429 22.7614 23.3649 22.1835C24.0869 21.6057 24.681 20.9164 25.1474 20.1169C25.6137 19.3175 25.9414 18.4459 26.1304 17.501H21.4981C21.3758 17.9905 21.199 18.4201 20.9652 18.7926C20.7313 19.1652 20.4485 19.4752 20.1154 19.7253C19.7823 19.9755 19.3989 20.1618 18.9652 20.2841C18.5315 20.4065 18.0651 20.4677 17.5648 20.4677C17.1433 20.4677 16.749 20.412 16.3819 20.3005C16.0148 20.189 15.6763 20.0231 15.3649 19.8001C15.0535 19.5785 14.7762 19.3066 14.5315 18.9844C14.2867 18.6621 14.0787 18.2909 13.906 17.8681C13.7334 17.4453 13.6001 16.9762 13.5063 16.4595C13.4125 15.9429 13.3649 15.3841 13.3649 14.7845V14.7505C13.3649 13.8613 13.4655 13.0646 13.6654 12.3589C13.8652 11.6546 14.1508 11.0591 14.5233 10.5765C14.8945 10.0938 15.3363 9.72399 15.8476 9.46838C16.3574 9.21278 16.9298 9.08497 17.5634 9.08497C18.0637 9.08497 18.5301 9.14615 18.9638 9.26852C19.3975 9.39089 19.7809 9.57307 20.114 9.8178C20.4472 10.0625 20.73 10.3698 20.9638 10.7423C21.1963 11.1149 21.3744 11.55 21.4968 12.0503H26.129C25.94 11.0958 25.6123 10.2203 25.146 9.42623C24.6796 8.63086 24.0855 7.94833 23.3635 7.37593C22.6416 6.80353 21.7864 6.35622 20.7979 6.03399C19.8095 5.71312 18.7041 5.55132 17.4818 5.55132C16.1154 5.55132 14.8795 5.77566 13.7741 6.22569C12.6688 6.67573 11.7279 7.30659 10.9502 8.11692C10.1725 8.92861 9.57428 9.89802 9.15824 11.0251C8.74084 12.1523 8.53281 13.3936 8.53281 14.7491V14.7831C8.53281 15.6954 8.62663 16.5534 8.81562 17.3583C9.0046 18.1631 9.27653 18.9069 9.63275 19.5907C9.98761 20.2733 10.4268 20.8878 10.9489 21.4317C11.471 21.9755 12.0624 22.4391 12.7232 22.8226ZM31.8829 23.6302C31.0834 23.3855 30.3914 23.0334 29.8081 22.5725C29.2248 22.1115 28.7721 21.5527 28.4499 20.8974C28.1276 20.2421 27.9672 19.5038 27.9672 18.6812V18.6649C27.9672 18.0313 28.0501 17.463 28.2174 16.9572C28.3846 16.4514 28.6307 16.0014 28.9584 15.6071C29.286 15.2128 29.6939 14.8661 30.1834 14.5657C30.6715 14.2652 31.2384 14.0014 31.8829 13.7744C32.5274 13.5473 33.2439 13.3502 34.0325 13.1829C34.821 13.0157 35.6817 12.8716 36.6157 12.7492C37.3159 12.6608 37.8734 12.5684 38.2908 12.4746C38.7068 12.3807 39.029 12.2638 39.2575 12.1251C39.4845 11.9865 39.6354 11.8219 39.7075 11.633C39.7796 11.444 39.8163 11.206 39.8163 10.9164V10.8824C39.8163 10.4936 39.7442 10.1605 39.6001 9.88313C39.456 9.60576 39.2439 9.37463 38.9665 9.19108C38.6891 9.00753 38.3588 8.87157 37.9753 8.7832C37.5919 8.69482 37.1609 8.64995 36.6837 8.64995C36.1616 8.64995 35.6871 8.7057 35.2588 8.81719C34.8306 8.92867 34.4648 9.09999 34.1589 9.33384C33.853 9.5677 33.6151 9.86137 33.4424 10.2176C33.2697 10.5738 33.1732 10.9953 33.1514 11.4834H28.7354C28.7571 10.495 28.9706 9.62888 29.3771 8.88381C29.7823 8.1401 30.3357 7.51739 31.0345 7.01705C31.7347 6.51671 32.5695 6.1401 33.543 5.88449C34.5151 5.62888 35.5729 5.50108 36.7177 5.50108C37.8625 5.50108 38.9529 5.59897 39.8924 5.79203C40.8305 5.98646 41.6259 6.31685 42.2758 6.7832C42.9257 7.24955 43.4233 7.87225 43.7673 8.64995C44.1113 9.42766 44.284 10.3998 44.284 11.5663L44.2337 18.015C44.2337 18.6037 44.2418 19.1476 44.2581 19.6479C44.2745 20.1483 44.303 20.62 44.3411 21.0646C44.3805 21.5092 44.4349 21.9307 44.5083 22.3318C44.5804 22.7315 44.666 23.1204 44.7666 23.4984H40.2337C40.2106 23.3651 40.1915 23.2373 40.1752 23.1149C40.1671 23.0538 40.1586 22.9927 40.1501 22.9316C40.1416 22.8704 40.1331 22.8091 40.1249 22.7478C40.1086 22.6255 40.0936 22.495 40.0828 22.3563C40.0719 22.2176 40.0664 22.0653 40.0664 21.8981C39.7768 22.2312 39.4492 22.5289 39.0834 22.79C38.7163 23.051 38.3057 23.2713 37.8503 23.448C37.3948 23.6262 36.889 23.7621 36.3343 23.8559C35.7782 23.9497 35.1677 23.9973 34.5015 23.9973C33.5566 23.9973 32.6851 23.875 31.8856 23.6302H31.8829ZM36.9148 20.6894C37.2588 20.6282 37.5756 20.5398 37.8652 20.4229C38.1535 20.306 38.4145 20.1591 38.6484 19.981C38.8822 19.8029 39.0794 19.5922 39.2398 19.3474C39.4002 19.1027 39.528 18.8281 39.6232 18.5221C39.717 18.2162 39.7646 17.8804 39.7646 17.5133V14.6799C39.4641 14.7914 39.1813 14.8879 38.9148 14.9722C38.6484 15.0551 38.39 15.1326 38.1399 15.206C37.8897 15.2781 37.6477 15.3447 37.4152 15.4059C37.1813 15.4671 36.9597 15.5255 36.749 15.5813C36.2486 15.7145 35.804 15.8396 35.4165 15.9565C35.0277 16.0735 34.6864 16.1931 34.3914 16.3141C34.0964 16.4365 33.8475 16.567 33.6409 16.7057C33.4356 16.8444 33.2683 16.9967 33.1405 17.1639C33.0127 17.3311 32.9176 17.5133 32.8577 17.7132C32.7966 17.913 32.7666 18.1415 32.7666 18.3957V18.412C32.7666 18.79 32.8387 19.1258 32.9828 19.4195C33.1269 19.7145 33.3295 19.9606 33.5906 20.1605C33.8516 20.3603 34.1739 20.5126 34.5573 20.6187C34.9407 20.7247 35.3703 20.7764 35.8489 20.7764C36.216 20.7764 36.5709 20.7465 36.9148 20.6853V20.6894Z" fill="#0C2340"/>
<path fill-rule="evenodd" clip-rule="evenodd" d="M80.8877 3H75.5029V10.8519H76.684V7.38801H80.4653V6.35759H76.684V4.03042H80.8877V3ZM82.1579 10.1389C82.4121 10.4092 82.7202 10.6231 83.0821 10.7765C83.4439 10.9312 83.8515 11.0079 84.3048 11.0079C84.7582 11.0079 85.1657 10.9312 85.5303 10.7765C85.8935 10.6218 86.2015 10.4092 86.4544 10.1389C86.7073 9.86848 86.901 9.54564 87.0369 9.17033C87.1728 8.79502 87.24 8.38877 87.24 7.95024V7.93948C87.24 7.49691 87.1728 7.09066 87.0369 6.71939C86.901 6.34812 86.7073 6.02662 86.4544 5.75355C86.2015 5.48047 85.8935 5.26793 85.5303 5.11593C85.1657 4.96392 84.7582 4.88724 84.3048 4.88724C83.8515 4.88724 83.4439 4.96392 83.0821 5.11593C82.7202 5.26793 82.4121 5.48047 82.1579 5.75355C81.9037 6.02662 81.7086 6.34812 81.5727 6.71939C81.4369 7.09066 81.3696 7.49826 81.3696 7.93948V7.95024C81.3696 8.38877 81.4369 8.79502 81.5727 9.17033C81.7086 9.54429 81.9037 9.86848 82.1579 10.1389ZM85.6029 9.473C85.4577 9.65998 85.2761 9.8066 85.0595 9.91018C84.8416 10.0138 84.5914 10.0662 84.3048 10.0662C84.0183 10.0662 83.7668 10.0138 83.5502 9.91018C83.3323 9.8066 83.152 9.65998 83.0067 9.473C82.8628 9.28467 82.7538 9.06271 82.6812 8.80444C82.6085 8.5475 82.5722 8.26232 82.5722 7.95024V7.93948C82.5722 7.62874 82.6085 7.34356 82.6812 7.08528C82.7538 6.82701 82.8614 6.60505 83.0067 6.41942C83.152 6.23378 83.3336 6.0885 83.5502 5.98492C83.7668 5.88134 84.0183 5.82888 84.3048 5.82888C84.5914 5.82888 84.8416 5.88134 85.0595 5.98492C85.2774 6.0885 85.4577 6.23378 85.6029 6.41942C85.7469 6.60505 85.8558 6.82701 85.9285 7.08528C86.0011 7.34222 86.0374 7.6274 86.0374 7.93948V7.95024C86.0374 8.26098 86.0011 8.54616 85.9285 8.80444C85.8558 9.06271 85.7482 9.28601 85.6029 9.473ZM89.7222 10.7765C89.3603 10.6231 89.0523 10.4092 88.798 10.1389C88.5438 9.86848 88.3487 9.54429 88.2129 9.17033C88.077 8.79502 88.0098 8.38877 88.0098 7.95024V7.93948C88.0098 7.49826 88.077 7.09066 88.2129 6.71939C88.3487 6.34812 88.5438 6.02662 88.798 5.75355C89.0523 5.48047 89.3603 5.26793 89.7222 5.11593C90.084 4.96392 90.4916 4.88724 90.945 4.88724C91.3983 4.88724 91.8059 4.96392 92.1704 5.11593C92.5336 5.26793 92.8417 5.48047 93.0946 5.75355C93.3475 6.02662 93.5412 6.34812 93.677 6.71939C93.8129 7.09066 93.8802 7.49691 93.8802 7.93948V7.95024C93.8802 8.38877 93.8129 8.79502 93.677 9.17033C93.5412 9.54564 93.3475 9.86848 93.0946 10.1389C92.8417 10.4092 92.5336 10.6218 92.1704 10.7765C91.8059 10.9312 91.3983 11.0079 90.945 11.0079C90.4916 11.0079 90.084 10.9312 89.7222 10.7765ZM91.6983 9.91018C91.9148 9.8066 92.0964 9.65998 92.2417 9.473C92.387 9.28601 92.4946 9.06271 92.5673 8.80444C92.6399 8.54616 92.6762 8.26098 92.6762 7.95024V7.93948C92.6762 7.6274 92.6399 7.34222 92.5673 7.08528C92.4946 6.82701 92.3857 6.60505 92.2417 6.41942C92.0964 6.23378 91.9162 6.0885 91.6983 5.98492C91.4803 5.88134 91.2301 5.82888 90.9436 5.82888C90.6571 5.82888 90.4055 5.88134 90.189 5.98492C89.9724 6.0885 89.7908 6.23378 89.6455 6.41942C89.5002 6.60505 89.3926 6.82701 89.32 7.08528C89.2473 7.34356 89.211 7.62874 89.211 7.93948V7.95024C89.211 8.26232 89.2473 8.5475 89.32 8.80444C89.3926 9.06271 89.5016 9.28467 89.6455 9.473C89.7908 9.65998 89.971 9.8066 90.189 9.91018C90.4055 10.0138 90.6571 10.0662 90.9436 10.0662C91.2301 10.0662 91.4803 10.0138 91.6983 9.91018ZM95.5215 10.4819C95.6439 10.6138 95.8093 10.7079 96.0192 10.7658C96.229 10.8236 96.4967 10.8518 96.8236 10.8518H97.5258V9.88331H97.0133C96.8653 9.88331 96.7456 9.86986 96.6541 9.8443C96.564 9.81874 96.494 9.77704 96.4456 9.7192C96.3972 9.66136 96.3662 9.58468 96.3514 9.48783C96.3353 9.39097 96.3286 9.27394 96.3286 9.13673V6.01858H97.5702V5.05005H96.3286V3.21252H95.1932V5.05005H94.3027V6.01858H95.1932V9.1596C95.1932 9.47572 95.2174 9.74207 95.2659 9.95864C95.313 10.1752 95.399 10.3501 95.5215 10.4819ZM98.2196 5.04867H99.3953L100.734 9.6371L102.118 5.04867H103.331L104.775 9.64079L106.143 5.04867H107.228L105.441 10.8518H104.165L102.684 6.26308L101.287 10.8518H100.001L98.2182 5.04867H98.2196ZM108.899 10.5976C109.116 10.7294 109.358 10.8317 109.626 10.9016L109.619 10.903C109.887 10.9743 110.175 11.0092 110.483 11.0092C110.862 11.0092 111.202 10.9648 111.505 10.8761C111.808 10.7873 112.074 10.6622 112.304 10.5007C112.535 10.3393 112.726 10.1483 112.881 9.92501C113.036 9.70305 113.152 9.45957 113.23 9.19592H112.071C112.016 9.33312 111.945 9.45688 111.857 9.56584C111.77 9.6748 111.664 9.76762 111.537 9.8443C111.411 9.91963 111.263 9.97747 111.095 10.0165C110.927 10.0555 110.734 10.0743 110.519 10.0743C110.333 10.0743 110.16 10.0515 109.998 10.0044C109.837 9.95864 109.689 9.89003 109.556 9.80125C109.421 9.71247 109.304 9.60485 109.202 9.4784C109.101 9.35196 109.014 9.20937 108.944 9.05198C108.874 8.89459 108.82 8.72106 108.785 8.53139C108.77 8.44954 108.758 8.36569 108.75 8.27984H113.317V8.27446C113.329 7.94892 113.309 7.63684 113.259 7.34224C113.209 7.0463 113.129 6.77323 113.02 6.52302C112.911 6.27282 112.774 6.04683 112.608 5.84639C112.443 5.64596 112.253 5.47377 112.038 5.33118C111.822 5.18859 111.582 5.07963 111.317 5.00296C111.05 4.92628 110.764 4.88862 110.456 4.88862C110.04 4.88862 109.654 4.95991 109.298 5.10519C108.941 5.24913 108.633 5.45494 108.373 5.71994C108.114 5.98495 107.911 6.30376 107.764 6.67503C107.616 7.0463 107.543 7.46062 107.543 7.91664V7.9274C107.543 8.22065 107.573 8.50045 107.632 8.76545C107.693 9.0318 107.779 9.27932 107.895 9.50665C108.01 9.73399 108.151 9.9398 108.321 10.1241C108.489 10.3084 108.683 10.4658 108.899 10.5976ZM108.765 7.36108C108.784 7.2224 108.811 7.09371 108.847 6.97501C108.928 6.70866 109.042 6.48805 109.193 6.31183C109.343 6.13561 109.525 6.00512 109.739 5.91903C109.953 5.83429 110.189 5.79124 110.449 5.79124C110.617 5.79124 110.772 5.80873 110.914 5.8437C111.057 5.87868 111.189 5.92979 111.31 5.99705C111.431 6.06431 111.539 6.14368 111.633 6.2365C111.727 6.32932 111.809 6.4329 111.878 6.54858C111.946 6.66292 112 6.78937 112.039 6.92658C112.078 7.06379 112.104 7.20773 112.114 7.3557V7.36108H108.765ZM115.314 10.8882C115.052 10.8088 114.826 10.6931 114.635 10.5425C114.444 10.3918 114.294 10.2089 114.187 9.99096C114.079 9.77438 114.025 9.52956 114.025 9.25918V9.24841C114.025 9.04395 114.052 8.85965 114.106 8.6942C114.16 8.52874 114.239 8.38211 114.346 8.25163C114.452 8.12115 114.584 8.00815 114.744 7.90861C114.904 7.81041 115.089 7.72297 115.301 7.64629C115.512 7.56962 115.75 7.5037 116.014 7.44855C116.277 7.3934 116.566 7.34497 116.883 7.30327C117.123 7.26964 117.314 7.23601 117.456 7.20238C117.597 7.16875 117.706 7.12705 117.781 7.07728C117.856 7.02751 117.906 6.96697 117.929 6.89568C117.952 6.82573 117.963 6.7356 117.963 6.62798V6.61722C117.963 6.47194 117.934 6.34684 117.879 6.24192C117.824 6.13565 117.743 6.04686 117.64 5.97422C117.536 5.90158 117.41 5.84777 117.262 5.8128C117.114 5.77783 116.946 5.76034 116.76 5.76034C116.575 5.76034 116.39 5.78052 116.229 5.82222C116.067 5.86257 115.927 5.92714 115.812 6.01458C115.695 6.10202 115.603 6.21098 115.536 6.34281C115.469 6.47463 115.432 6.63337 115.424 6.819H114.288C114.288 6.48539 114.355 6.19618 114.488 5.9527C114.621 5.70922 114.802 5.50879 115.028 5.3514C115.254 5.19401 115.517 5.07564 115.819 4.99761C116.12 4.91959 116.435 4.88058 116.766 4.88058C117.126 4.88058 117.449 4.91287 117.737 4.97744C118.025 5.04201 118.268 5.14962 118.466 5.29759C118.665 5.44556 118.817 5.64331 118.922 5.88813C119.028 6.13295 119.081 6.43428 119.081 6.79075L119.07 8.92288C119.07 9.13407 119.071 9.32778 119.075 9.50266C119.079 9.67753 119.087 9.84164 119.101 9.99499C119.114 10.1497 119.132 10.2963 119.156 10.4349C119.18 10.5734 119.208 10.712 119.242 10.8492H118.112L118.105 10.8045C118.1 10.7725 118.095 10.742 118.089 10.7133C118.085 10.6901 118.081 10.6668 118.077 10.6433L118.077 10.6425C118.073 10.6228 118.07 10.603 118.066 10.5828C118.058 10.5385 118.053 10.4914 118.05 10.4443C118.046 10.3959 118.042 10.3421 118.039 10.2829C117.947 10.3864 117.842 10.4833 117.725 10.5721C117.608 10.6609 117.474 10.7375 117.324 10.8008C117.173 10.864 117.002 10.9138 116.811 10.9514C116.62 10.9891 116.404 11.0066 116.163 11.0066C115.859 11.0066 115.575 10.9662 115.314 10.8869V10.8882ZM116.852 10.0797C116.987 10.0555 117.111 10.0206 117.224 9.97347C117.337 9.92774 117.441 9.86989 117.534 9.80129C117.626 9.73268 117.704 9.65197 117.768 9.55915C117.831 9.46634 117.879 9.36276 117.916 9.24707C117.951 9.13273 117.968 9.00628 117.968 8.86907V7.81713C117.856 7.8548 117.75 7.88843 117.648 7.92071L117.62 7.92921L117.62 7.92925L117.62 7.92932L117.619 7.92937L117.619 7.92949C117.527 7.95724 117.44 7.98367 117.356 8.0068C117.263 8.03236 117.173 8.05658 117.086 8.07944L116.989 8.10451L116.988 8.10463L116.988 8.10475C116.934 8.11865 116.88 8.13241 116.827 8.1467C116.623 8.19513 116.443 8.24221 116.284 8.28929C116.127 8.33638 115.988 8.38211 115.87 8.42785C115.751 8.47493 115.65 8.52201 115.568 8.57313C115.486 8.6229 115.42 8.6794 115.371 8.74262C115.321 8.80585 115.284 8.87445 115.262 8.94844C115.239 9.02242 115.228 9.10851 115.228 9.20402V9.2094C115.228 9.35468 115.255 9.48382 115.309 9.59682C115.362 9.70981 115.44 9.80532 115.543 9.88334C115.645 9.96137 115.77 10.0192 115.918 10.0582C116.066 10.0972 116.236 10.1161 116.425 10.1161C116.573 10.1161 116.716 10.104 116.852 10.0797ZM121.64 5.04878H120.503V10.8519H121.64V7.82256C121.64 7.51048 121.677 7.24548 121.754 7.02621C121.829 6.80829 121.94 6.62938 122.082 6.49217C122.225 6.35362 122.4 6.25407 122.605 6.19085C122.811 6.12762 123.047 6.09669 123.31 6.09669H123.617V4.98825H123.511C123.283 4.98825 123.074 5.01381 122.881 5.06358C122.689 5.11335 122.514 5.18599 122.358 5.28016C122.202 5.37566 122.065 5.49001 121.946 5.62587C121.827 5.76039 121.724 5.91239 121.64 6.0792V5.04878ZM127.205 5.04878H128.341V6.0792C128.426 5.91239 128.528 5.76039 128.648 5.62587C128.766 5.49001 128.904 5.37566 129.06 5.28016C129.216 5.18599 129.39 5.11335 129.583 5.06358C129.775 5.01381 129.985 4.98825 130.212 4.98825H130.319V6.09669H130.012C129.748 6.09669 129.513 6.12762 129.307 6.19085C129.101 6.25407 128.926 6.35362 128.784 6.49217C128.641 6.62938 128.531 6.80829 128.456 7.02621C128.379 7.24548 128.341 7.51048 128.341 7.82256V10.8519H127.205V5.04878ZM132.094 10.5976C132.31 10.7294 132.552 10.8317 132.82 10.9016L132.813 10.903C133.081 10.9743 133.369 11.0092 133.677 11.0092C134.056 11.0092 134.397 10.9648 134.699 10.8761C135.002 10.7873 135.268 10.6622 135.498 10.5007C135.73 10.3393 135.921 10.1483 136.075 9.92501C136.23 9.70305 136.346 9.45957 136.424 9.19592H135.266C135.211 9.33312 135.139 9.45688 135.052 9.56584C134.964 9.6748 134.858 9.76762 134.732 9.8443C134.605 9.91963 134.457 9.97747 134.289 10.0165C134.121 10.0555 133.929 10.0743 133.713 10.0743C133.528 10.0743 133.354 10.0515 133.193 10.0044C133.031 9.95864 132.883 9.89003 132.75 9.80125C132.616 9.71247 132.499 9.60485 132.396 9.4784C132.295 9.35196 132.208 9.20937 132.138 9.05198C132.068 8.89459 132.014 8.72106 131.979 8.53139C131.964 8.44954 131.952 8.36569 131.944 8.27984H136.511V8.27446C136.523 7.94892 136.503 7.63684 136.453 7.34224C136.404 7.0463 136.323 6.77323 136.214 6.52302C136.105 6.27282 135.968 6.04683 135.802 5.84639C135.637 5.64596 135.447 5.47377 135.232 5.33118C135.017 5.18859 134.776 5.07963 134.511 5.00296C134.245 4.92628 133.958 4.88862 133.65 4.88862C133.234 4.88862 132.848 4.95991 132.492 5.10519C132.135 5.24913 131.827 5.45494 131.568 5.71994C131.308 5.98495 131.105 6.30376 130.958 6.67503C130.81 7.0463 130.738 7.46062 130.738 7.91664V7.9274C130.738 8.22065 130.767 8.50045 130.827 8.76545C130.887 9.0318 130.973 9.27932 131.089 9.50665C131.205 9.73399 131.346 9.9398 131.515 10.1241C131.683 10.3084 131.877 10.4658 132.094 10.5976ZM131.959 7.36108C131.978 7.2224 132.006 7.09371 132.041 6.97501C132.122 6.70866 132.236 6.48805 132.387 6.31183C132.538 6.13561 132.719 6.00512 132.933 5.91903C133.147 5.83429 133.384 5.79124 133.643 5.79124C133.812 5.79124 133.966 5.80873 134.109 5.8437C134.251 5.87868 134.383 5.92979 134.504 5.99705C134.625 6.06431 134.733 6.14368 134.827 6.2365C134.921 6.32932 135.003 6.4329 135.072 6.54858C135.141 6.66292 135.194 6.78937 135.233 6.92658C135.272 7.06379 135.298 7.20773 135.309 7.3557V7.36108H131.959ZM136.701 5.04867H137.937L139.69 9.70404L141.49 5.04867H142.609L140.298 10.8518H139.018L136.701 5.04867ZM143.602 10.1389C143.856 10.4092 144.164 10.6231 144.526 10.7765C144.888 10.9312 145.296 11.0079 145.749 11.0079C146.202 11.0079 146.61 10.9312 146.975 10.7765C147.338 10.6218 147.646 10.4092 147.899 10.1389C148.152 9.86848 148.345 9.54564 148.481 9.17033C148.617 8.79502 148.684 8.38877 148.684 7.95024V7.93948C148.684 7.49691 148.617 7.09066 148.481 6.71939C148.345 6.34812 148.152 6.02662 147.899 5.75355C147.646 5.48047 147.338 5.26793 146.975 5.11593C146.61 4.96392 146.202 4.88724 145.749 4.88724C145.296 4.88724 144.888 4.96392 144.526 5.11593C144.164 5.26793 143.856 5.48047 143.602 5.75355C143.348 6.02662 143.153 6.34812 143.017 6.71939C142.881 7.09066 142.814 7.49826 142.814 7.93948V7.95024C142.814 8.38877 142.881 8.79502 143.017 9.17033C143.153 9.54429 143.348 9.86848 143.602 10.1389ZM147.047 9.473C146.902 9.65998 146.72 9.8066 146.504 9.91018C146.286 10.0138 146.036 10.0662 145.749 10.0662C145.463 10.0662 145.211 10.0138 144.994 9.91018C144.777 9.8066 144.596 9.65998 144.451 9.473C144.307 9.28467 144.198 9.06271 144.125 8.80444C144.053 8.5475 144.017 8.26232 144.017 7.95024V7.93948C144.017 7.62874 144.053 7.34356 144.125 7.08528C144.198 6.82701 144.306 6.60505 144.451 6.41942C144.596 6.23378 144.778 6.0885 144.994 5.98492C145.211 5.88134 145.463 5.82888 145.749 5.82888C146.036 5.82888 146.286 5.88134 146.504 5.98492C146.722 6.0885 146.902 6.23378 147.047 6.41942C147.191 6.60505 147.3 6.82701 147.373 7.08528C147.445 7.34222 147.482 7.6274 147.482 7.93948V7.95024C147.482 8.26098 147.445 8.54616 147.373 8.80444C147.3 9.06271 147.193 9.28601 147.047 9.473ZM149.801 3H150.938V10.8519H149.801V3ZM152.89 10.3393C153.066 10.5545 153.287 10.7186 153.551 10.8343L153.549 10.837C153.813 10.9514 154.121 11.0092 154.473 11.0092C154.689 11.0092 154.884 10.9877 155.059 10.9473C155.233 10.907 155.392 10.8491 155.535 10.7751C155.677 10.7012 155.807 10.611 155.922 10.5048C156.038 10.3985 156.143 10.2828 156.24 10.1564V10.8518H157.376V5.04867H156.24V8.27309C156.24 8.55827 156.211 8.81252 156.156 9.03313C156.101 9.25374 156.016 9.43937 155.903 9.59003C155.789 9.7407 155.646 9.85369 155.474 9.93037C155.302 10.007 155.1 10.0447 154.87 10.0447C154.64 10.0447 154.438 10.007 154.266 9.93037C154.093 9.85369 153.95 9.7407 153.837 9.59003C153.724 9.43937 153.639 9.25374 153.582 9.03313C153.524 8.81252 153.496 8.55962 153.496 8.27309V5.04867H152.359V8.51254C152.359 8.89861 152.403 9.24567 152.492 9.55371C152.581 9.86176 152.714 10.1241 152.89 10.3393ZM159.96 10.7658C159.75 10.7079 159.584 10.6138 159.462 10.4819C159.339 10.3501 159.253 10.1752 159.206 9.95864C159.158 9.74207 159.134 9.47572 159.134 9.1596V6.01858H158.243V5.05005H159.134V3.21252H160.269V5.05005H161.511V6.01858H160.269V9.13673C160.269 9.27394 160.276 9.39097 160.292 9.48783C160.307 9.58468 160.338 9.66136 160.386 9.7192C160.434 9.77704 160.504 9.81874 160.594 9.8443C160.686 9.86986 160.806 9.88331 160.954 9.88331H161.466V10.8518H160.764C160.437 10.8518 160.169 10.8236 159.96 10.7658ZM163.642 3H162.506V4.29138H163.642V3ZM163.642 5.04872H162.506V10.8519H163.642V5.04872ZM166.49 10.7765C166.128 10.6231 165.82 10.4092 165.566 10.1389C165.312 9.86848 165.117 9.54429 164.981 9.17033C164.845 8.79502 164.778 8.38877 164.778 7.95024V7.93948C164.778 7.49826 164.845 7.09066 164.981 6.71939C165.117 6.34812 165.312 6.02662 165.566 5.75355C165.82 5.48047 166.128 5.26793 166.49 5.11593C166.852 4.96392 167.26 4.88724 167.713 4.88724C168.166 4.88724 168.574 4.96392 168.938 5.11593C169.302 5.26793 169.61 5.48047 169.863 5.75355C170.115 6.02662 170.309 6.34812 170.445 6.71939C170.581 7.09066 170.648 7.49691 170.648 7.93948V7.95024C170.648 8.38877 170.581 8.79502 170.445 9.17033C170.309 9.54564 170.115 9.86848 169.863 10.1389C169.61 10.4092 169.302 10.6218 168.938 10.7765C168.574 10.9312 168.166 11.0079 167.713 11.0079C167.26 11.0079 166.852 10.9312 166.49 10.7765ZM168.468 9.91018C168.684 9.8066 168.866 9.65998 169.011 9.473C169.156 9.28601 169.264 9.06271 169.337 8.80444C169.409 8.54616 169.446 8.26098 169.446 7.95024V7.93948C169.446 7.6274 169.409 7.34222 169.337 7.08528C169.264 6.82701 169.155 6.60505 169.011 6.41942C168.866 6.23378 168.686 6.0885 168.468 5.98492C168.25 5.88134 168 5.82888 167.713 5.82888C167.426 5.82888 167.175 5.88134 166.958 5.98492C166.742 6.0885 166.56 6.23378 166.415 6.41942C166.27 6.60505 166.162 6.82701 166.089 7.08528C166.017 7.34356 165.98 7.62874 165.98 7.93948V7.95024C165.98 8.26232 166.017 8.5475 166.089 8.80444C166.162 9.06271 166.271 9.28467 166.415 9.473C166.56 9.65998 166.74 9.8066 166.958 9.91018C167.175 10.0138 167.426 10.0662 167.713 10.0662C168 10.0662 168.25 10.0138 168.468 9.91018ZM171.753 5.04868H171.752L171.753 5.04599V5.04868ZM171.753 5.04868H172.889V5.74415C172.985 5.61366 173.09 5.49663 173.206 5.39305C173.322 5.28947 173.45 5.20069 173.593 5.12536C173.736 5.05137 173.895 4.99353 174.07 4.95317C174.245 4.91282 174.44 4.8913 174.655 4.8913C175.007 4.8913 175.315 4.94914 175.579 5.06348C175.843 5.17917 176.062 5.34328 176.239 5.55851C176.416 5.77374 176.549 6.03605 176.638 6.3441C176.726 6.65215 176.771 6.99921 176.771 7.38528V10.8491H175.634V7.62472C175.634 7.33954 175.606 7.0853 175.551 6.86469C175.496 6.64408 175.409 6.45844 175.295 6.30778C175.179 6.15712 175.037 6.04412 174.863 5.96745C174.691 5.89077 174.489 5.85311 174.259 5.85311C174.029 5.85311 173.827 5.89077 173.655 5.96745C173.483 6.04412 173.339 6.15712 173.226 6.30778C173.113 6.45844 173.028 6.64408 172.973 6.86469C172.918 7.0853 172.89 7.33954 172.89 7.62472V10.8491H171.753V5.04868ZM76.5 20.8722C76.192 20.7874 75.927 20.6623 75.7037 20.4996C75.4804 20.3368 75.3028 20.135 75.1697 19.8956C75.0365 19.6561 74.9504 19.3831 74.9141 19.0737H76.0494C76.079 19.2633 76.1355 19.4248 76.2189 19.5579C76.3023 19.6911 76.4086 19.8014 76.5391 19.8862C76.6695 19.9723 76.8202 20.0341 76.9924 20.0731C77.1646 20.1122 77.3569 20.131 77.5681 20.131C77.6865 20.131 77.8008 20.1243 77.9111 20.1108C78.0201 20.0974 78.121 20.0772 78.2125 20.0462C78.3039 20.0167 78.386 19.9817 78.46 19.94C78.534 19.8996 78.5958 19.8485 78.647 19.7893C78.6967 19.7301 78.7357 19.6642 78.764 19.5916C78.7922 19.5189 78.8057 19.4382 78.8057 19.3494V19.3387C78.8057 19.1934 78.7761 19.0737 78.7169 18.9768C78.6577 18.88 78.5743 18.7993 78.4694 18.732C78.3631 18.6647 78.2367 18.6096 78.0901 18.5652C77.9434 18.5208 77.7834 18.4804 77.6085 18.4428L76.757 18.2585C76.5189 18.206 76.2969 18.1347 76.0911 18.0446C75.8853 17.9531 75.7064 17.8401 75.5571 17.7043C75.4064 17.5684 75.2894 17.407 75.2033 17.2173C75.1185 17.0276 75.0755 16.8111 75.0755 16.5662V16.5555C75.0755 16.3066 75.1347 16.0793 75.2544 15.8735C75.3728 15.6677 75.5369 15.4914 75.744 15.3448C75.9512 15.1982 76.1974 15.0838 76.4785 15.0018C76.761 14.9197 77.065 14.8794 77.3919 14.8794C77.7188 14.8794 78.0134 14.9117 78.2851 14.9762C78.5582 15.0408 78.7976 15.143 79.0034 15.2802C79.2093 15.4174 79.3774 15.595 79.5079 15.8116C79.6384 16.0282 79.7231 16.2878 79.7635 16.5878H78.6268C78.608 16.4761 78.5784 16.3793 78.538 16.2959C78.4976 16.2125 78.4465 16.1385 78.3873 16.0752C78.3282 16.012 78.2609 15.9596 78.1869 15.9165C78.1129 15.8735 78.0309 15.8398 77.9421 15.8129C77.8533 15.7874 77.7578 15.7685 77.6556 15.7578C77.5533 15.747 77.4471 15.7416 77.3354 15.7416C77.1753 15.7416 77.026 15.7591 76.8875 15.7941C76.7476 15.8291 76.6292 15.8802 76.5283 15.9448C76.4274 16.0093 76.3494 16.0887 76.2915 16.1815C76.2337 16.2743 76.2054 16.3806 76.2054 16.499V16.5097C76.2054 16.6214 76.2256 16.7196 76.2673 16.8043C76.3077 16.8904 76.3669 16.9644 76.4422 17.0276C76.5189 17.0909 76.6117 17.1447 76.7233 17.1891C76.835 17.2335 76.9614 17.2711 77.1013 17.3007L77.9475 17.485C78.2259 17.5442 78.4869 17.6155 78.7304 17.6989C78.9738 17.7823 79.185 17.8886 79.3653 18.019C79.5456 18.1495 79.6868 18.3083 79.789 18.4979C79.8913 18.6876 79.9424 18.919 79.9424 19.1934V19.2042C79.9424 19.3938 79.9141 19.57 79.859 19.7328C79.8038 19.8956 79.7245 20.0449 79.6222 20.1781C79.52 20.3112 79.3962 20.4296 79.2523 20.5319C79.107 20.6341 78.9456 20.7188 78.768 20.7874C78.5891 20.856 78.3968 20.9085 78.1883 20.9435C77.9798 20.9785 77.7632 20.9959 77.5372 20.9959C77.1551 20.9959 76.8094 20.9529 76.5014 20.8682L76.5 20.8722ZM81.6567 20.4741C81.7791 20.6059 81.9446 20.7 82.1544 20.7579C82.3643 20.8157 82.632 20.844 82.9589 20.844H83.6611V19.8754H83.1485C83.0006 19.8754 82.8808 19.862 82.7894 19.8364C82.6992 19.8109 82.6293 19.7692 82.5809 19.7113C82.5324 19.6535 82.5015 19.5768 82.4867 19.48C82.4706 19.3831 82.4638 19.2661 82.4638 19.1289V16.0107H83.7054V15.0422H82.4638V13.2046H81.3285V15.0422H80.438V16.0107H81.3285V19.1517C81.3285 19.4678 81.3527 19.7342 81.4011 19.9508C81.4482 20.1673 81.5343 20.3422 81.6567 20.4741ZM85.6861 20.8803C85.4238 20.8009 85.1978 20.6852 85.0068 20.5345C84.8158 20.3839 84.6665 20.2009 84.5589 19.983C84.4513 19.7651 84.3975 19.5216 84.3975 19.2512V19.2405C84.3975 19.036 84.4244 18.8517 84.4782 18.6863C84.532 18.5208 84.6113 18.3742 84.7176 18.2437C84.8239 18.1132 84.9557 18.0002 85.1158 17.9007C85.2759 17.8025 85.4615 17.715 85.6727 17.6384C85.8839 17.5617 86.122 17.4958 86.3856 17.4406C86.6493 17.3855 86.9385 17.337 87.2546 17.2953C87.4954 17.2617 87.6864 17.2281 87.8277 17.1944C87.9689 17.1608 88.0779 17.1191 88.1532 17.0693C88.2286 17.0196 88.2783 16.959 88.3012 16.8877C88.3241 16.8178 88.3348 16.7277 88.3348 16.62V16.6093C88.3348 16.464 88.3066 16.3389 88.2514 16.234C88.1963 16.129 88.1156 16.0389 88.012 15.9663C87.9084 15.8936 87.782 15.8398 87.634 15.8049C87.486 15.7699 87.3179 15.7524 87.1322 15.7524C86.9466 15.7524 86.7623 15.7726 86.6009 15.8143C86.4395 15.8546 86.2996 15.9192 86.1839 16.0066C86.0668 16.0941 85.9754 16.203 85.9081 16.3349C85.8408 16.4667 85.8045 16.6254 85.7965 16.8111H84.6598C84.6598 16.4775 84.727 16.1882 84.8602 15.9448C84.9934 15.7013 85.1736 15.5008 85.3996 15.3435C85.6256 15.1861 85.8893 15.0677 86.1906 14.9897C86.4919 14.9117 86.8067 14.8726 87.1376 14.8726C87.4981 14.8726 87.821 14.9049 88.1088 14.9695C88.3967 15.0341 88.6402 15.1417 88.8379 15.2896C89.037 15.4376 89.189 15.6354 89.2939 15.8802C89.4002 16.125 89.4527 16.4263 89.4527 16.7828L89.4419 18.9149C89.4419 19.1261 89.4433 19.3198 89.4473 19.4947C89.4513 19.6696 89.4594 19.8337 89.4729 19.9871C89.4863 20.1417 89.5038 20.2884 89.528 20.4269C89.5522 20.5655 89.5805 20.704 89.6141 20.8412H88.4841L88.4768 20.7964L88.4768 20.7964C88.4717 20.7644 88.4668 20.734 88.4613 20.7054C88.4569 20.6819 88.4529 20.6585 88.4488 20.6348L88.4488 20.6347L88.4488 20.6347L88.4488 20.6346C88.4454 20.6149 88.4421 20.595 88.4384 20.5749C88.4303 20.5305 88.4249 20.4834 88.4223 20.4363C88.4182 20.3879 88.4142 20.3341 88.4115 20.2749C88.3187 20.3785 88.2138 20.4754 88.0967 20.5641C87.9797 20.6529 87.8465 20.7296 87.6959 20.7928C87.5452 20.856 87.3744 20.9058 87.1833 20.9435C86.9923 20.9811 86.7758 20.9986 86.535 20.9986C86.2309 20.9986 85.9471 20.9583 85.6861 20.8789V20.8803ZM87.2237 20.0731C87.3596 20.0489 87.4833 20.014 87.5963 19.9669C87.7093 19.9211 87.8129 19.8633 87.9057 19.7947C87.9985 19.7261 88.0765 19.6454 88.1398 19.5526C88.203 19.4597 88.2514 19.3562 88.2877 19.2405C88.3227 19.1248 88.3402 18.9997 88.3402 18.8625V17.8105C88.2286 17.8482 88.1223 17.8818 88.02 17.9141L87.9917 17.9227C87.8999 17.9505 87.8124 17.977 87.7281 18.0002C87.6353 18.0258 87.5452 18.05 87.4578 18.0728L87.361 18.0979L87.3608 18.0979C87.3065 18.1119 87.2527 18.1257 87.1995 18.1401C86.995 18.1885 86.8148 18.2356 86.656 18.2827C86.4986 18.3298 86.3601 18.3755 86.2417 18.4226C86.1233 18.4697 86.0224 18.5168 85.9404 18.5679C85.8583 18.6176 85.7924 18.6741 85.7426 18.7374C85.6929 18.8006 85.6566 18.8692 85.6337 18.9432C85.6108 19.0172 85.6001 19.1033 85.6001 19.1988V19.2042C85.6001 19.3494 85.627 19.4786 85.6808 19.5916C85.7346 19.7046 85.8126 19.8001 85.9148 19.8781C86.0171 19.9561 86.1422 20.014 86.2901 20.053C86.4381 20.092 86.6076 20.1108 86.7973 20.1108C86.9452 20.1108 87.0878 20.0987 87.2237 20.0745V20.0731ZM92.0117 15.0408H90.875V20.8439H92.0117V17.8146C92.0117 17.5025 92.0493 17.2375 92.126 17.0182C92.2013 16.8003 92.3116 16.6214 92.4542 16.4842C92.5968 16.3456 92.7717 16.2461 92.9775 16.1828C93.1833 16.1196 93.4187 16.0887 93.6824 16.0887H93.9891V14.9802H93.8828C93.6555 14.9802 93.4456 15.0058 93.2533 15.0556C93.0609 15.1053 92.886 15.1766 92.73 15.2721C92.574 15.3677 92.4368 15.482 92.3184 15.6179C92.1987 15.7524 92.0964 15.9044 92.0117 16.0712V15.0408ZM96.2565 20.7579C96.0466 20.7 95.8812 20.6059 95.7588 20.4741C95.6364 20.3422 95.5503 20.1673 95.5032 19.9508C95.4548 19.7342 95.4305 19.4678 95.4305 19.1517V16.0107H94.54V15.0422H95.4305V13.2046H96.5659V15.0422H97.8075V16.0107H96.5659V19.1289C96.5659 19.2661 96.5726 19.3831 96.5887 19.48C96.6035 19.5768 96.6345 19.6535 96.6829 19.7113C96.7313 19.7692 96.8013 19.8109 96.8914 19.8364C96.9829 19.862 97.1026 19.8754 97.2506 19.8754H97.7631V20.844H97.0609C96.734 20.844 96.4663 20.8157 96.2565 20.7579ZM99.2056 20.4996C99.4289 20.6623 99.6939 20.7874 100.002 20.8722L100.003 20.8682C100.311 20.9529 100.657 20.9959 101.039 20.9959C101.265 20.9959 101.482 20.9785 101.69 20.9435C101.899 20.9085 102.091 20.856 102.27 20.7874C102.448 20.7188 102.609 20.6341 102.754 20.5319C102.898 20.4296 103.022 20.3112 103.124 20.1781C103.226 20.0449 103.306 19.8956 103.361 19.7328C103.416 19.57 103.444 19.3938 103.444 19.2042V19.1934C103.444 18.919 103.393 18.6876 103.291 18.4979C103.189 18.3083 103.047 18.1495 102.867 18.019C102.687 17.8886 102.476 17.7823 102.232 17.6989C101.989 17.6155 101.728 17.5442 101.449 17.485L100.603 17.3007C100.463 17.2711 100.337 17.2335 100.225 17.1891C100.114 17.1447 100.021 17.0909 99.9441 17.0276C99.8688 16.9644 99.8096 16.8904 99.7693 16.8043C99.7276 16.7196 99.7074 16.6214 99.7074 16.5097V16.499C99.7074 16.3806 99.7356 16.2743 99.7935 16.1815C99.8513 16.0887 99.9293 16.0093 100.03 15.9448C100.131 15.8802 100.249 15.8291 100.389 15.7941C100.528 15.7591 100.677 15.7416 100.837 15.7416C100.949 15.7416 101.055 15.747 101.157 15.7578C101.26 15.7685 101.355 15.7874 101.444 15.8129C101.533 15.8398 101.615 15.8735 101.689 15.9165C101.763 15.9596 101.83 16.012 101.889 16.0752C101.948 16.1385 102 16.2125 102.04 16.2959C102.08 16.3793 102.11 16.4761 102.129 16.5878H103.265C103.225 16.2878 103.14 16.0282 103.01 15.8116C102.879 15.595 102.711 15.4174 102.505 15.2802C102.3 15.143 102.06 15.0408 101.787 14.9762C101.515 14.9117 101.221 14.8794 100.894 14.8794C100.567 14.8794 100.263 14.9197 99.9805 15.0018C99.6993 15.0838 99.4531 15.1982 99.246 15.3448C99.0388 15.4914 98.8747 15.6677 98.7563 15.8735C98.6366 16.0793 98.5774 16.3066 98.5774 16.5555V16.5662C98.5774 16.8111 98.6205 17.0276 98.7052 17.2173C98.7913 17.407 98.9083 17.5684 99.059 17.7043C99.2083 17.8401 99.3872 17.9531 99.593 18.0446C99.7989 18.1347 100.021 18.206 100.259 18.2585L101.11 18.4428C101.285 18.4804 101.445 18.5208 101.592 18.5652C101.739 18.6096 101.865 18.6647 101.971 18.732C102.076 18.7993 102.16 18.88 102.219 18.9768C102.278 19.0737 102.308 19.1934 102.308 19.3387V19.3494C102.308 19.4382 102.294 19.5189 102.266 19.5916C102.238 19.6642 102.199 19.7301 102.149 19.7893C102.098 19.8485 102.036 19.8996 101.962 19.94C101.888 19.9817 101.806 20.0167 101.714 20.0462C101.623 20.0772 101.522 20.0974 101.413 20.1108C101.303 20.1243 101.188 20.131 101.07 20.131C100.859 20.131 100.666 20.1122 100.494 20.0731C100.322 20.0341 100.171 19.9723 100.041 19.8862C99.9105 19.8014 99.8042 19.6911 99.7208 19.5579C99.6374 19.4248 99.5809 19.2633 99.5513 19.0737H98.416C98.4523 19.3831 98.5384 19.6561 98.6716 19.8956C98.8048 20.135 98.9823 20.3368 99.2056 20.4996ZM107.253 12.992H107.255V20.8426H108.391V17.6181C108.391 17.333 108.42 17.0787 108.475 16.8581C108.53 16.6375 108.615 16.4519 108.728 16.3012C108.841 16.1505 108.985 16.0375 109.157 15.9609C109.329 15.8842 109.531 15.8465 109.761 15.8465C109.991 15.8465 110.193 15.8842 110.365 15.9609C110.538 16.0375 110.681 16.1505 110.797 16.3012C110.911 16.4519 110.997 16.6375 111.052 16.8581C111.107 17.0787 111.136 17.333 111.136 17.6181V20.8426H112.272V17.3787C112.272 16.9926 112.228 16.6456 112.139 16.3375C112.05 16.0295 111.917 15.7672 111.741 15.5519C111.563 15.3367 111.344 15.1726 111.08 15.0569C110.817 14.9426 110.509 14.8847 110.156 14.8847C109.941 14.8847 109.746 14.9062 109.571 14.9466C109.396 14.9869 109.238 15.0448 109.095 15.1188C108.951 15.1941 108.823 15.2829 108.708 15.3865C108.592 15.4914 108.487 15.6071 108.39 15.7376V12.992H107.255V12.9907L107.253 12.992ZM114.691 20.5897C114.908 20.7215 115.15 20.8238 115.418 20.8937H115.411C115.679 20.965 115.967 21 116.275 21C116.654 21 116.994 20.9556 117.297 20.8668C117.6 20.778 117.866 20.6529 118.096 20.4915C118.327 20.3301 118.518 20.1391 118.673 19.9158C118.828 19.6938 118.944 19.4503 119.022 19.1867H117.863C117.808 19.3239 117.737 19.4476 117.649 19.5566C117.562 19.6656 117.456 19.7584 117.329 19.8351C117.203 19.9104 117.056 19.9682 116.887 20.0072C116.719 20.0462 116.526 20.0651 116.311 20.0651C116.125 20.0651 115.952 20.0422 115.79 19.9951C115.629 19.9494 115.481 19.8808 115.348 19.792C115.213 19.7032 115.096 19.5956 114.994 19.4692C114.893 19.3427 114.806 19.2001 114.736 19.0427C114.666 18.8853 114.612 18.7118 114.577 18.5221C114.562 18.4403 114.55 18.3564 114.542 18.2706H119.109V18.2652C119.121 17.9397 119.101 17.6276 119.051 17.333C119.001 17.0371 118.921 16.764 118.812 16.5138C118.703 16.2636 118.566 16.0376 118.4 15.8371C118.235 15.6367 118.045 15.4645 117.83 15.3219C117.614 15.1793 117.374 15.0704 117.109 14.9937C116.842 14.917 116.556 14.8794 116.248 14.8794C115.832 14.8794 115.446 14.952 115.09 15.0959C114.733 15.2399 114.425 15.4457 114.165 15.7107C113.906 15.9757 113.703 16.2945 113.556 16.6658C113.408 17.0371 113.335 17.4514 113.335 17.9074V17.9182C113.335 18.2114 113.365 18.4912 113.424 18.7562C113.485 19.0226 113.571 19.2687 113.687 19.4974C113.802 19.7261 113.943 19.9319 114.113 20.1162C114.281 20.3005 114.475 20.4579 114.691 20.5897ZM114.557 17.3518C114.576 17.2132 114.603 17.0845 114.639 16.9658C114.72 16.6994 114.834 16.4788 114.985 16.3026C115.135 16.1264 115.317 15.9959 115.531 15.9098C115.745 15.825 115.981 15.782 116.241 15.782C116.409 15.782 116.564 15.7995 116.706 15.8345C116.849 15.8694 116.981 15.9205 117.102 15.9878C117.223 16.0551 117.331 16.1344 117.425 16.2273C117.519 16.3201 117.601 16.4236 117.67 16.5393C117.738 16.6537 117.792 16.7801 117.831 16.9173C117.87 17.0545 117.896 17.1985 117.906 17.3465V17.3518H114.557ZM120.217 15.0408H121.354V16.0712C121.439 15.9044 121.541 15.7524 121.661 15.6179C121.779 15.482 121.916 15.3677 122.072 15.2721C122.228 15.1766 122.403 15.1053 122.596 15.0556C122.788 15.0058 122.998 14.9802 123.225 14.9802H123.331V16.0887H123.025C122.761 16.0887 122.526 16.1196 122.32 16.1828C122.114 16.2461 121.939 16.3456 121.797 16.4842C121.654 16.6214 121.544 16.8003 121.468 17.0182C121.392 17.2375 121.354 17.5025 121.354 17.8146V20.8439H120.217V15.0408ZM125.106 20.5897C125.323 20.7215 125.565 20.8238 125.833 20.8937H125.826C126.094 20.965 126.382 21 126.69 21C127.069 21 127.409 20.9556 127.712 20.8668C128.015 20.778 128.281 20.6529 128.511 20.4915C128.742 20.3301 128.933 20.1391 129.088 19.9158C129.243 19.6938 129.359 19.4503 129.437 19.1867H128.278C128.223 19.3239 128.152 19.4476 128.064 19.5566C127.977 19.6656 127.871 19.7584 127.744 19.8351C127.618 19.9104 127.471 19.9682 127.302 20.0072C127.134 20.0462 126.941 20.0651 126.726 20.0651C126.54 20.0651 126.367 20.0422 126.205 19.9951C126.044 19.9494 125.896 19.8808 125.763 19.792C125.628 19.7032 125.511 19.5956 125.409 19.4692C125.308 19.3427 125.221 19.2001 125.151 19.0427C125.081 18.8853 125.027 18.7118 124.992 18.5221C124.977 18.4403 124.965 18.3564 124.957 18.2706H129.524V18.2652C129.536 17.9397 129.516 17.6276 129.466 17.333C129.416 17.0371 129.336 16.764 129.227 16.5138C129.118 16.2636 128.981 16.0376 128.815 15.8371C128.65 15.6367 128.46 15.4645 128.245 15.3219C128.03 15.1793 127.789 15.0704 127.524 14.9937C127.257 14.917 126.971 14.8794 126.663 14.8794C126.247 14.8794 125.861 14.952 125.505 15.0959C125.148 15.2399 124.84 15.4457 124.58 15.7107C124.321 15.9757 124.118 16.2945 123.971 16.6658C123.823 17.0371 123.75 17.4514 123.75 17.9074V17.9182C123.75 18.2114 123.78 18.4912 123.839 18.7562C123.9 19.0226 123.986 19.2687 124.102 19.4974C124.217 19.7261 124.358 19.9319 124.528 20.1162C124.696 20.3005 124.89 20.4579 125.106 20.5897ZM124.972 17.3518C124.991 17.2132 125.018 17.0845 125.054 16.9658C125.135 16.6994 125.249 16.4788 125.4 16.3026C125.55 16.1264 125.732 15.9959 125.946 15.9098C126.16 15.825 126.396 15.782 126.656 15.782C126.824 15.782 126.979 15.7995 127.121 15.8345C127.264 15.8694 127.396 15.9205 127.517 15.9878C127.638 16.0551 127.746 16.1344 127.84 16.2273C127.934 16.3201 128.016 16.4236 128.085 16.5393C128.153 16.6537 128.207 16.7801 128.246 16.9173C128.285 17.0545 128.311 17.1985 128.321 17.3465V17.3518H124.972Z" fill="#3E3EFF"/>
</svg>
